<?xml version="1.0" encoding="utf-8"?>
<!-- Generator: Adobe Illustrator 15.0.0, SVG Export Plug-In . SVG Version: 6.00 Build 0)  -->
<!DOCTYPE svg PUBLIC "-//W3C//DTD SVG 1.1//EN" "http://www.w3.org/Graphics/SVG/1.1/DTD/svg11.dtd">
<svg version="1.1" id="Layer_1" xmlns="http://www.w3.org/2000/svg" xmlns:xlink="http://www.w3.org/1999/xlink" x="0px" y="0px"
	 width="800px" height="600px" viewBox="0 0 800 600" enable-background="new 0 0 800 600" xml:space="preserve">
<g>
	<defs>
		<rect id="SVGID_1_" x="380.369" y="350.689" width="47.208" height="39.263"/>
	</defs>
	<clipPath id="SVGID_2_">
		<use xlink:href="#SVGID_1_"  overflow="visible"/>
	</clipPath>
	<path clip-path="url(#SVGID_2_)" fill="#8B8099" d="M403.972,350.688c-13.035,0-23.603,7.028-23.603,15.694
		c0,4.96,3.468,9.377,8.871,12.252c-0.769,2.55-2.304,5.372-5.268,7.869c0,0,6.921-0.459,11.808-5.417
		c0.281,0.069,0.572,0.12,0.857,0.186c-0.267-0.797-0.425-1.626-0.425-2.488c0-5.848,6.509-10.427,14.821-10.427
		c5.971,0,10.993,2.372,13.359,5.87c2.014-2.311,3.184-4.984,3.184-7.847C427.576,357.717,417.007,350.688,403.972,350.688
		 M424.129,378.786c0-4.809-5.862-8.709-13.097-8.709c-7.232,0-13.098,3.9-13.098,8.709c0,4.812,5.865,8.708,13.098,8.708
		c1.601,0,3.126-0.199,4.545-0.549c2.711,2.752,6.551,3.006,6.551,3.006c-1.645-1.386-2.494-2.953-2.922-4.368
		C422.202,383.989,424.129,381.539,424.129,378.786"/>
</g>
<g>
	<defs>
		<rect id="SVGID_3_" x="380.369" y="169.012" width="46.244" height="45.675"/>
	</defs>
	<clipPath id="SVGID_4_">
		<use xlink:href="#SVGID_3_"  overflow="visible"/>
	</clipPath>
	<path clip-path="url(#SVGID_4_)" fill="#E3AF24" d="M401.403,193.653l3.174-20.768c-1.038-0.157-2.091-0.265-3.174-0.265
		c-11.617,0-21.034,9.417-21.034,21.033c0,11.616,9.417,21.033,21.034,21.033c11.614,0,21.032-9.416,21.032-21.033
		c0-0.493-0.04-0.976-0.072-1.462L401.403,193.653z M408.828,169.012l-3.175,20.768l20.96-1.462
		C425.929,178.45,418.46,170.475,408.828,169.012"/>
</g>
<polygon fill="#8CA595" points="380.369,237.575 380.428,237.575 380.442,237.539 380.39,237.525 "/>
<polygon fill="#8CA595" points="380.409,237.944 380.497,237.966 380.521,237.873 380.423,237.852 "/>
<polygon fill="#8CA595" points="381.567,239.322 381.608,239.31 381.623,239.235 381.567,239.217 "/>
<polygon fill="#8CA595" points="381.605,241.04 381.603,241.158 381.676,241.168 381.699,241.04 381.676,241.002 "/>
<g>
	<defs>
		<rect id="SVGID_5_" x="380.369" y="231.308" width="46.244" height="47.649"/>
	</defs>
	<clipPath id="SVGID_6_">
		<use xlink:href="#SVGID_5_"  overflow="visible"/>
	</clipPath>
	<path clip-path="url(#SVGID_6_)" fill="#8CA595" d="M426.376,238.637c-0.112-0.033-1.252-0.391-1.558-0.48
		c-0.308-0.09-2.002-0.631-2.331-0.735c-0.331-0.104-1.853-0.621-2.087-0.709c0.037-0.22-0.071-0.34-0.092-0.371
		c-0.02-0.03-0.098-0.178-0.587-0.522c-0.486-0.344-1.351-0.713-1.464-0.753c-0.11-0.039-0.65-0.2-0.667-0.201
		c-0.016,0-0.046,0.017-0.056,0.024c-0.009,0.007-0.011,0.011-0.053-0.001c0.004-0.06-0.023-0.065-0.023-0.065
		s-2.845-0.271-2.875-0.267c-0.03,0.005-0.53,0.169-0.837,0.363c-0.248,0.144-0.363,0.413-0.363,0.413s-0.113,0.55-0.161,0.755
		c-0.046,0.204,0.05,0.314,0.05,0.314l-1.188,6.791l-0.113,0.092l-0.151,0.988c0,0-0.011,0.002-0.023,0.029
		c-0.219-0.021-0.475-0.034-0.751-0.034c-0.783,0-1.418,0.098-1.418,0.215c0,0.129,0.002,0.253,0.007,0.373
		c-0.71-0.231-2.376,0.269-2.376,0.269c-0.607-0.142-3.312,0.142-3.312,0.142c-1.08-0.641-2.976-0.497-2.976-0.497l-0.879-0.926
		c0-0.641-0.47-1.214-0.47-1.214c0-0.498-1.104-2.212-1.104-2.212c0.527,0,0.697-0.99,0.697-0.99l0.203-0.641
		c0.204-0.357,0.474-0.142,0.474-0.142c0.337,0.071,0.472-0.286,0.472-0.286l-0.071-0.998c0.274-0.07,0.274-1.425,0.274-1.425
		l0.133-1.068l0.542,0.072c0.065-0.427-0.812-1.495-0.812-1.495c-1.149-2.136-3.921-1.497-3.921-1.497
		c-1.556,0.072-3.042,3.92-3.042,3.92c-0.134,0.212,0.199,0.567,0.199,0.567l-0.47,0.288c-0.27-0.787-1.756,0.782-1.756,0.782
		c-1.625,1.21-4.057,4.273-4.057,4.273c-0.384,0.696-1.354,2.444-2.21,3.979c-0.516,0.295-2.739,1.609-3.53,2.791
		c-0.05,0.056-0.093,0.123-0.125,0.213c-0.158,0.305-0.207,0.596-0.086,0.852l0.013,0.027c0.164,3.12,3.287,11.149,3.287,11.149
		c0.203,0.541,0.691,0.933,1.352,1.215c-0.642,1.477-1.716,4.586-1.947,9.263c-0.338,6.765,0.61,0.141,0.61,0.141
		s0.936-6.694,2.081-9.15c1.51,0.412,3.554,0.442,5.335,0.35l0.296,1.166c-0.533,1.678-1.201,4.492-1.367,8.416
		c-0.288,6.768,0.515,0.142,0.515,0.142s0.503-4.226,1.198-7.194l1.067,4.203c0,0,0.201-0.425,0.069-2.135l-0.719-3.587
		c0.17-0.511,0.346-0.905,0.524-1.126c0.042-0.003,0.084-0.008,0.126-0.012c-0.012,0.013-0.02,0.023-0.02,0.023l0.116-0.033
		c1.225-0.118,2.067-0.253,2.067-0.253c0.353-0.038,0.63-0.207,0.809-0.429c0.025,0.002,0.049,0.004,0.075,0.008
		c0.044,0.167,0.065,0.279,0.065,0.279c0,0.354,0.778,1.955,1.233,2.861l1.147,5.331c0,0,0.176-0.427,0.061-2.136l-0.301-1.76
		c0.308,0.4,0.668,0.853,0.969,1.224v5.304l0.066,0.074h1.352l0.071-0.074v-3.427c0.228,0.249,0.409,0.44,0.409,0.44
		c-0.274,0.712,0.806,1.067,0.806,1.067c0.269,0,1.354,1.21,1.354,1.21c2.977,1.283,2.365-1.497,2.365-1.497
		c5.406-1.709-1.757-2.136-1.757-2.136c-0.608-0.284-0.204-1.636-0.204-1.636c0-0.571,0.476-7.551,0.476-7.551
		c0-0.927,0.338-4.488,0.338-4.488c0-1.562-2.884-1.805-3.785-1.843v-4.564l-0.072-0.073h20.555L422,248.475v24.424l0.064,0.075
		h1.355l0.067-0.075v-24.423l-0.067-0.073h1.352l0.067-0.072v-0.928l-0.067-0.069h-4.539c0.007-0.038,0.007-0.088,0-0.136
		c-0.019-0.067-0.085-0.101-0.085-0.101s-0.915-0.386-0.834-0.396c0.081-0.01,0.2-0.141,0.2-0.141l2.167,0.076
		c0,0,0.097,0.055,0.194,0.118c0.086,0.057,0.172,0.123,0.209,0.131c0.078,0.017,0.385,0.026,0.426,0.032
		c0.042,0.005,0.04-0.031,0.04-0.031l0.027-0.212c0,0,0.877,0.049,0.977,0.046c0.101-0.002,0.099-0.076,0.099-0.076
		s0.083-0.487,0.171-0.998c0.095-0.553,0.196-1.132,0.196-1.132s-0.002-0.002,0.026-0.137c0.35-0.019,1.11,0.038,1.236,0.044
		c0.123,0.007,0.125-0.106,0.125-0.106s0.118-0.65,0.181-1.022c0.064-0.372,0.218-1.185,0.275-1.535
		c0.057-0.349,0.147-0.878,0.305-1.568c0.158-0.691,0.344-1.183,0.406-1.396C426.613,238.67,426.487,238.67,426.376,238.637
		 M413.936,246.161c0.147,0.089,0.547,0.293,0.559,0.3c0.012,0.008-0.064,0.025-0.091,0.035c-0.028,0.012-0.547,0.261-0.547,0.261
		s-0.217,0-0.474-0.05c-0.257-0.049-0.688-0.127-1.041-0.167c-0.036-0.004-0.062-0.006-0.094-0.009
		c0.05-0.272,0.09-0.584,0.122-0.885c0.159,0.116,0.248,0.13,0.293,0.149C412.713,245.818,413.722,246.106,413.936,246.161
		 M400.092,248.476v4.511c-0.513,0.009-1.097,0.032-1.592,0.056c-0.164-0.497-0.577-1.021-1.515-1.362
		c0.039-0.797-0.138-2.281-0.138-2.281c0.271-0.784,0.674-2.637,0.674-2.637h1.083c0.091,0.271,0.268,0.45,0.475,0.57h-0.338
		l-0.069,0.07v0.927l0.069,0.072h1.417L400.092,248.476z M409.724,247.333c0.145-0.124,0.17-0.285,0.17-0.285
		c0.045-0.011,0.08-0.029,0.117-0.044c0.07,0.174,0.123,0.256,0.123,0.256h1.825c0.109,0,0.199-0.266,0.272-0.632
		c0.012,0,0.027,0,0.039,0c0.193,0.002,0.777,0.1,1.098,0.16c0.164,0.031,0.335,0.033,0.335,0.033l-0.708,0.347
		c0,0-0.034,0.11-0.021,0.165H409.724z M419.184,246.624c0,0-0.05-0.061-0.008-0.062c0.046-0.001,0.204,0.004,0.204,0.004
		S419.282,246.637,419.184,246.624"/>
</g>
<g>
	<defs>
		<rect id="SVGID_7_" x="365.116" y="416.02" width="70.481" height="15.683"/>
	</defs>
	<clipPath id="SVGID_8_">
		<use xlink:href="#SVGID_7_"  overflow="visible"/>
	</clipPath>
	<path clip-path="url(#SVGID_8_)" fill="#B6A691" d="M434.85,419.961c-1.619-0.841-3.426-1.252-3.516-1.32
		c-1.536-1.202-2.58-1.209-2.702-1.211c-1.649-0.036-9.021,0.924-9.021,0.924s-0.317-0.344-0.368-0.339s-0.189-0.008-0.153,0.048
		c0.04,0.057,0.134,0.335,0.016,0.352c-8.449,1.185-12.769,2.641-12.856,2.65c-5.317,0.605-6.059,0.88-6.261,0.826
		c-0.328-0.083-7.479-1.894-7.592-1.909c-0.113-0.017-0.742,0.052-0.812-0.006c-0.13-0.11-3.093-1.444-3.239-1.431
		c-0.084,0.009-1.356,0.037-1.229,0.143c0.585,0.482,1.585,1.843,1.891,1.8c0.307-0.045,1.729,0.623,1.729,0.623l0.484,0.045
		c0,0-0.453,0.125-0.212,0.14c0.244,0.012,3.001,1.365,2.984,1.365c-0.122,0.009-8.842,1.138-8.842,1.138s-0.089-0.248-0.228-0.236
		c-0.137,0.014-0.114,0.271-0.114,0.271s-0.463,0.032-0.772,0.068c-0.648,0.075-2.666-0.145-3.054-0.422
		c-0.284-0.203-11.549-7.105-11.841-7.303c-0.232-0.156-2.749,0.224-4.025,0.404c1.021,1.611,4.923,8.414,4.923,8.414
		c-1.197-0.065-2.663,0.122-2.783,0.133c-0.232,0.02,0.013,0.154,0.013,0.154s1.599,0.941,1.543,0.97
		c-0.14,0.073-0.17,0.519-0.17,0.519l-0.115,0.01l0.057,0.664l0.138-0.014c0.057,0.398,0.74,0.754,1.244,0.783
		c0.147,0.006,2.501,0.181,3.063,0.218c0.347,0.021,7.985,0.598,7.985,0.598l-0.084,0.194c0.279,0.065,0.39-0.153,0.39-0.153
		c0.424,0.005,5.686,0.427,7.305,0.503c1.442,0.065,4.552-0.176,4.552-0.176l-0.023,0.218c0.197-0.017,0.334-0.247,0.334-0.247
		l2.235-0.24l0.019,0.396c0.109-0.019,0.333-0.428,0.333-0.428c0.067-0.014,0.469-0.041,0.469-0.041l0.034,0.369
		c0,0,0.286-0.052,0.414-0.002c0.122,0.049,2.263,0.251,2.263,0.251v0.118l-0.161,0.103l2.424-0.18l0.041,0.176l0.16-0.031
		l0.005,0.164c-0.511,0.552-0.544,0.668-0.522,0.813c0.06,0.375,0.224,0.464,0.418,0.529c0.15,0.058,0.22,0.046,0.355,0.021
		c0.312-0.052,0.608-0.526,0.608-0.526s0.144-0.082,0.173-0.015c0.073,0.165,0.197,0.158,0.353,0.182
		c0.105,0.02,0.227,0.003,0.347-0.054c0.131-0.062,0.783-0.699,0.755-1.022c-0.044-0.516-0.523-0.507-0.53-0.565
		c-0.018-0.181,0.599-0.63,0.599-0.63v-0.389l0.427-0.057l0.059,0.667c-0.165,0.024-0.358,0.929-0.349,1.049
		c0.011,0.118,0.038,0.609,0.038,0.609c-0.091,0.043-0.279,0.187-0.252,0.471c0.053,0.596,0.499,0.591,0.629,0.58
		c0.386-0.024,0.674-0.448,0.655-0.678c-0.012-0.128-0.042-0.312,0.018-0.276c0.147,0.08,0.261,0.038,0.424,0.023
		c0.225-0.021,0.556-0.456,0.538-0.66c-0.008-0.087-0.017-0.26-0.072-0.339c-0.142-0.195,0.049-0.246,0.236-0.265
		c0.331-0.029,0.496-0.516,0.584-0.498c0.088,0.019,1.465,0,1.465,0l0.04,0.246l-0.195,0.036l0.02,0.135c0,0,1.711-0.165,1.866-0.18
		c2.138-0.216,2.154-0.493,2.154-0.493l-0.021-1.453c0.245-0.022,4.163-0.764,4.163-0.764l-0.035,0.373
		c0.309-0.026,0.375-0.458,0.434-0.468c0.873-0.172,5.33-0.746,5.579-0.769c1.78-0.156,5.764-1.101,5.764-1.101l0.076,0.536
		l-0.346,0.393l0.023,0.169l0.429-0.018c0,0,0.193,0.62,0.126,0.634c-0.068,0.015-0.604,0.199-0.556,0.756
		c0.043,0.47,0.613,0.496,0.698,0.49c0.479-0.043,0.697-0.518,0.681-0.713c-0.022-0.258-0.263-0.343-0.232-0.456
		c0.086-0.31-0.245-0.929-0.245-0.929l0.121-0.087l-0.046-0.42l0.481-0.231l-0.061-0.453c3.767-1.201,5.03-2.298,5.308-2.535
		c0.472-0.404,0.694-0.63,0.662-0.99C435.534,420.322,434.984,420.032,434.85,419.961"/>
</g>
<g>
	<defs>
		<rect id="SVGID_9_" x="380.369" y="293.689" width="46.244" height="38.689"/>
	</defs>
	<clipPath id="SVGID_10_">
		<use xlink:href="#SVGID_9_"  overflow="visible"/>
	</clipPath>
	<path clip-path="url(#SVGID_10_)" fill="#A1624F" d="M412.572,321.464c2.003-1.114,1.743-5.402-0.577-9.584
		c-0.997-1.802-2.217-3.26-3.441-4.28c-1.427,1.046-3.167,1.682-5.062,1.682c-1.899,0-3.639-0.638-5.064-1.682
		c-1.223,1.021-2.444,2.479-3.444,4.28c-2.32,4.182-2.575,8.47-0.571,9.584c0.895,0.508,1.838,0.128,2.811-0.811
		c-0.171,0.95-0.271,1.979-0.271,3.057c0,4.794,1.859,8.668,4.148,8.668c1.381,0,2.064-1.412,2.393-3.57
		c0.327,2.144,1.012,3.57,2.384,3.57c2.278,0,4.153-3.875,4.153-8.668c0-1.077-0.102-2.106-0.274-3.057
		C410.732,321.592,411.675,321.979,412.572,321.464 M403.491,307.649c3.852,0,6.979-3.125,6.979-6.98c0-3.856-3.127-6.98-6.979-6.98
		c-3.855,0-6.983,3.126-6.983,6.982C396.508,304.525,399.636,307.649,403.491,307.649 M417.513,312.077
		c3.162,0,5.731-2.566,5.731-5.731c0-3.164-2.567-5.733-5.731-5.733c-3.165,0-5.731,2.567-5.731,5.733
		C411.781,309.511,414.346,312.077,417.513,312.077 M424.497,315.551c-0.82-1.48-1.821-2.678-2.827-3.515
		c-1.17,0.857-2.601,1.381-4.153,1.381c-1.233,0-2.381-0.338-3.388-0.897c0.809,1.783,1.311,3.589,1.405,5.204
		c0.151,2.473-0.622,4.31-2.168,5.164c-0.333,0.191-0.695,0.299-1.066,0.365c-0.091,0.641-0.155,1.307-0.155,2.009
		c0,3.935,1.526,7.116,3.408,7.116c1.131,0,1.694-1.159,1.964-2.932c0.266,1.762,0.828,2.932,1.956,2.932
		c1.87,0,3.411-3.183,3.411-7.116c0-0.884-0.086-1.73-0.229-2.51c0.804,0.77,1.576,1.089,2.314,0.664
		C426.613,322.505,426.399,318.981,424.497,315.551 M389.468,312.077c3.165,0,5.731-2.566,5.731-5.731
		c0-3.164-2.566-5.733-5.731-5.733c-3.164,0-5.733,2.567-5.733,5.733C383.735,309.511,386.304,312.077,389.468,312.077
		 M393.605,322.882c-2.599-1.444-2.838-5.751-0.746-10.368c-1.01,0.565-2.157,0.903-3.391,0.903c-1.559,0-2.988-0.525-4.158-1.381
		c-1.005,0.837-2.005,2.034-2.828,3.515c-1.904,3.433-2.113,6.954-0.467,7.865c0.735,0.42,1.508,0.104,2.306-0.664
		c-0.14,0.783-0.222,1.626-0.222,2.51c0,3.935,1.526,7.116,3.407,7.116c1.133,0,1.696-1.159,1.965-2.932
		c0.269,1.762,0.83,2.932,1.959,2.932c1.87,0,3.409-3.183,3.409-7.116c0-0.704-0.066-1.372-0.159-2.012
		C394.312,323.183,393.947,323.078,393.605,322.882"/>
</g>
</svg>
