<?xml version="1.0" encoding="utf-8"?>
<!-- Generator: Adobe Illustrator 15.0.0, SVG Export Plug-In . SVG Version: 6.00 Build 0)  -->
<!DOCTYPE svg PUBLIC "-//W3C//DTD SVG 1.1//EN" "http://www.w3.org/Graphics/SVG/1.1/DTD/svg11.dtd">
<svg version="1.1" id="Layer_1" xmlns="http://www.w3.org/2000/svg" xmlns:xlink="http://www.w3.org/1999/xlink" x="0px" y="0px"
	 width="800px" height="600px" viewBox="0 0 800 600" enable-background="new 0 0 800 600" xml:space="preserve">
<g>
	<g>
		<g>
			<g>
				<path fill="#B6A691" d="M400.591,300.59l-12.023-171.947c3.988-0.279,8.025-0.419,12.023-0.419V300.59z"/>
			</g>
		</g>
		<g>
			<g>
				<path fill="#8B8099" d="M400.591,300.59L264.764,194.471c31.004-39.683,73.567-62.314,123.803-65.828L400.591,300.59z"/>
			</g>
		</g>
		<g>
			<g>
				<path fill="#A1624F" d="M400.591,300.59l-164.835,50.396c-16.922-55.351-6.625-110.906,29.008-156.515L400.591,300.59z"/>
			</g>
		</g>
		<g>
			<g>
				<path fill="#8CA595" d="M400.591,300.59l132.04,110.795c-61.19,72.924-169.911,82.436-242.835,21.245
					c-26.69-22.396-43.853-48.326-54.04-81.645L400.591,300.59z"/>
			</g>
		</g>
		<g>
			<g>
				<path fill="#E3AF24" d="M400.591,300.59V128.224c95.195,0,172.366,77.171,172.366,172.366
					c0,43.123-12.606,77.761-40.326,110.795L400.591,300.59z"/>
			</g>
		</g>
	</g>
	<g>
		<g>
		</g>
		<g>
		</g>
		<g>
		</g>
		<g>
		</g>
		<g>
		</g>
	</g>
</g>
<circle fill="#C8DDD6" cx="400" cy="300" r="71"/>
</svg>
