<?xml version="1.0" encoding="utf-8"?>
<!-- Generator: Adobe Illustrator 15.0.0, SVG Export Plug-In . SVG Version: 6.00 Build 0)  -->
<!DOCTYPE svg PUBLIC "-//W3C//DTD SVG 1.1//EN" "http://www.w3.org/Graphics/SVG/1.1/DTD/svg11.dtd">
<svg version="1.1" id="Layer_1" xmlns="http://www.w3.org/2000/svg" xmlns:xlink="http://www.w3.org/1999/xlink" x="0px" y="0px"
	 width="800px" height="600px" viewBox="0 0 800 600" enable-background="new 0 0 800 600" xml:space="preserve">
<g>
	<defs>
		<rect id="SVGID_1_" x="265.178" y="224.912" width="108.975" height="152.173"/>
	</defs>
	<clipPath id="SVGID_2_">
		<use xlink:href="#SVGID_1_"  overflow="visible"/>
	</clipPath>
	<path clip-path="url(#SVGID_2_)" fill="#718489" d="M330.601,305.723c-2.142,2.827-6.233,4.738-10.936,4.738
		c-4.702,0-8.793-1.911-10.933-4.738c0.313,4.257,5.08,7.641,10.933,7.641C325.521,313.363,330.287,309.979,330.601,305.723"/>
	<path clip-path="url(#SVGID_2_)" fill="#718489" d="M312.27,286.188c0-2.319-1.883-4.199-4.203-4.199
		c-2.317,0-4.197,1.88-4.197,4.199s1.88,4.198,4.197,4.198C310.387,290.386,312.27,288.506,312.27,286.188"/>
	<path clip-path="url(#SVGID_2_)" fill="#718489" d="M331.265,290.385c2.319,0,4.199-1.878,4.199-4.198
		c0-2.319-1.88-4.199-4.199-4.199c-2.319,0-4.199,1.88-4.199,4.199C327.066,288.507,328.946,290.385,331.265,290.385"/>
	<path clip-path="url(#SVGID_2_)" fill="#718489" d="M344.998,323.022h-8.807v-6.806c1.795-1.333,3.439-2.854,4.864-4.573
		c0.586-0.111,1.434-0.289,2.433-0.533c-0.942,2.013-4.358,9.954,0.511,9.705c4.97-0.255,1.282-8.216,0.42-9.943
		c3.054-0.812,7.1-2.199,9.866-4.352c4.978-3.872,8.297-10.788,7.469-12.726c-0.83-1.935-1.383-6.086,1.658-8.299
		s4.426-6.914,2.768-8.299c-1.659-1.383-3.874-2.489-2.768-5.809c2.766-5.809-2.488-11.342-3.596-14.938
		c-1.105-3.596,1.66-7.747,1.383-9.96c-0.275-2.213-5.254-6.084-6.362-8.575c-1.107-2.49-5.533-7.193-7.469-6.639
		c-1.937,0.553-7.746,0.553-10.428-0.659s-4.233-3.767-6.723-3.214c-2.49,0.555-4.702,2.491-9.96,0
		c-5.257-2.49-8.852,4.151-10.564,5.331c-1.711,1.183-14.609-1.18-16.545,2.416c-1.935,3.596-4.98,5.256-9.683,4.978
		c-4.704-0.277-6.917,3.044-4.149,8.852c2.767,5.809,0.83,8.577-1.66,10.236c-2.491,1.66-7.192,1.66-3.044,7.193
		c4.149,5.532,2.215,6.639,0.553,9.129c-1.66,2.489-6.637,6.639-2.211,11.343c4.426,4.701,5.809,6.084,5.256,10.788
		c-0.554,4.704,1.66,6.086,5.255,7.191c3.595,1.106,4.426,0,8.299,4.981c1.015,1.305,2.068,2.049,3.069,2.452
		c-1.102,2.436-3.957,9.588,0.673,9.353c4.32-0.222,2.096-6.266,0.874-8.979c0.996,0.089,1.876-0.1,2.527-0.331
		c1.271,1.435,2.691,2.732,4.232,3.88v6.808h-8.801c-16.105,0-29.157,13.055-29.157,29.155l-0.003,14.875
		c0.003,5.541,4.496,10.033,10.04,10.033h88.897c5.546,0,10.038-4.492,10.038-10.033v-14.875
		C374.152,336.077,361.1,323.022,344.998,323.022 M294.762,293.935v-14.874c0-0.042,0.007-0.082,0.007-0.124
		c17.746-7.844,23.409-20.154,24.896-24.515c1.486,4.361,7.147,16.67,24.895,24.515c0,0.042,0.006,0.082,0.006,0.124v14.874
		c-0.022,13.751-11.145,24.878-24.903,24.901C305.909,318.812,294.785,307.686,294.762,293.935 M319.667,338.114
		c-6.261-0.014-11.574-3.944-13.658-9.469v-10.549c4.033,2.286,8.686,3.605,13.654,3.608c4.971,0,9.625-1.32,13.659-3.607v10.551
		C331.234,334.17,325.921,338.101,319.667,338.114"/>
</g>
<path fill="#B57B6B" d="M385.558,281.122c0,0-2.303,14.727-19.655,15.03c0.024,1.334,17.492,7.705,30.676-1.871
	C409.763,284.705,385.558,281.122,385.558,281.122"/>
<path fill="#B57B6B" d="M454.839,319.734c42.413,0,76.795-19.348,76.795-43.214c0-23.867-34.382-43.214-76.795-43.214
	s-76.795,19.347-76.795,43.214C378.044,300.386,412.426,319.734,454.839,319.734"/>
<text transform="matrix(1 0 0 1 384.4375 282.8335)"><tspan x="0" y="0" fill="#FFFFFF" font-family="'Georgia'" font-size="23.4888"> </tspan><tspan x="4.961" y="0" fill="#FFFFFF" font-family="'Georgia'" font-size="23.4888">$3</tspan><tspan x="30.884" y="0" fill="#FFFFFF" font-family="'Georgia'" font-size="23.4888">5</tspan><tspan x="42.589" y="0" fill="#FFFFFF" font-family="'Georgia'" font-size="23.4888">4</tspan><tspan x="55.178" y="0" fill="#FFFFFF" font-family="'Georgia'" font-size="23.4888">, </tspan><tspan x="65.765" y="0" fill="#FFFFFF" font-family="'Georgia'" font-size="23.4888">420.0</tspan><tspan x="123.914" y="0" fill="#FFFFFF" font-family="'Georgia'" font-size="23.4888">0</tspan></text>
</svg>
