<?xml version="1.0" encoding="utf-8"?>
<!-- Generator: Adobe Illustrator 15.0.0, SVG Export Plug-In . SVG Version: 6.00 Build 0)  -->
<!DOCTYPE svg PUBLIC "-//W3C//DTD SVG 1.1//EN" "http://www.w3.org/Graphics/SVG/1.1/DTD/svg11.dtd">
<svg version="1.1" id="Layer_1" xmlns="http://www.w3.org/2000/svg" xmlns:xlink="http://www.w3.org/1999/xlink" x="0px" y="0px"
	 width="800px" height="600px" viewBox="0 0 800 600" enable-background="new 0 0 800 600" xml:space="preserve">
<g>
	<defs>
		<rect id="SVGID_1_" x="428.116" y="419.6" width="70.481" height="15.683"/>
	</defs>
	<clipPath id="SVGID_2_">
		<use xlink:href="#SVGID_1_"  overflow="visible"/>
	</clipPath>
	<path clip-path="url(#SVGID_2_)" fill="#B6A691" d="M497.85,423.541c-1.619-0.84-3.426-1.252-3.516-1.319
		c-1.536-1.202-2.58-1.21-2.702-1.212c-1.649-0.035-9.021,0.925-9.021,0.925s-0.317-0.345-0.368-0.34
		c-0.051,0.006-0.189-0.008-0.153,0.049c0.04,0.057,0.134,0.335,0.016,0.352c-8.449,1.185-12.769,2.64-12.856,2.65
		c-5.317,0.604-6.059,0.88-6.261,0.826c-0.328-0.083-7.479-1.894-7.593-1.909c-0.112-0.018-0.741,0.052-0.812-0.006
		c-0.13-0.11-3.093-1.444-3.239-1.432c-0.084,0.009-1.355,0.038-1.229,0.144c0.585,0.481,1.585,1.844,1.891,1.8
		c0.307-0.045,1.729,0.623,1.729,0.623l0.483,0.045c0,0-0.453,0.125-0.211,0.139c0.243,0.012,3,1.366,2.983,1.366
		c-0.122,0.008-8.842,1.137-8.842,1.137s-0.089-0.248-0.228-0.235c-0.138,0.014-0.115,0.271-0.115,0.271s-0.463,0.032-0.771,0.068
		c-0.648,0.075-2.666-0.146-3.054-0.422c-0.284-0.203-11.55-7.105-11.841-7.304c-0.232-0.155-2.75,0.225-4.025,0.405
		c1.021,1.611,4.923,8.414,4.923,8.414c-1.196-0.066-2.663,0.122-2.782,0.132c-0.232,0.021,0.012,0.155,0.012,0.155
		s1.6,0.94,1.543,0.969c-0.139,0.074-0.17,0.52-0.17,0.52l-0.114,0.01l0.057,0.664l0.138-0.015c0.058,0.399,0.74,0.755,1.244,0.783
		c0.147,0.006,2.502,0.182,3.063,0.218c0.347,0.022,7.985,0.599,7.985,0.599l-0.084,0.193c0.278,0.066,0.39-0.152,0.39-0.152
		c0.424,0.005,5.687,0.427,7.305,0.503c1.442,0.064,4.552-0.176,4.552-0.176l-0.022,0.218c0.196-0.018,0.334-0.247,0.334-0.247
		l2.235-0.241l0.019,0.397c0.108-0.02,0.333-0.429,0.333-0.429c0.066-0.013,0.469-0.041,0.469-0.041l0.034,0.369
		c0,0,0.286-0.051,0.414-0.002c0.122,0.049,2.263,0.251,2.263,0.251v0.119l-0.16,0.103l2.424-0.181l0.041,0.176l0.16-0.03
		l0.005,0.164c-0.511,0.552-0.544,0.668-0.522,0.812c0.06,0.375,0.224,0.464,0.418,0.53c0.15,0.057,0.22,0.046,0.355,0.02
		c0.312-0.052,0.608-0.525,0.608-0.525s0.144-0.081,0.173-0.016c0.073,0.165,0.197,0.158,0.353,0.183
		c0.105,0.019,0.227,0.003,0.347-0.055c0.131-0.062,0.783-0.698,0.755-1.021c-0.044-0.516-0.523-0.507-0.53-0.566
		c-0.018-0.18,0.599-0.63,0.599-0.63v-0.388l0.427-0.057l0.059,0.667c-0.165,0.023-0.358,0.929-0.349,1.049
		c0.011,0.118,0.038,0.608,0.038,0.608c-0.091,0.043-0.279,0.188-0.252,0.472c0.053,0.596,0.499,0.591,0.629,0.58
		c0.386-0.024,0.674-0.448,0.655-0.679c-0.012-0.128-0.042-0.311,0.018-0.275c0.147,0.08,0.261,0.038,0.424,0.022
		c0.225-0.021,0.556-0.456,0.538-0.66c-0.008-0.087-0.017-0.26-0.072-0.339c-0.142-0.194,0.049-0.246,0.236-0.264
		c0.331-0.03,0.496-0.516,0.584-0.498s1.465,0,1.465,0l0.04,0.246l-0.195,0.036l0.02,0.135c0,0,1.711-0.165,1.866-0.18
		c2.138-0.217,2.154-0.493,2.154-0.493l-0.021-1.453c0.245-0.023,4.163-0.764,4.163-0.764l-0.035,0.373
		c0.309-0.026,0.375-0.458,0.434-0.469c0.873-0.172,5.33-0.746,5.579-0.768c1.78-0.157,5.764-1.102,5.764-1.102l0.076,0.536
		l-0.346,0.394l0.023,0.169l0.429-0.019c0,0,0.193,0.62,0.126,0.635c-0.068,0.015-0.604,0.198-0.556,0.756
		c0.043,0.47,0.613,0.496,0.698,0.49c0.479-0.043,0.697-0.518,0.681-0.714c-0.022-0.258-0.263-0.343-0.232-0.456
		c0.086-0.309-0.245-0.929-0.245-0.929l0.121-0.086l-0.046-0.42l0.481-0.232l-0.061-0.452c3.767-1.201,5.03-2.299,5.308-2.535
		c0.472-0.404,0.694-0.63,0.662-0.99C498.534,423.903,497.984,423.613,497.85,423.541"/>
</g>
<g>
	<defs>
		<rect id="SVGID_3_" x="443.369" y="293.431" width="46.244" height="38.689"/>
	</defs>
	<clipPath id="SVGID_4_">
		<use xlink:href="#SVGID_3_"  overflow="visible"/>
	</clipPath>
	<path clip-path="url(#SVGID_4_)" fill="#A1624F" d="M475.572,321.206c2.003-1.114,1.743-5.402-0.577-9.584
		c-0.997-1.802-2.217-3.261-3.441-4.28c-1.427,1.046-3.167,1.682-5.062,1.682c-1.899,0-3.639-0.638-5.064-1.682
		c-1.223,1.02-2.443,2.479-3.443,4.28c-2.32,4.182-2.576,8.47-0.571,9.584c0.895,0.508,1.838,0.128,2.811-0.81
		c-0.171,0.948-0.271,1.979-0.271,3.056c0,4.794,1.859,8.668,4.148,8.668c1.381,0,2.064-1.412,2.393-3.57
		c0.327,2.144,1.012,3.57,2.384,3.57c2.278,0,4.153-3.875,4.153-8.668c0-1.077-0.102-2.107-0.274-3.056
		C473.732,321.334,474.675,321.722,475.572,321.206 M466.491,307.393c3.852,0,6.979-3.125,6.979-6.981s-3.127-6.98-6.979-6.98
		c-3.855,0-6.983,3.126-6.983,6.982C459.508,304.268,462.636,307.393,466.491,307.393 M480.513,311.818
		c3.162,0,5.731-2.565,5.731-5.73c0-3.164-2.567-5.733-5.731-5.733c-3.165,0-5.731,2.567-5.731,5.733
		C474.781,309.253,477.346,311.818,480.513,311.818 M487.497,315.293c-0.82-1.48-1.821-2.678-2.827-3.516
		c-1.17,0.858-2.601,1.381-4.153,1.381c-1.233,0-2.381-0.338-3.388-0.896c0.809,1.783,1.311,3.59,1.405,5.204
		c0.151,2.474-0.622,4.31-2.168,5.164c-0.333,0.19-0.695,0.299-1.066,0.365c-0.091,0.641-0.155,1.307-0.155,2.009
		c0,3.936,1.526,7.116,3.408,7.116c1.131,0,1.694-1.159,1.964-2.931c0.266,1.76,0.828,2.931,1.956,2.931
		c1.87,0,3.411-3.183,3.411-7.116c0-0.884-0.086-1.73-0.229-2.51c0.804,0.77,1.576,1.089,2.314,0.664
		C489.613,322.247,489.399,318.725,487.497,315.293 M452.468,311.818c3.165,0,5.731-2.565,5.731-5.73
		c0-3.164-2.566-5.733-5.731-5.733c-3.164,0-5.733,2.567-5.733,5.733C446.734,309.253,449.304,311.818,452.468,311.818
		 M456.605,322.624c-2.6-1.444-2.838-5.751-0.746-10.368c-1.011,0.564-2.158,0.902-3.392,0.902c-1.56,0-2.987-0.524-4.157-1.381
		c-1.006,0.838-2.006,2.035-2.828,3.516c-1.904,3.434-2.113,6.954-0.468,7.865c0.735,0.42,1.509,0.104,2.306-0.664
		c-0.14,0.783-0.222,1.626-0.222,2.51c0,3.936,1.526,7.116,3.407,7.116c1.133,0,1.695-1.159,1.965-2.931
		c0.27,1.76,0.83,2.931,1.959,2.931c1.87,0,3.409-3.183,3.409-7.116c0-0.704-0.065-1.372-0.159-2.012
		C457.312,322.925,456.947,322.82,456.605,322.624"/>
</g>
<g>
	<defs>
		<rect id="SVGID_5_" x="443.369" y="349.712" width="46.244" height="49.905"/>
	</defs>
	<clipPath id="SVGID_6_">
		<use xlink:href="#SVGID_5_"  overflow="visible"/>
	</clipPath>
	<path clip-path="url(#SVGID_6_)" fill="#98B3CD" d="M489.448,385.077c-0.243-0.362-0.591-0.639-0.959-0.865
		c-2.039-6.282-3.962-12.605-5.928-18.913c-0.32-0.865-0.228-1.824,0.083-2.679c1.039-0.202,2.693-0.577,2.594-1.928
		c-0.332-0.444-0.823-0.677-1.368-0.739c-0.54,0.303-1.006,0.734-1.574,0.982c-0.043-0.082-0.128-0.248-0.169-0.328
		c-0.172,0.173-0.368,0.391-0.632,0.242c-1.921-0.614-3.747-1.506-5.667-2.125c-2.654-0.994-5.431-1.717-8.229-2.109
		c0.226-0.825-0.438-1.471-0.585-2.234c0.056-0.562-0.003-1.117,0.161-1.662c-0.138-0.06-0.271-0.119-0.404-0.179
		c0.039-0.829,0.31-1.625,0.424-2.444c-0.062-0.117-0.164-0.211-0.248-0.313c-0.868-0.069-1.738-0.058-2.604,0.021
		c-0.042,0.073-0.124,0.219-0.166,0.291c0.147,0.776,0.364,1.543,0.412,2.336c-0.649,0.244-0.177,0.867-0.297,1.354
		c0.216,0.796-0.326,1.479-0.58,2.19c0.204,0.281,0.062,0.56-0.159,0.774c-0.416,0.015-0.841,0.066-1.246-0.06
		c-2.222,0.753-4.489,1.414-6.589,2.476c-1.574,0.703-3.112,1.492-4.629,2.31c-0.979,0.437-1.846-0.84-2.818-0.289
		c-0.839,0.256-0.896,1.271-0.697,1.979c0.365,0.599,1.074,0.851,1.713,1.04c-1.951,6.352-3.957,12.687-5.916,19.034
		c0.106,1.215,1.269,1.903,2.18,2.532c1.619,0.695,3.427,0.65,5.158,0.635c1.924-0.22,3.963-0.418,5.638-1.483
		c0.629-0.667,1.621-1.308,1.483-2.355c-2.289-5.994-4.584-11.99-6.877-17.986c-0.174-0.348,0.022-0.717,0.07-1.069
		c2.544-0.639,4.88-1.947,7.469-2.437c0.826-0.2,1.666-0.38,2.516-0.456c1.011,0.029,2.002-0.328,3.015-0.182
		c0.096,0.541,0.441,0.982,0.62,1.49c0.031,0.977,0.014,1.955-0.101,2.926c-0.126,3.771-0.05,7.552-0.082,11.327
		c-0.077,0.58-0.12,1.173,0.008,1.754c-0.13,0.094-0.258,0.19-0.386,0.287c-0.001,0.153-0.001,0.308-0.001,0.463
		c0.139,0.095,0.276,0.188,0.419,0.28c-0.936,1.774,0.185,3.78-0.073,5.645c-0.414,0.97-0.53,2.287,0.348,3.041
		c-0.241,1.115-0.949,2.188-0.828,3.392c-2.38,0.433-4.913,0.764-6.938,2.201c-0.723,0.31-1.448,0.979-1.303,1.844
		c-0.168,1.362,1.039,2.254,2.06,2.885c2.432,1.251,5.214,1.572,7.907,1.645c2.676-0.119,5.443-0.438,7.854-1.71
		c1.175-0.582,2.422-1.73,2.095-3.178c-0.417-1.149-1.543-1.812-2.564-2.358c-1.745-0.783-3.677-1.024-5.524-1.328
		c0.144-0.992-0.346-1.89-0.641-2.805c-0.457-0.784,0.657-1.331,0.521-2.134c0.174-0.829-0.729-1.468-0.431-2.278
		c0.146-0.952,0.285-1.904,0.326-2.865c0.221-0.612-0.028-1.261-0.283-1.823c-0.067-0.302,0.28-0.47,0.431-0.681
		c-0.132-0.225-0.305-0.418-0.47-0.618c-0.102-1.709,0.158-3.436-0.137-5.127c0.029-3.391,0.137-6.79-0.086-10.174
		c-0.049-0.806,0.428-1.523,0.758-2.225c0.463-0.08,0.933-0.01,1.397,0.027c2.821-0.158,5.588,0.607,8.294,1.323
		c1.432,0.526,2.925,0.854,4.433,1.047c0.197,1.138-0.64,2.117-1.035,3.132c-2.116,5.835-4.219,11.676-6.325,17.512
		c-0.161,0.232-0.379,0.42-0.57,0.625c-0.274,1.688,1.444,2.692,2.609,3.554c2.631,1.067,5.543,1.17,8.343,1.035
		c1.709-0.118,3.29-0.997,4.436-2.247C489.337,385.973,489.612,385.511,489.448,385.077 M451.797,369.162
		c1.599,4.168,3.186,8.344,4.787,12.51c0.037,0.117,0.053,0.241,0.072,0.362c-0.709-0.252-1.502-0.267-2.256-0.305
		c-0.385-2.482-1.166-4.899-1.586-7.377c-0.312-0.648-0.171-1.397-0.49-2.042c-0.318-1.038-0.455-2.123-0.754-3.167
		C451.627,369.147,451.74,369.157,451.797,369.162 M453.049,379.346c0.146,0.733,0.404,1.45,0.421,2.205
		c-1.79-0.017-3.57,0.178-5.347,0.343c-1.201,0.198-2.446,0.348-3.537,0.924c-0.041-0.033-0.125-0.097-0.17-0.129
		c1.774-5.673,3.528-11.356,5.356-17.013c0.033,0.039,0.103,0.117,0.138,0.155C450.947,370.338,452.008,374.838,453.049,379.346
		 M481.469,378.214c-0.226,1.569-0.134,3.148-0.104,4.725c-1.674-0.259-3.354,0.006-5.031,0.055
		c-0.345,0.018-0.799,0.412-1.065,0.16c1.938-5.498,3.965-10.968,5.922-16.462c0.109-0.312,0.307-0.583,0.419-0.893
		C481.504,369.94,481.461,374.07,481.469,378.214 M482.199,382.954c-0.132-3.784,0.269-7.562,0.078-11.349
		c0.199-1.146,0.037-2.285,0.076-3.44l0.208,0.068c1.488,4.743,2.98,9.487,4.465,14.232c0.144,0.404,0.279,0.817,0.294,1.253
		C485.63,383.365,483.927,383.062,482.199,382.954"/>
</g>
</svg>
