<?xml version="1.0" encoding="utf-8"?>
<!-- Generator: Adobe Illustrator 15.0.0, SVG Export Plug-In . SVG Version: 6.00 Build 0)  -->
<!DOCTYPE svg PUBLIC "-//W3C//DTD SVG 1.1//EN" "http://www.w3.org/Graphics/SVG/1.1/DTD/svg11.dtd">
<svg version="1.1" id="Layer_1" xmlns="http://www.w3.org/2000/svg" xmlns:xlink="http://www.w3.org/1999/xlink" x="0px" y="0px"
	 width="1000px" height="1000px" viewBox="0 0 1000 1000" enable-background="new 0 0 1000 1000" xml:space="preserve">
<text transform="matrix(0.0404 0.9992 -0.9992 0.0404 470.2271 207.1299)"><tspan x="0" y="0" fill="#B5624D" font-family="'HelveticaNeueLT-MediumCond'" font-size="10.4801">SOUTH</tspan><tspan x="27.572" y="0" fill="#B5624D" font-family="'HelveticaNeueLT-MediumCond'" font-size="10.4801"> </tspan><tspan x="29.71" y="0" fill="#B5624D" font-family="'HelveticaNeueLT-MediumCond'" font-size="10.4801">AFRICA</tspan></text>
<polygon fill="#B5624D" points="484.791,479.27 484.277,479.27 467.968,271.109 484.725,270.466 "/>
<text transform="matrix(0.9994 -0.0349 0.0349 0.9994 471.5688 280.083)" fill="#FFFFFF" font-family="'HelveticaNeueLT-MediumCond'" font-size="10.4801">72</text>
<text transform="matrix(0.1169 0.9931 -0.9931 0.1169 451.0308 251.4814)" fill="#B5624D" font-family="'HelveticaNeueLT-MediumCond'" font-size="10.4801">USA</text>
<polygon fill="#B5624D" points="472.62,359.876 463.192,360.567 449.136,273.292 465.793,271.366 "/>
<text transform="matrix(0.9938 -0.1115 0.1115 0.9938 453.4678 281.9414)" fill="#FFFFFF" font-family="'HelveticaNeueLT-MediumCond'" font-size="10.4801">37</text>
<text transform="matrix(0.1928 0.9812 -0.9812 0.1928 428.7764 245.4619)"><tspan x="0" y="0" fill="#B5624D" font-family="'HelveticaNeueLT-MediumCond'" font-size="10.4801">KEN</tspan><tspan x="16.495" y="0" fill="#B5624D" font-family="'HelveticaNeueLT-MediumCond'" font-size="10.4801">Y</tspan><tspan x="20.97" y="0" fill="#B5624D" font-family="'HelveticaNeueLT-MediumCond'" font-size="10.4801">A</tspan></text>
<polygon fill="#B5624D" points="455.074,328.657 443.301,331.274 430.019,277.053 446.479,273.855 "/>
<text transform="matrix(0.9823 -0.1874 0.1874 0.9823 434.9863 285.3716)" fill="#FFFFFF" font-family="'HelveticaNeueLT-MediumCond'" font-size="10.4801">14</text>
<text transform="matrix(0.2675 0.9636 -0.9636 0.2675 406.085 244.8271)" fill="#B5624D" font-family="'HelveticaNeueLT-MediumCond'" font-size="10.4801">NIGERIA</text>
<polygon fill="#B5624D" points="440.521,331.764 428.911,335.035 411.332,282.022 427.498,277.573 "/>
<text transform="matrix(0.965 -0.2622 0.2622 0.965 416.9443 289.9263)" fill="#FFFFFF" font-family="'HelveticaNeueLT-MediumCond'" font-size="10.4801">14</text>
<text transform="matrix(0.3406 0.9402 -0.9402 0.3406 392.4829 272.1289)" fill="#B5624D" font-family="'HelveticaNeueLT-MediumCond'" font-size="10.4801">UK</text>
<polygon fill="#B5624D" points="426.131,335.852 414.683,340.267 393.257,288.632 409.035,282.954 "/>
<text transform="matrix(0.9421 -0.3354 0.3354 0.9421 399.4287 296.0947)" fill="#FFFFFF" font-family="'HelveticaNeueLT-MediumCond'" font-size="10.4801">14</text>
<text transform="matrix(0.4165 0.9091 -0.9091 0.4165 363.834 259.5381)" fill="#B5624D" font-family="'HelveticaNeueLT-MediumCond'" font-size="10.4801">UGANDA</text>
<polygon fill="#B5624D" points="411.576,339.45 400.13,344.846 375.567,296.76 390.826,289.808 "/>
<text transform="matrix(0.9114 -0.4115 0.4115 0.9114 382.2539 303.668)" fill="#FFFFFF" font-family="'HelveticaNeueLT-MediumCond'" font-size="10.48">13</text>
<text transform="matrix(0.4881 0.8728 -0.8728 0.4881 344.186 270.2344)" fill="#B5624D" font-family="'HelveticaNeueLT-MediumCond'" font-size="10.4801">CANADA</text>
<polygon fill="#B5624D" points="392.642,336.042 381.289,342.33 358.733,306.124 373.385,297.97 "/>
<text transform="matrix(0.8755 -0.4833 0.4833 0.8755 368.2432 311.3081)" fill="#FFFFFF" font-family="'HelveticaNeueLT-MediumCond'" font-size="10.4801">8</text>
<text transform="matrix(0.558 0.8299 -0.8299 0.558 321.938 277.5635)"><tspan x="0" y="0" fill="#B5624D" font-family="'HelveticaNeueLT-MediumCond'" font-size="10.4801">P</tspan><tspan x="4.852" y="0" fill="#B5624D" font-family="'HelveticaNeueLT-MediumCond'" font-size="10.4801">AKIS</tspan><tspan x="23.496" y="0" fill="#B5624D" font-family="'HelveticaNeueLT-MediumCond'" font-size="10.4801">T</tspan><tspan x="27.773" y="0" fill="#B5624D" font-family="'HelveticaNeueLT-MediumCond'" font-size="10.4801">AN</tspan></text>
<polygon fill="#B5624D" points="378.669,344.077 368.014,351.238 342.725,316.96 356.661,307.635 "/>
<text transform="matrix(0.8329 -0.5534 0.5534 0.8329 352.5723 321.2881)" fill="#FFFFFF" font-family="'HelveticaNeueLT-MediumCond'" font-size="10.4801">8</text>
<text transform="matrix(0.6254 0.7803 -0.7803 0.6254 309.7559 298.5273)" fill="#B5624D" font-family="'HelveticaNeueLT-MediumCond'" font-size="10.4801">RUSSIA</text>
<polygon fill="#B5624D" points="362.531,348.979 352.078,357.24 327.397,328.84 340.504,318.38 "/>
<text transform="matrix(0.7837 -0.6212 0.6212 0.7837 337.5859 332.2759)" fill="#FFFFFF" font-family="'HelveticaNeueLT-MediumCond'" font-size="10.48">6</text>
<text transform="matrix(0.6873 0.7264 -0.7264 0.6873 281.4639 300.5527)" fill="#B5624D" font-family="'HelveticaNeueLT-MediumCond'" font-size="10.4801">CAMEROON</text>
<polygon fill="#B5624D" points="348.027,356.779 337.907,366.201 313.249,341.912 325.456,330.413 "/>
<text transform="matrix(0.7302 -0.6833 0.6833 0.7302 323.6494 344.5596)" fill="#FFFFFF" font-family="'HelveticaNeueLT-MediumCond'" font-size="10.48">5</text>
<text transform="matrix(0.7433 0.6689 -0.6689 0.7433 283.478 333.9082)" fill="#B5624D" font-family="'HelveticaNeueLT-MediumCond'" font-size="10.48">INDIA</text>
<polygon fill="#B5624D" points="336.163,367.829 326.509,378.414 300.265,356.004 311.51,343.564 "/>
<text transform="matrix(0.673 -0.7396 0.7396 0.673 310.8613 357.7822)" fill="#FFFFFF" font-family="'HelveticaNeueLT-MediumCond'" font-size="10.4801">5</text>
<text transform="matrix(0.7914 0.6113 -0.6113 0.7914 251.7441 336.582)" fill="#B5624D" font-family="'HelveticaNeueLT-MediumCond'" font-size="10.4801">AUSTRALIA</text>
<polygon fill="#B5624D" points="321.686,377.936 312.946,389.152 288.044,371.021 298.325,357.772 "/>
<text transform="matrix(0.6157 -0.788 0.788 0.6157 298.7588 372.0024)" fill="#FFFFFF" font-family="'HelveticaNeueLT-MediumCond'" font-size="10.4801">4</text>
<text transform="matrix(0.835 0.5503 -0.5503 0.835 242.0981 357.8877)" fill="#B5624D" font-family="'HelveticaNeueLT-MediumCond'" font-size="10.4802">GERMANY</text>
<polygon fill="#B5624D" points="311.198,391.191 303.477,403.136 277.104,387.054 286.363,373.073 "/>
<text transform="matrix(0.5549 -0.8319 0.8319 0.5549 287.8936 387.3135)" fill="#FFFFFF" font-family="'HelveticaNeueLT-MediumCond'" font-size="10.4801">4</text>
<text transform="matrix(0.8739 0.4861 -0.4861 0.8739 240.7817 383.2363)" fill="#B5624D" font-family="'HelveticaNeueLT-MediumCond'" font-size="10.48">GHANA</text>
<polygon fill="#B5624D" points="302.021,405.176 295.173,417.704 267.498,403.88 275.681,389.243 "/>
<text transform="matrix(0.4909 -0.8712 0.8712 0.4909 278.1924 403.2515)" fill="#FFFFFF" font-family="'HelveticaNeueLT-MediumCond'" font-size="10.4801">4</text>
<text transform="matrix(0.9079 0.4192 -0.4192 0.9079 222.2676 398.459)" fill="#B5624D" font-family="'HelveticaNeueLT-MediumCond'" font-size="10.48">ROMANIA</text>
<polygon fill="#B5624D" points="294.008,420.18 287.891,432.998 259.353,421.252 266.417,406.043 "/>
<text transform="matrix(0.4242 -0.9056 0.9056 0.4242 270.0498 419.8125)" fill="#FFFFFF" font-family="'HelveticaNeueLT-MediumCond'" font-size="10.48">4</text>
<text transform="matrix(0.9368 0.35 -0.35 0.9368 219.2461 421.4922)" fill="#B5624D" font-family="'HelveticaNeueLT-MediumCond'" font-size="10.48">FRANCE</text>
<polygon fill="#B5624D" points="281.915,433.661 276.849,447.036 252.468,439.361 258.374,423.666 "/>
<text transform="matrix(0.3551 -0.9348 0.9348 0.3551 263.0723 437.1191)" fill="#FFFFFF" font-family="'HelveticaNeueLT-MediumCond'" font-size="10.4801">3</text>
<text transform="matrix(0.9609 0.2771 -0.2771 0.9609 216.4795 443.5938)" fill="#B5624D" font-family="'HelveticaNeueLT-MediumCond'" font-size="10.4801">ISRAEL</text>
<polygon fill="#B5624D" points="276.038,449.669 271.984,463.655 247.215,457.783 251.897,441.68 "/>
<text transform="matrix(0.2823 -0.9593 0.9593 0.2823 257.5098 454.7686)" fill="#FFFFFF" font-family="'HelveticaNeueLT-MediumCond'" font-size="10.48">3</text>
<text transform="matrix(0.9796 0.2008 -0.2008 0.9796 200.4326 462.958)"><tspan x="0" y="0" fill="#B5624D" font-family="'HelveticaNeueLT-MediumCond'" font-size="10.4801">T</tspan><tspan x="4.287" y="0" fill="#B5624D" font-family="'HelveticaNeueLT-MediumCond'" font-size="10.4801">ANZANIA</tspan></text>
<polygon fill="#B5624D" points="271.376,466.693 268.54,480.677 243.218,476.916 246.624,460.496 "/>
<text transform="matrix(0.2062 -0.9785 0.9785 0.2062 253.3457 473.1211)" fill="#FFFFFF" font-family="'HelveticaNeueLT-MediumCond'" font-size="10.4801">3</text>
<text transform="matrix(0.9932 0.1164 -0.1164 0.9932 192.5698 485.3184)" fill="#B5624D" font-family="'HelveticaNeueLT-MediumCond'" font-size="10.4801">ZIMBABWE</text>
<polygon fill="#B5624D" points="268.134,483.513 266.309,497.7 240.847,496.112 242.837,479.461 "/>
<text transform="matrix(0.1219 -0.9925 0.9925 0.1219 250.5898 491.4043)" fill="#FFFFFF" font-family="'HelveticaNeueLT-MediumCond'" font-size="10.4801">3</text>
<text transform="matrix(0.9995 0.0329 -0.0329 0.9995 180.3867 508.6436)" fill="#B5624D" font-family="'HelveticaNeueLT-MediumCond'" font-size="10.4801">BANGLADESH</text>
<polygon fill="#B5624D" points="260.138,500.254 259.487,515.944 240.045,515.726 240.634,498.965 "/>
<text transform="matrix(0.0384 -0.9993 0.9993 0.0384 249.3203 510.291)" fill="#FFFFFF" font-family="'HelveticaNeueLT-MediumCond'" font-size="10.48">2</text>
<text transform="matrix(0.9992 -0.0404 0.0404 0.9992 210.3955 531.0078)" fill="#B5624D" font-family="'HelveticaNeueLT-MediumCond'" font-size="10.48">CHINA</text>
<polygon fill="#B5624D" points="259.597,518.216 260.138,533.365 240.654,534.896 240.015,518.141 "/>
<text transform="matrix(0.0349 0.9994 -0.9994 0.0349 242.0669 523.9609)" fill="#FFFFFF" font-family="'HelveticaNeueLT-MediumCond'" font-size="10.4801">2</text>
<text transform="matrix(0.9931 -0.1169 0.1169 0.9931 194.7676 554.4355)" fill="#B5624D" font-family="'HelveticaNeueLT-MediumCond'" font-size="10.4801">COLOMBIA</text>
<polygon fill="#B5624D" points="260.354,535.745 262.085,551.002 242.725,553.927 240.801,537.269 "/>
<text transform="matrix(0.1115 0.9938 -0.9938 0.1115 243.2754 542.9014)" fill="#FFFFFF" font-family="'HelveticaNeueLT-MediumCond'" font-size="10.4801">2</text>
<text transform="matrix(0.9812 -0.1928 0.1928 0.9812 207.7021 575.2715)" fill="#B5624D" font-family="'HelveticaNeueLT-MediumCond'" font-size="10.4801">JORDAN</text>
<polygon fill="#B5624D" points="262.518,553.382 265.548,568.423 246.346,572.923 243.152,556.462 "/>
<text transform="matrix(0.1874 0.9823 -0.9823 0.1874 246.0215 561.8281)" fill="#FFFFFF" font-family="'HelveticaNeueLT-MediumCond'" font-size="10.4801">2</text>
<text transform="matrix(0.9636 -0.2675 0.2675 0.9636 211.3467 597.375)" fill="#B5624D" font-family="'HelveticaNeueLT-MediumCond'" font-size="10.4801">SWEDEN</text>
<polygon fill="#B5624D" points="266.089,570.911 270.308,585.735 251.376,591.581 246.928,575.41 "/>
<text transform="matrix(0.2622 0.965 -0.965 0.2622 250.2119 580.5146)" fill="#FFFFFF" font-family="'HelveticaNeueLT-MediumCond'" font-size="10.4801">2</text>
<text transform="matrix(0.9396 -0.3423 0.3423 0.9396 217.3271 619.0566)" fill="#B5624D" font-family="'HelveticaNeueLT-MediumCond'" font-size="10.4801">BELGIUM</text>
<polygon fill="#B5624D" points="262.685,590.592 268.121,605.57 257.946,609.665 252.243,593.893 "/>
<text transform="matrix(0.3371 0.9415 -0.9415 0.3371 255.8916 598.5859)" fill="#FFFFFF" font-family="'HelveticaNeueLT-MediumCond'" font-size="10.4801">1</text>
<text transform="matrix(0.9084 -0.4181 0.4181 0.9084 230.9619 637.917)" fill="#B5624D" font-family="'HelveticaNeueLT-MediumCond'" font-size="10.4801">BOLIVIA</text>
<polygon fill="#B5624D" points="269.132,608.074 275.777,622.558 265.971,627.472 258.996,612.222 "/>
<text transform="matrix(0.4131 0.9107 -0.9107 0.4131 262.9678 616.6162)" fill="#FFFFFF" font-family="'HelveticaNeueLT-MediumCond'" font-size="10.4801">1</text>
<text transform="matrix(0.8711 -0.4911 0.4911 0.8711 228.584 664.8965)"><tspan x="0" y="0" fill="#B5624D" font-family="'HelveticaNeueLT-MediumCond'" font-size="10.4801">B</tspan><tspan x="5.627" y="0" fill="#B5624D" font-family="'HelveticaNeueLT-MediumCond'" font-size="10.4801">O</tspan><tspan x="11.15" y="0" fill="#B5624D" font-family="'HelveticaNeueLT-MediumCond'" font-size="10.4801">TS</tspan><tspan x="21.442" y="-0.001" fill="#B5624D" font-family="'HelveticaNeueLT-MediumCond'" font-size="10.4801">W</tspan><tspan x="28.904" y="0" fill="#B5624D" font-family="'HelveticaNeueLT-MediumCond'" font-size="10.4801">ANA</tspan></text>
<polygon fill="#B5624D" points="276.877,624.802 284.687,638.691 275.316,644.392 267.115,629.765 "/>
<text transform="matrix(0.4863 0.8738 -0.8738 0.4863 271.4912 633.6787)" fill="#FFFFFF" font-family="'HelveticaNeueLT-MediumCond'" font-size="10.4801">1</text>
<text transform="matrix(0.8308 -0.5565 0.5565 0.8308 255.4277 675.1348)" fill="#B5624D" font-family="'HelveticaNeueLT-MediumCond'" font-size="10.4801">BRAZIL</text>
<polygon fill="#B5624D" points="286.136,640.99 294.987,654.242 286.083,660.643 276.783,646.689 "/>
<text transform="matrix(0.5519 0.8339 -0.8339 0.5519 281.4707 650.3398)" fill="#FFFFFF" font-family="'HelveticaNeueLT-MediumCond'" font-size="10.4801">1</text>
<text transform="matrix(0.7868 -0.6172 0.6172 0.7868 258.4463 700.2461)" fill="#B5624D" font-family="'HelveticaNeueLT-MediumCond'" font-size="10.48">DENMARK</text>
<polygon fill="#B5624D" points="296.332,656.276 306.152,668.826 297.751,675.878 287.432,662.658 "/>
<text transform="matrix(0.6129 0.7902 -0.7902 0.6129 292.3687 665.9102)" fill="#FFFFFF" font-family="'HelveticaNeueLT-MediumCond'" font-size="10.4801">1</text>
<text transform="matrix(0.7359 -0.6771 0.6771 0.7359 284.7949 707.3506)" fill="#B5624D" font-family="'HelveticaNeueLT-MediumCond'" font-size="10.4801">EGYPT</text>
<polygon fill="#B5624D" points="307.918,670.806 318.693,682.544 310.871,690.234 299.547,677.866 "/>
<text transform="matrix(0.673 0.7396 -0.7396 0.673 304.7202 680.5742)" fill="#FFFFFF" font-family="'HelveticaNeueLT-MediumCond'" font-size="10.4801">1</text>
<text transform="matrix(0.6818 -0.7315 0.7315 0.6818 292.8633 730.7422)" fill="#B5624D" font-family="'HelveticaNeueLT-MediumCond'" font-size="10.4801">ETHIOPIA</text>
<polygon fill="#B5624D" points="320.598,684.45 332.241,695.329 325.033,703.597 312.793,692.134 "/>
<text transform="matrix(0.7278 0.6858 -0.6858 0.7278 318.1333 694.4092)" fill="#FFFFFF" font-family="'HelveticaNeueLT-MediumCond'" font-size="10.4801">1</text>
<text transform="matrix(0.6223 -0.7828 0.7828 0.6223 311.2588 743.9492)" fill="#B5624D" font-family="'HelveticaNeueLT-MediumCond'" font-size="10.4802">FINLAND</text>
<polygon fill="#B5624D" points="334.212,697.021 346.674,706.954 340.137,715.759 327.035,705.294 "/>
<text transform="matrix(0.7793 0.6266 -0.6266 0.7793 332.541 707.1729)" fill="#FFFFFF" font-family="'HelveticaNeueLT-MediumCond'" font-size="10.4801">1</text>
<text transform="matrix(0.5546 -0.8321 0.8321 0.5546 338.4355 744.1348)" fill="#B5624D" font-family="'HelveticaNeueLT-MediumCond'" font-size="10.4801">IRAN</text>
<polygon fill="#B5624D" points="348.714,708.427 361.963,717.282 356.185,726.606 342.253,717.271 "/>
<text transform="matrix(0.829 0.5592 -0.5592 0.829 347.9668 718.5547)" fill="#FFFFFF" font-family="'HelveticaNeueLT-MediumCond'" font-size="10.4801">1</text>
<text transform="matrix(0.4876 -0.873 0.873 0.4876 348.4932 769.7363)" fill="#B5624D" font-family="'HelveticaNeueLT-MediumCond'" font-size="10.4801">JAMAICA</text>
<polygon fill="#B5624D" points="364.149,718.7 378.052,726.489 373.024,736.235 358.402,728.023 "/>
<text transform="matrix(0.8704 0.4924 -0.4924 0.8704 364.1396 728.9121)" fill="#FFFFFF" font-family="'HelveticaNeueLT-MediumCond'" font-size="10.4801">1</text>
<text transform="matrix(0.4208 -0.9071 0.9071 0.4208 372.7168 770.8066)"><tspan x="0" y="0" fill="#B5624D" font-family="'HelveticaNeueLT-MediumCond'" font-size="10.4801">JA</tspan><tspan x="10.092" y="0" fill="#B5624D" font-family="'HelveticaNeueLT-MediumCond'" font-size="10.4801">P</tspan><tspan x="14.955" y="0.001" fill="#B5624D" font-family="'HelveticaNeueLT-MediumCond'" font-size="10.4801">AN</tspan></text>
<polygon fill="#B5624D" points="380.356,727.658 394.804,734.382 390.52,744.479 375.323,737.387 "/>
<text transform="matrix(0.9048 0.4258 -0.4258 0.9048 381.1357 737.7334)" fill="#FFFFFF" font-family="'HelveticaNeueLT-MediumCond'" font-size="10.4801">1</text>
<text transform="matrix(0.3532 -0.9355 0.9355 0.3532 392.5166 779.6592)"><tspan x="0" y="0" fill="#B5624D" font-family="'HelveticaNeueLT-MediumCond'" font-size="10.48">L</tspan><tspan x="4.653" y="0.001" fill="#B5624D" font-family="'HelveticaNeueLT-MediumCond'" font-size="10.48">A</tspan><tspan x="9.526" y="0" fill="#B5624D" font-family="'HelveticaNeueLT-MediumCond'" font-size="10.48">TVIA</tspan></text>
<polygon fill="#B5624D" points="397.294,735.33 412.196,740.979 408.664,751.36 392.988,745.399 "/>
<text transform="matrix(0.9336 0.3584 -0.3584 0.9336 398.7686 745.2637)" fill="#FFFFFF" font-family="'HelveticaNeueLT-MediumCond'" font-size="10.4801">1</text>
<text transform="matrix(0.2704 -0.9628 0.9628 0.2704 410.5381 797.2764)" fill="#B5624D" font-family="'HelveticaNeueLT-MediumCond'" font-size="10.4801">LEBANON</text>
<polygon fill="#B5624D" points="414.493,741.699 429.831,746.028 427.215,756.679 411.081,752.106 "/>
<text transform="matrix(0.9613 0.2756 -0.2756 0.9613 417.3989 752.0049)" fill="#FFFFFF" font-family="'HelveticaNeueLT-MediumCond'" font-size="10.4801">1</text>
<text transform="matrix(0.1931 -0.9812 0.9812 0.1931 434.3135 794.9766)" fill="#B5624D" font-family="'HelveticaNeueLT-MediumCond'" font-size="10.48">LIBERIA</text>
<polygon fill="#B5624D" points="432.438,746.696 448.069,749.793 446.308,760.617 429.862,757.34 "/>
<text transform="matrix(0.9801 0.1985 -0.1985 0.9801 436.1787 756.7236)" fill="#FFFFFF" font-family="'HelveticaNeueLT-MediumCond'" font-size="10.4801">1</text>
<text transform="matrix(0.1147 -0.9934 0.9934 0.1147 456.1934 800.0762)"><tspan x="0" y="0" fill="#B5624D" font-family="'HelveticaNeueLT-MediumCond'" font-size="10.4801">MAL</tspan><tspan x="17.658" y="0" fill="#B5624D" font-family="'HelveticaNeueLT-MediumCond'" font-size="10.4801">A</tspan><tspan x="22.783" y="0" fill="#B5624D" font-family="'HelveticaNeueLT-MediumCond'" font-size="10.4801">WI</tspan></text>
<polygon fill="#B5624D" points="450.66,750.256 466.488,752.103 465.591,763.031 448.936,761.068 "/>
<text transform="matrix(0.9928 0.1201 -0.1201 0.9928 455.0947 760.0146)" fill="#FFFFFF" font-family="'HelveticaNeueLT-MediumCond'" font-size="10.4801">1</text>
<text transform="matrix(0.0346 -0.9994 0.9994 0.0346 477.9824 810.0273)" fill="#B5624D" font-family="'HelveticaNeueLT-MediumCond'" font-size="10.4801">MALDIVES</text>
<polygon fill="#B5624D" points="468.755,752.38 484.682,752.953 484.665,763.919 467.905,763.298 "/>
<text transform="matrix(0.9992 0.0401 -0.0401 0.9992 473.9712 761.7324)" fill="#FFFFFF" font-family="'HelveticaNeueLT-MediumCond'" font-size="10.4801">1</text>
<text transform="matrix(0.0421 0.9991 -0.9991 0.0421 492.0728 768.873)" fill="#B5624D" font-family="'HelveticaNeueLT-MediumCond'" font-size="10.48">MEXICO</text>
<polygon fill="#B5624D" points="487.416,753.013 503.337,752.361 504.162,763.297 487.404,763.964 "/>
<text transform="matrix(0.9993 -0.0366 0.0366 0.9993 493.207 761.9561)" fill="#FFFFFF" font-family="'HelveticaNeueLT-MediumCond'" font-size="10.4801">1</text>
<text transform="matrix(0.1187 0.9929 -0.9929 0.1187 511.7588 767.6826)" fill="#B5624D" font-family="'HelveticaNeueLT-MediumCond'" font-size="10.4801">MOZAMBIQUE</text>
<polygon fill="#B5624D" points="506.013,752.227 521.84,750.354 523.499,761.194 506.843,763.145 "/>
<text transform="matrix(0.9936 -0.1132 0.1132 0.9936 512.4014 760.6641)" fill="#FFFFFF" font-family="'HelveticaNeueLT-MediumCond'" font-size="10.4801">1</text>
<text transform="matrix(0.1876 0.9822 -0.9822 0.1876 531.5215 764.9541)"><tspan x="0" y="0" fill="#B5624D" font-family="'HelveticaNeueLT-MediumCond'" font-size="10.4801">NE</tspan><tspan x="11.057" y="0" fill="#B5624D" font-family="'HelveticaNeueLT-MediumCond'" font-size="10.4801">P</tspan><tspan x="15.919" y="0.001" fill="#B5624D" font-family="'HelveticaNeueLT-MediumCond'" font-size="10.4801">AL</tspan></text>
<polygon fill="#B5624D" points="524.627,749.935 540.283,746.964 542.696,757.661 526.219,760.769 "/>
<text transform="matrix(0.9833 -0.1822 0.1822 0.9833 531.584 757.9805)" fill="#FFFFFF" font-family="'HelveticaNeueLT-MediumCond'" font-size="10.4801">1</text>
<text transform="matrix(0.2641 0.9645 -0.9645 0.2641 550.8438 760.626)" fill="#B5624D" font-family="'HelveticaNeueLT-MediumCond'" font-size="10.4801">NETHERLANDS</text>
<polygon fill="#B5624D" points="542.766,746.174 558.141,741.984 561.386,752.46 545.201,756.851 "/>
<text transform="matrix(0.9659 -0.2588 0.2588 0.9659 550.3242 753.5898)" fill="#FFFFFF" font-family="'HelveticaNeueLT-MediumCond'" font-size="10.4801">1</text>
<text transform="matrix(0.3406 0.9402 -0.9402 0.3406 569.9248 754.877)"><tspan x="0" y="0" fill="#B5624D" font-family="'HelveticaNeueLT-MediumCond'" font-size="10.4801">P</tspan><tspan x="4.852" y="-0.001" fill="#B5624D" font-family="'HelveticaNeueLT-MediumCond'" font-size="10.4801">ALESTINE</tspan></text>
<polygon fill="#B5624D" points="560.706,741.133 575.697,735.723 579.768,745.906 563.989,751.58 "/>
<text transform="matrix(0.9421 -0.3354 0.3354 0.9421 568.75 747.9316)" fill="#FFFFFF" font-family="'HelveticaNeueLT-MediumCond'" font-size="10.4801">1</text>
<text transform="matrix(0.4165 0.9091 -0.9091 0.4165 588.4082 747.5723)" fill="#B5624D" font-family="'HelveticaNeueLT-MediumCond'" font-size="10.4801">PHILIPPINES</text>
<polygon fill="#B5624D" points="578.137,734.646 592.633,728.027 597.524,737.841 582.264,744.791 "/>
<text transform="matrix(0.9114 -0.4115 0.4115 0.9114 586.6699 740.8242)" fill="#FFFFFF" font-family="'HelveticaNeueLT-MediumCond'" font-size="10.4802">1</text>
<text transform="matrix(0.4866 0.8736 -0.8736 0.4866 606.0859 738.9736)" fill="#B5624D" font-family="'HelveticaNeueLT-MediumCond'" font-size="10.4801">POLAND</text>
<polygon fill="#B5624D" points="594.808,726.843 608.739,719.106 614.387,728.507 599.719,736.631 "/>
<text transform="matrix(0.8763 -0.4818 0.4818 0.8763 603.7217 732.3027)" fill="#FFFFFF" font-family="'HelveticaNeueLT-MediumCond'" font-size="10.4801">1</text>
<text transform="matrix(0.5551 0.8318 -0.8318 0.5551 623.0928 728.8213)"><tspan x="0" y="0" fill="#B5624D" font-family="'HelveticaNeueLT-MediumCond'" font-size="10.4801">R</tspan><tspan x="5.628" y="0" fill="#B5624D" font-family="'HelveticaNeueLT-MediumCond'" font-size="10.4801">W</tspan><tspan x="13.09" y="0" fill="#B5624D" font-family="'HelveticaNeueLT-MediumCond'" font-size="10.4801">ANDA</tspan></text>
<polygon fill="#B5624D" points="610.998,717.658 624.265,708.831 630.646,717.747 616.678,727.023 "/>
<text transform="matrix(0.8348 -0.5505 0.5505 0.8348 620.2832 722.3525)" fill="#FFFFFF" font-family="'HelveticaNeueLT-MediumCond'" font-size="10.4801">1</text>
<text transform="matrix(0.6213 0.7835 -0.7835 0.6213 639.5449 717.4404)" fill="#B5624D" font-family="'HelveticaNeueLT-MediumCond'" font-size="10.4802">SIERRA LEONE</text>
<polygon fill="#B5624D" points="626.479,707.261 638.979,697.374 646.069,705.737 632.91,716.128 "/>
<text transform="matrix(0.7869 -0.617 0.617 0.7869 636.1338 711.1621)" fill="#FFFFFF" font-family="'HelveticaNeueLT-MediumCond'" font-size="10.4801">1</text>
<text transform="matrix(0.6835 0.73 -0.73 0.6835 654.751 704.7861)"><tspan x="0" y="0" fill="#B5624D" font-family="'HelveticaNeueLT-MediumCond'" font-size="10.4801">SL</tspan><tspan x="10.092" y="0" fill="#B5624D" font-family="'HelveticaNeueLT-MediumCond'" font-size="10.4801">O</tspan><tspan x="15.742" y="0" fill="#B5624D" font-family="'HelveticaNeueLT-MediumCond'" font-size="10.4801">V</tspan><tspan x="20.405" y="0" fill="#B5624D" font-family="'HelveticaNeueLT-MediumCond'" font-size="10.4801">AKIA</tspan></text>
<polygon fill="#B5624D" points="640.894,695.761 652.541,684.882 660.295,692.638 648.029,704.07 "/>
<text transform="matrix(0.7337 -0.6794 0.6794 0.7337 650.6992 698.8721)" fill="#FFFFFF" font-family="'HelveticaNeueLT-MediumCond'" font-size="10.48">1</text>
<text transform="matrix(0.741 0.6715 -0.6715 0.741 668.9473 690.9219)" fill="#B5624D" font-family="'HelveticaNeueLT-MediumCond'" font-size="10.4801">SRI LANKA</text>
<polygon fill="#B5624D" points="654.507,683.059 665.225,671.262 673.586,678.355 662.299,690.755 "/>
<text transform="matrix(0.6756 -0.7373 0.7373 0.6756 664.5146 685.3203)" fill="#FFFFFF" font-family="'HelveticaNeueLT-MediumCond'" font-size="10.48">1</text>
<text transform="matrix(0.7914 0.6113 -0.6113 0.7914 682.1426 676.1602)"><tspan x="0" y="0" fill="#B5624D" font-family="'HelveticaNeueLT-MediumCond'" font-size="10.4801">S</tspan><tspan x="5.439" y="0" fill="#B5624D" font-family="'HelveticaNeueLT-MediumCond'" font-size="10.4801">P</tspan><tspan x="10.302" y="0" fill="#B5624D" font-family="'HelveticaNeueLT-MediumCond'" font-size="10.4801">AIN</tspan></text>
<polygon fill="#B5624D" points="667.046,669.44 676.805,656.84 685.697,663.257 675.416,676.504 "/>
<text transform="matrix(0.6157 -0.788 0.788 0.6157 677.1172 670.9336)" fill="#FFFFFF" font-family="'HelveticaNeueLT-MediumCond'" font-size="10.4801">1</text>
<text transform="matrix(0.8359 0.5488 -0.5488 0.8359 694.0879 660.292)"><tspan x="0" y="0" fill="#B5624D" font-family="'HelveticaNeueLT-MediumCond'" font-size="10.4801">S</tspan><tspan x="5.439" y="0" fill="#B5624D" font-family="'HelveticaNeueLT-MediumCond'" font-size="10.4801">W</tspan><tspan x="12.901" y="0" fill="#B5624D" font-family="'HelveticaNeueLT-MediumCond'" font-size="10.4801">AZILAND</tspan></text>
<polygon fill="#B5624D" points="678.468,654.772 687.229,641.459 696.59,647.174 687.354,661.17 "/>
<text transform="matrix(0.5534 -0.8329 0.8329 0.5534 689.166 654.8965)" fill="#FFFFFF" font-family="'HelveticaNeueLT-MediumCond'" font-size="10.4801">1</text>
<text transform="matrix(0.8756 0.4831 -0.4831 0.8756 704.7363 643.5645)" fill="#B5624D" font-family="'HelveticaNeueLT-MediumCond'" font-size="10.4801">THAILAND</text>
<polygon fill="#B5624D" points="688.747,639.257 696.461,625.312 706.233,630.291 698.1,644.956 "/>
<text transform="matrix(0.4879 -0.8729 0.8729 0.4879 699.4355 638.626)" fill="#FFFFFF" font-family="'HelveticaNeueLT-MediumCond'" font-size="10.4801">1</text>
<text transform="matrix(0.9108 0.4129 -0.4129 0.9108 713.9102 626.0381)"><tspan x="0" y="0" fill="#B5624D" font-family="'HelveticaNeueLT-MediumCond'" font-size="10.4802">T</tspan><tspan x="4.537" y="0" fill="#B5624D" font-family="'HelveticaNeueLT-MediumCond'" font-size="10.4802">OGO</tspan></text>
<polygon fill="#B5624D" points="697.706,622.949 704.303,608.442 714.435,612.641 707.477,627.897 "/>
<text transform="matrix(0.4179 -0.9085 0.9085 0.4179 708.3662 621.5186)" fill="#FFFFFF" font-family="'HelveticaNeueLT-MediumCond'" font-size="10.4801">1</text>
<text transform="matrix(0.9404 0.3401 -0.3401 0.9404 721.7754 607.708)"><tspan x="0" y="0" fill="#B5624D" font-family="'HelveticaNeueLT-MediumCond'" font-size="10.48">UZBEKIS</tspan><tspan x="34.353" y="0.001" fill="#B5624D" font-family="'HelveticaNeueLT-MediumCond'" font-size="10.48">T</tspan><tspan x="38.63" y="0" fill="#B5624D" font-family="'HelveticaNeueLT-MediumCond'" font-size="10.48">AN</tspan></text>
<polygon fill="#B5624D" points="705.372,606.021 710.809,591.042 721.24,594.432 715.5,610.188 "/>
<text transform="matrix(0.3453 -0.9385 0.9385 0.3453 715.8359 603.8398)" fill="#FFFFFF" font-family="'HelveticaNeueLT-MediumCond'" font-size="10.48">1</text>
<text transform="matrix(0.9637 0.267 -0.267 0.9637 728.0645 589.0098)" fill="#B5624D" font-family="'HelveticaNeueLT-MediumCond'" font-size="10.4802">ZAMBIA </text>
<polygon fill="#B5624D" points="711.582,588.474 715.855,573.124 726.515,575.7 721.999,591.852 "/>
<text transform="matrix(0.2723 -0.9622 0.9622 0.2723 721.8711 585.4824)" fill="#FFFFFF" font-family="'HelveticaNeueLT-MediumCond'" font-size="10.4801">1</text>
<text transform="matrix(0.9813 0.1923 -0.1923 0.9813 733.0117 569.7705)" fill="#4C606D" font-family="'HelveticaNeueLT-MediumCond'" font-size="10.4801">ENTREPRENEURSHIP</text>
<polygon fill="#4C606D" points="707.332,568.045 710.096,553.575 730.488,556.645 727.224,573.093 "/>
<text transform="matrix(0.1977 -0.9803 0.9803 0.1977 726.6104 566.8486)" fill="#FFFFFF" font-family="'HelveticaNeueLT-MediumCond'" font-size="10.4801">2</text>
<text transform="matrix(0.9934 0.1147 -0.1147 0.9934 736.4131 550.2734)"><tspan x="0" y="0" fill="#4C606D" font-family="'HelveticaNeueLT-MediumCond'" font-size="10.4801">F</tspan><tspan x="4.475" y="-0.001" fill="#4C606D" font-family="'HelveticaNeueLT-MediumCond'" font-size="10.4801">ASHION</tspan></text>
<polygon fill="#4C606D" points="710.583,550.648 712.046,535.854 732.855,537.412 730.894,554.066 "/>
<text transform="matrix(0.1201 -0.9928 0.9928 0.1201 729.8271 547.9102)" fill="#FFFFFF" font-family="'HelveticaNeueLT-MediumCond'" font-size="10.4801">2</text>
<text transform="matrix(0.9994 0.0346 -0.0346 0.9994 738.2832 530.7939)" fill="#4C606D" font-family="'HelveticaNeueLT-MediumCond'" font-size="10.4801">OER</text>
<polygon fill="#4C606D" points="712.371,533.252 713.022,518.457 733.682,518.252 733.062,535.009 "/>
<text transform="matrix(0.0401 -0.9992 0.9992 0.0401 731.4883 528.9453)" fill="#FFFFFF" font-family="'HelveticaNeueLT-MediumCond'" font-size="10.4801">2</text>
<text transform="matrix(0.999 -0.0439 0.0439 0.999 738.4609 511.0625)" fill="#4C606D" font-family="'HelveticaNeueLT-MediumCond'" font-size="10.4801">RELIGION</text>
<polygon fill="#4C606D" points="713.022,515.855 712.534,500.248 732.861,498.912 733.559,515.665 "/>
<text transform="matrix(0.0384 0.9993 -0.9993 0.0384 724.0039 505.1514)" fill="#FFFFFF" font-family="'HelveticaNeueLT-MediumCond'" font-size="10.4801">2</text>
<text transform="matrix(0.9925 -0.1221 0.1221 0.9925 737.2324 490.9819)" fill="#4C606D" font-family="'HelveticaNeueLT-MediumCond'" font-size="10.4801">CRIME</text>
<polygon fill="#4C606D" points="712.209,497.321 710.584,482.526 730.67,479.304 732.679,495.951 "/>
<text transform="matrix(0.1167 0.9932 -0.9932 0.1167 722.3613 486.127)" fill="#FFFFFF" font-family="'HelveticaNeueLT-MediumCond'" font-size="10.4801">2</text>
<text transform="matrix(0.9799 -0.1996 0.1996 0.9799 734.3223 471.4214)" fill="#4C606D" font-family="'HelveticaNeueLT-MediumCond'" font-size="10.4801">ECONOMICS</text>
<polygon fill="#4C606D" points="704.044,480.879 701.408,466.492 726.904,460.236 730.215,476.676 "/>
<text transform="matrix(0.1942 0.981 -0.981 0.1942 719.083 467.707)" fill="#FFFFFF" font-family="'HelveticaNeueLT-MediumCond'" font-size="10.4801">3</text>
<text transform="matrix(0.9602 -0.2792 0.2792 0.9602 730.1152 452.1172)" fill="#4C606D" font-family="'HelveticaNeueLT-MediumCond'" font-size="10.4801">HIV/AIDS</text>
<polygon fill="#4C606D" points="700.599,463.856 696.95,449.875 721.791,441.584 726.436,457.697 "/>
<text transform="matrix(0.274 0.9617 -0.9617 0.274 714.7002 449.6543)" fill="#FFFFFF" font-family="'HelveticaNeueLT-MediumCond'" font-size="10.4801">3</text>
<text transform="matrix(0.9347 -0.3553 0.3553 0.9347 724.1621 433.0923)" fill="#4C606D" font-family="'HelveticaNeueLT-MediumCond'" font-size="10.4801">SOCIAL MEDIA</text>
<polygon fill="#4C606D" points="695.937,447.036 690.871,433.66 715.045,423.286 720.969,438.975 "/>
<text transform="matrix(0.3502 0.9367 -0.9367 0.3502 708.6494 431.9082)" fill="#FFFFFF" font-family="'HelveticaNeueLT-MediumCond'" font-size="10.4801">3</text>
<text transform="matrix(0.9032 -0.4292 0.4292 0.9032 716.8252 414.7168)"><tspan x="0" y="0" fill="#4C606D" font-family="'HelveticaNeueLT-MediumCond'" font-size="10.4801">OPEN D</tspan><tspan x="30.466" y="0" fill="#4C606D" font-family="'HelveticaNeueLT-MediumCond'" font-size="10.4801">AT</tspan><tspan x="39.625" y="0" fill="#4C606D" font-family="'HelveticaNeueLT-MediumCond'" font-size="10.4801">A</tspan></text>
<polygon fill="#4C606D" points="684.696,432.999 678.869,420.181 706.967,405.68 714.128,420.842 "/>
<text transform="matrix(0.4242 0.9056 -0.9056 0.4242 701.2373 414.8018)" fill="#FFFFFF" font-family="'HelveticaNeueLT-MediumCond'" font-size="10.48">4</text>
<text transform="matrix(0.8659 -0.5002 0.5002 0.8659 708.1191 396.9102)" fill="#4C606D" font-family="'HelveticaNeueLT-MediumCond'" font-size="10.4801">HUMAN RIGHTS</text>
<polygon fill="#4C606D" points="677.559,417.849 670.42,405.177 697.551,388.75 705.906,403.29 "/>
<text transform="matrix(0.4955 0.8686 -0.8686 0.4955 692.5996 398.2852)" fill="#FFFFFF" font-family="'HelveticaNeueLT-MediumCond'" font-size="10.4801">4</text>
<text transform="matrix(0.822 -0.5695 0.5695 0.822 697.915 379.875)" fill="#4C606D" font-family="'HelveticaNeueLT-MediumCond'" font-size="10.4801">FOOD SECURITY</text>
<polygon fill="#4C606D" points="668.964,402.845 661.243,391.337 686.712,372.632 696.229,386.438 "/>
<text transform="matrix(0.565 0.8251 -0.8251 0.565 682.5039 382.6221)" fill="#FFFFFF" font-family="'HelveticaNeueLT-MediumCond'" font-size="10.4801">4</text>
<text transform="matrix(0.7748 -0.6322 0.6322 0.7748 686.4131 363.647)" fill="#4C606D" font-family="'HelveticaNeueLT-MediumCond'" font-size="10.4802">ENTERPRISE DEVELOPMENT</text>
<polygon fill="#4C606D" points="651.85,394.381 643.641,384.077 674.61,357.273 685.181,370.291 "/>
<text transform="matrix(0.628 0.7782 -0.7782 0.628 671.1387 367.5137)" fill="#FFFFFF" font-family="'HelveticaNeueLT-MediumCond'" font-size="10.4801">7</text>
<text transform="matrix(0.724 -0.6898 0.6898 0.724 673.8135 348.5117)" fill="#4C606D" font-family="'HelveticaNeueLT-MediumCond'" font-size="10.4801">RESEARCH</text>
<polygon fill="#4C606D" points="642.069,381.98 632.637,372.024 661.642,343.017 673.18,355.186 "/>
<text transform="matrix(0.6858 0.7278 -0.7278 0.6858 659.001 353.5312)" fill="#FFFFFF" font-family="'HelveticaNeueLT-MediumCond'" font-size="10.4802">7</text>
<text transform="matrix(0.6676 -0.7445 0.7445 0.6676 660.04 334.4697)" fill="#4C606D" font-family="'HelveticaNeueLT-MediumCond'" font-size="10.4801">CONFLICT RESOLUTION</text>
<polygon fill="#4C606D" points="626.873,373.945 617.44,365.038 647.433,329.938 659.89,341.164 "/>
<text transform="matrix(0.7408 0.6717 -0.6717 0.7408 645.7148 340.5889)" fill="#FFFFFF" font-family="'HelveticaNeueLT-MediumCond'" font-size="10.4801">9</text>
<text transform="matrix(0.6086 -0.7935 0.7935 0.6086 645.0244 321.314)"><tspan x="0" y="0" fill="#4C606D" font-family="'HelveticaNeueLT-MediumCond'" font-size="10.4802">AGRICU</tspan><tspan x="30.088" y="0" fill="#4C606D" font-family="'HelveticaNeueLT-MediumCond'" font-size="10.4802">L</tspan><tspan x="33.788" y="0.001" fill="#4C606D" font-family="'HelveticaNeueLT-MediumCond'" font-size="10.4802">TURE</tspan></text>
<polygon fill="#4C606D" points="615.17,363.116 605.214,355.605 632.139,317.842 645.422,328.078 "/>
<text transform="matrix(0.7902 0.6129 -0.6129 0.7902 631.209 328.6211)" fill="#FFFFFF" font-family="'HelveticaNeueLT-MediumCond'" font-size="10.4801">9</text>
<text transform="matrix(0.5488 -0.8359 0.8359 0.5488 629.3301 309.4971)"><tspan x="0" y="0" fill="#4C606D" font-family="'HelveticaNeueLT-MediumCond'" font-size="10.4801">HEA</tspan><tspan x="16.307" y="0" fill="#4C606D" font-family="'HelveticaNeueLT-MediumCond'" font-size="10.4801">L</tspan><tspan x="20.006" y="0" fill="#4C606D" font-family="'HelveticaNeueLT-MediumCond'" font-size="10.4801">THCARE</tspan></text>
<polygon fill="#4C606D" points="600.613,356.947 589.984,350.243 616.221,306.991 630.217,316.226 "/>
<text transform="matrix(0.8329 0.5534 -0.5534 0.8329 613.9658 316.3291)" fill="#FFFFFF" font-family="'HelveticaNeueLT-MediumCond'" font-size="10.4801">11</text>
<text transform="matrix(0.4846 -0.8747 0.8747 0.4846 612.6826 299.1855)" fill="#4C606D" font-family="'HelveticaNeueLT-MediumCond'" font-size="10.48">ENVIRONMENT</text>
<polygon fill="#4C606D" points="586.55,350.406 575.594,344.518 599.447,297.59 614.096,305.749 "/>
<text transform="matrix(0.8721 0.4894 -0.4894 0.8721 597.8408 307.1621)" fill="#FFFFFF" font-family="'HelveticaNeueLT-MediumCond'" font-size="10.4801">12</text>
<text transform="matrix(0.4176 -0.9086 0.9086 0.4176 595.3818 289.9272)"><tspan x="0" y="0" fill="#4C606D" font-family="'HelveticaNeueLT-MediumCond'" font-size="10.4801">N</tspan><tspan x="6.016" y="0" fill="#4C606D" font-family="'HelveticaNeueLT-MediumCond'" font-size="10.4801">O</tspan><tspan x="11.529" y="0" fill="#4C606D" font-family="'HelveticaNeueLT-MediumCond'" font-size="10.4801">T DISCLOSED</tspan></text>
<polygon fill="#4C606D" points="569.87,349.916 558.914,344.847 581.984,289.394 597.205,296.432 "/>
<text transform="matrix(0.9063 0.4226 -0.4226 0.9063 581.1562 299.0166)" fill="#FFFFFF" font-family="'HelveticaNeueLT-MediumCond'" font-size="10.4801">17</text>
<text transform="matrix(0.3483 -0.9374 0.9374 0.3483 577.0928 282.2021)"><tspan x="0" y="0" fill="#4C606D" font-family="'HelveticaNeueLT-MediumCond'" font-size="10.4801">Y</tspan><tspan x="4.632" y="0.001" fill="#4C606D" font-family="'HelveticaNeueLT-MediumCond'" font-size="10.4801">OUTH DEVELOPMENT</tspan></text>
<polygon fill="#4C606D" points="556.297,343.701 545.341,339.613 563.725,282.593 579.431,288.47 "/>
<text transform="matrix(0.9354 0.3535 -0.3535 0.9354 563.623 292.3125)" fill="#FFFFFF" font-family="'HelveticaNeueLT-MediumCond'" font-size="10.4802">17</text>
<text transform="matrix(0.2754 -0.9613 0.9613 0.2754 558.4961 275.8159)"><tspan x="0" y="0" fill="#4C606D" font-family="'HelveticaNeueLT-MediumCond'" font-size="10.4801">CU</tspan><tspan x="11.067" y="0" fill="#4C606D" font-family="'HelveticaNeueLT-MediumCond'" font-size="10.4801">L</tspan><tspan x="14.766" y="0" fill="#4C606D" font-family="'HelveticaNeueLT-MediumCond'" font-size="10.4801">TURE</tspan></text>
<polygon fill="#4C606D" points="541.09,344.355 529.806,341.411 545.205,277.209 561.316,281.864 "/>
<text transform="matrix(0.9598 0.2807 -0.2807 0.9598 545.8457 286.8838)" fill="#FFFFFF" font-family="'HelveticaNeueLT-MediumCond'" font-size="10.4801">19</text>
<text transform="matrix(0.1974 -0.9803 0.9803 0.1974 539.249 270.9502)" fill="#4C606D" font-family="'HelveticaNeueLT-MediumCond'" font-size="10.48">SOCIAL DEVELOPMENT</text>
<polygon fill="#4C606D" points="523.265,356.782 513.289,354.819 526.16,273.448 542.59,276.796 "/>
<text transform="matrix(0.9792 0.2028 -0.2028 0.9792 527.5957 283.0547)" fill="#FFFFFF" font-family="'HelveticaNeueLT-MediumCond'" font-size="10.4802">33</text>
<text transform="matrix(0.1181 -0.993 0.993 0.1181 519.9746 267.4277)" fill="#4C606D" font-family="'HelveticaNeueLT-MediumCond'" font-size="10.4801">ICT</text>
<polygon fill="#4C606D" points="509.196,363.867 499.914,362.771 507.109,271.046 523.757,273.066 "/>
<text transform="matrix(0.9923 0.1236 -0.1236 0.9923 509.2627 280.3984)" fill="#FFFFFF" font-family="'HelveticaNeueLT-MediumCond'" font-size="10.4801">38</text>
<text transform="matrix(0.0416 -0.9991 0.9991 0.0416 499.9131 265.6538)"><tspan x="0" y="0" fill="#4C606D" font-family="'HelveticaNeueLT-MediumCond'" font-size="10.4802">EDUC</tspan><tspan x="21.935" y="0" fill="#4C606D" font-family="'HelveticaNeueLT-MediumCond'" font-size="10.4802">A</tspan><tspan x="26.807" y="0" fill="#4C606D" font-family="'HelveticaNeueLT-MediumCond'" font-size="10.4802">TION</tspan></text>
<polygon fill="#4C606D" points="493.832,403.714 486.962,403.387 487.341,270.268 504.093,271.004 "/>
<text transform="matrix(0.9989 0.0471 -0.0471 0.9989 490.1836 279.4883)" fill="#FFFFFF" font-family="'HelveticaNeueLT-MediumCond'" font-size="10.48">57</text>
<text transform="matrix(1 0 0 1 302.6567 520.1885)" fill="#A1624F" font-family="'Georgia'" font-size="55.3459">267</text>
<text transform="matrix(1 0 0 1 392.7017 520.1885)" fill="#A1624F" font-family="'Georgia'" font-size="21.0314"> people from</text>
<text transform="matrix(1 0 0 1 452.415 562.5752)" fill="#A1624F" font-family="'Georgia'" font-size="55.3459">57</text>
<text transform="matrix(1 0 0 1 509.4639 562.5752)" fill="#A1624F" font-family="'Georgia'" font-size="21.0314"> countries applied</text>
<text transform="matrix(1 0 0 1 320.6646 600.8945)" fill="#53606C" font-family="'Georgia'" font-size="21.0314">across </text>
<text transform="matrix(1 0 0 1 384.0078 600.8926)" fill="#53606C" font-family="'Georgia'" font-size="55.3459">23</text>
<text transform="matrix(1 0 0 1 445.4609 600.8926)" fill="#53606C" font-family="'Georgia'" font-size="21.0314">different themes</text>
</svg>
