<?xml version="1.0" encoding="utf-8"?>
<!-- Generator: Adobe Illustrator 15.0.0, SVG Export Plug-In . SVG Version: 6.00 Build 0)  -->
<!DOCTYPE svg PUBLIC "-//W3C//DTD SVG 1.1//EN" "http://www.w3.org/Graphics/SVG/1.1/DTD/svg11.dtd">
<svg version="1.1" id="Layer_1" xmlns="http://www.w3.org/2000/svg" xmlns:xlink="http://www.w3.org/1999/xlink" x="0px" y="0px"
	 width="800px" height="600px" viewBox="0 0 800 600" enable-background="new 0 0 800 600" xml:space="preserve">
<path fill="#8CA595" d="M495.572,308.507c-13.6,0-24.625,11.027-24.625,24.625c0,13.6,11.025,24.623,24.625,24.623
	s24.623-11.023,24.623-24.623C520.195,319.534,509.172,308.507,495.572,308.507z M507.978,328.167
	c0.013,0.267,0.017,0.534,0.017,0.803c0,8.201-6.241,17.657-17.656,17.657c-3.504,0-6.766-1.027-9.513-2.788
	c0.485,0.057,0.979,0.086,1.479,0.086c2.908,0,5.584-0.992,7.708-2.656c-2.716-0.051-5.007-1.845-5.796-4.31
	c0.378,0.073,0.766,0.111,1.167,0.111c0.566,0,1.114-0.075,1.636-0.218c-2.84-0.57-4.979-3.079-4.979-6.084
	c0-0.027,0-0.053,0.001-0.079c0.836,0.465,1.793,0.744,2.811,0.777c-1.665-1.115-2.761-3.013-2.761-5.166
	c0-1.138,0.306-2.204,0.841-3.12c3.061,3.755,7.633,6.225,12.791,6.483c-0.105-0.454-0.16-0.928-0.16-1.414
	c0-3.427,2.778-6.205,6.205-6.205c1.785,0,3.398,0.754,4.529,1.959c1.414-0.277,2.742-0.795,3.941-1.506
	c-0.464,1.45-1.447,2.666-2.729,3.434c1.257-0.15,2.452-0.484,3.565-0.978C510.242,326.198,509.189,327.292,507.978,328.167z"/>
</svg>
