<?xml version="1.0" encoding="utf-8"?>
<!-- Generator: Adobe Illustrator 15.0.0, SVG Export Plug-In . SVG Version: 6.00 Build 0)  -->
<!DOCTYPE svg PUBLIC "-//W3C//DTD SVG 1.1//EN" "http://www.w3.org/Graphics/SVG/1.1/DTD/svg11.dtd">
<svg version="1.1" id="Layer_1" xmlns="http://www.w3.org/2000/svg" xmlns:xlink="http://www.w3.org/1999/xlink" x="0px" y="0px"
	 width="800px" height="600px" viewBox="0 0 800 600" enable-background="new 0 0 800 600" xml:space="preserve">
<g>
	<path fill="#8CA595" d="M395.907,280.478c0.199-0.066,0.4-0.125,0.602-0.184c-0.383-0.867-0.801-1.736-1.238-2.594
		c-7.858,2.354-15.399,2.184-15.67,2.174c-0.005,0.164-0.013,0.322-0.013,0.486c0,3.922,1.479,7.496,3.911,10.199
		c-0.002-0.004-0.006-0.008-0.006-0.008S387.671,283.142,395.907,280.478z"/>
	<path fill="#8CA595" d="M394.006,275.351c-2.642-4.693-5.464-8.523-5.667-8.795c-4.257,2.01-7.434,5.932-8.424,10.658
		C380.317,277.218,386.678,277.298,394.006,275.351z"/>
	<path fill="#8CA595" d="M404.931,268.905c-2.688-2.369-6.216-3.807-10.08-3.807c-1.239,0-2.443,0.15-3.597,0.428
		c0.229,0.307,3.097,4.111,5.706,8.904C402.72,272.271,404.894,268.962,404.931,268.905z"/>
	<path fill="#8CA595" d="M391.196,265.542c-0.018,0.002-0.033,0.004-0.05,0.012c0.029-0.008,0.046-0.012,0.046-0.012H391.196z"/>
	<path fill="#8CA595" d="M385.47,292.392l0.003-0.006c-0.113-0.088-0.233-0.168-0.344-0.262
		C385.331,292.288,385.47,292.392,385.47,292.392z"/>
	<path fill="#8CA595" d="M398.135,276.704c0.354,0.729,0.697,1.469,1.015,2.213c0.112,0.268,0.222,0.529,0.329,0.791
		c5.244-0.66,10.409,0.451,10.63,0.496c-0.035-3.619-1.329-6.939-3.471-9.539C406.608,270.706,404.161,274.243,398.135,276.704z"/>
	<path fill="#8CA595" d="M397.448,282.856c-9.008,3.141-11.947,9.469-11.976,9.529c2.589,2.021,5.839,3.236,9.378,3.236
		c2.114,0,4.128-0.43,5.959-1.209c-0.226-1.334-1.112-6.008-3.261-11.59C397.516,282.835,397.481,282.845,397.448,282.856z"/>
	<path fill="#8CA595" d="M394.851,255.735c-13.6,0-24.624,11.027-24.624,24.625c0,13.6,11.024,24.623,24.624,24.623
		s24.625-11.023,24.625-24.623C419.476,266.763,408.45,255.735,394.851,255.735z M411.317,287.317
		c-0.447,1.061-1.002,2.082-1.648,3.035c-0.639,0.947-1.373,1.836-2.181,2.645c-0.809,0.807-1.698,1.541-2.644,2.182
		c-0.955,0.645-1.978,1.199-3.037,1.648c-1.079,0.455-2.209,0.805-3.357,1.041c-1.178,0.242-2.389,0.365-3.6,0.365
		s-2.422-0.123-3.599-0.365c-1.149-0.236-2.279-0.586-3.358-1.041c-1.06-0.449-2.082-1.004-3.037-1.648
		c-0.945-0.641-1.835-1.375-2.643-2.182c-0.809-0.809-1.543-1.697-2.182-2.645c-0.645-0.953-1.199-1.975-1.648-3.035
		c-0.456-1.08-0.807-2.209-1.043-3.359c-0.239-1.178-0.361-2.387-0.361-3.598s0.122-2.422,0.361-3.598
		c0.236-1.15,0.587-2.281,1.043-3.359c0.449-1.061,1.004-2.084,1.648-3.037c0.639-0.947,1.373-1.834,2.182-2.645
		c0.808-0.807,1.697-1.539,2.643-2.18c0.955-0.646,1.978-1.201,3.037-1.65c1.079-0.457,2.209-0.807,3.358-1.041
		c1.177-0.24,2.388-0.363,3.599-0.363s2.422,0.123,3.6,0.363c1.148,0.234,2.278,0.584,3.357,1.041
		c1.06,0.449,2.082,1.004,3.037,1.65c0.945,0.641,1.835,1.373,2.644,2.18c0.808,0.811,1.542,1.697,2.181,2.645
		c0.646,0.953,1.201,1.977,1.648,3.037c0.457,1.078,0.807,2.209,1.042,3.359c0.241,1.176,0.364,2.387,0.364,3.598
		s-0.123,2.42-0.364,3.598C412.124,285.108,411.774,286.237,411.317,287.317z"/>
	<path fill="#8CA595" d="M400.409,282.116c2.002,5.502,2.815,9.982,2.971,10.902c3.427-2.312,5.861-5.984,6.54-10.238
		C409.605,282.679,405.336,281.327,400.409,282.116z"/>
</g>
</svg>
