<?xml version="1.0" encoding="utf-8"?>
<!-- Generator: Adobe Illustrator 15.0.0, SVG Export Plug-In . SVG Version: 6.00 Build 0)  -->
<!DOCTYPE svg PUBLIC "-//W3C//DTD SVG 1.1//EN" "http://www.w3.org/Graphics/SVG/1.1/DTD/svg11.dtd">
<svg version="1.1" id="Layer_1" xmlns="http://www.w3.org/2000/svg" xmlns:xlink="http://www.w3.org/1999/xlink" x="0px" y="0px"
	 width="800px" height="600px" viewBox="0 0 800 600" enable-background="new 0 0 800 600" xml:space="preserve">
<g>
	<path fill="#8CA595" d="M421.208,267.145h-9.385c-0.881,0-1.594,0.707-1.594,1.584c0,0.861,0.713,1.588,1.594,1.588h9.385
		c0.877,0,1.587-0.727,1.587-1.588C422.795,267.852,422.085,267.145,421.208,267.145z"/>
	<path fill="#8CA595" d="M411.823,260.791h4.62c0.88,0,1.595-0.725,1.595-1.596c0-0.873-0.715-1.592-1.595-1.592h-4.62
		c-0.881,0-1.594,0.719-1.594,1.592C410.229,260.066,410.942,260.791,411.823,260.791z"/>
	<path fill="#8CA595" d="M415.67,239.758c-13.601,0-24.625,11.023-24.625,24.623s11.024,24.625,24.625,24.625
		s24.624-11.025,24.624-24.625S429.271,239.758,415.67,239.758z M429.618,268.852c-0.025,4.574-3.748,8.32-8.33,8.32h-9.57
		c-4.582,0-8.327-3.746-8.327-8.32v-9.721c0-4.584,3.745-8.338,8.327-8.338h5.824c2.152,0.256,5.281,2.098,6.436,4.549
		c0.316,0.686,0.484,0.793,0.747,2.83c0.142,1.049,0.214,1.824,0.683,2.254c0.658,0.6,3.109,0.197,3.593,0.574l0.372,0.291
		l0.221,0.459l0.077,0.367L429.618,268.852z"/>
</g>
</svg>
