<?xml version="1.0" encoding="utf-8"?>
<!-- Generator: Adobe Illustrator 15.0.0, SVG Export Plug-In . SVG Version: 6.00 Build 0)  -->
<!DOCTYPE svg PUBLIC "-//W3C//DTD SVG 1.1//EN" "http://www.w3.org/Graphics/SVG/1.1/DTD/svg11.dtd">
<svg version="1.1" id="Layer_1" xmlns="http://www.w3.org/2000/svg" xmlns:xlink="http://www.w3.org/1999/xlink" x="0px" y="0px"
	 width="800px" height="600px" viewBox="0 0 800 600" enable-background="new 0 0 800 600" xml:space="preserve">
<g>
	<defs>
		<rect id="SVGID_1_" x="380.369" y="262.395" width="47.208" height="39.263"/>
	</defs>
	<clipPath id="SVGID_2_">
		<use xlink:href="#SVGID_1_"  overflow="visible"/>
	</clipPath>
	<path clip-path="url(#SVGID_2_)" fill="#8B8099" d="M403.972,262.396c-13.035,0-23.603,7.028-23.603,15.695
		c0,4.959,3.468,9.376,8.871,12.251c-0.769,2.55-2.304,5.373-5.268,7.87c0,0,6.921-0.459,11.808-5.417
		c0.281,0.069,0.572,0.12,0.857,0.185c-0.267-0.797-0.425-1.626-0.425-2.488c0-5.848,6.509-10.427,14.821-10.427
		c5.971,0,10.993,2.372,13.359,5.87c2.014-2.31,3.184-4.984,3.184-7.846C427.576,269.423,417.007,262.396,403.972,262.396
		 M424.129,290.493c0-4.809-5.862-8.709-13.097-8.709c-7.232,0-13.098,3.9-13.098,8.709c0,4.811,5.865,8.708,13.098,8.708
		c1.601,0,3.126-0.199,4.545-0.549c2.711,2.752,6.551,3.006,6.551,3.006c-1.645-1.386-2.494-2.953-2.922-4.368
		C422.202,295.696,424.129,293.246,424.129,290.493"/>
</g>
<g>
	<defs>
		<rect id="SVGID_3_" x="378.425" y="201.429" width="46.245" height="45.676"/>
	</defs>
	<clipPath id="SVGID_4_">
		<use xlink:href="#SVGID_3_"  overflow="visible"/>
	</clipPath>
	<path clip-path="url(#SVGID_4_)" fill="#E3AF24" d="M399.459,226.071l3.174-20.768c-1.038-0.157-2.091-0.265-3.174-0.265
		c-11.617,0-21.034,9.417-21.034,21.033c0,11.616,9.417,21.033,21.034,21.033c11.615,0,21.033-9.416,21.033-21.033
		c0-0.493-0.04-0.976-0.073-1.462L399.459,226.071z M406.884,201.429l-3.175,20.768l20.96-1.462
		C423.985,210.867,416.516,202.892,406.884,201.429"/>
</g>
<polygon fill="#8CA595" points="381.424,324.915 381.483,324.915 381.498,324.878 381.445,324.864 "/>
<polygon fill="#8CA595" points="381.466,325.284 381.554,325.306 381.579,325.211 381.48,325.19 "/>
<polygon fill="#8CA595" points="382.623,326.661 382.663,326.648 382.679,326.574 382.623,326.556 "/>
<polygon fill="#8CA595" points="382.662,328.378 382.658,328.496 382.733,328.507 382.756,328.378 382.733,328.342 "/>
<g>
	<defs>
		<rect id="SVGID_5_" x="381.424" y="318.647" width="46.245" height="47.649"/>
	</defs>
	<clipPath id="SVGID_6_">
		<use xlink:href="#SVGID_5_"  overflow="visible"/>
	</clipPath>
	<path clip-path="url(#SVGID_6_)" fill="#8CA595" d="M427.433,325.977c-0.112-0.033-1.253-0.392-1.559-0.48
		c-0.307-0.09-2.002-0.631-2.331-0.735c-0.331-0.104-1.852-0.62-2.087-0.709c0.037-0.22-0.071-0.34-0.091-0.37
		c-0.021-0.03-0.098-0.179-0.587-0.522c-0.487-0.344-1.352-0.713-1.464-0.753c-0.111-0.039-0.651-0.2-0.667-0.201
		c-0.017,0-0.046,0.018-0.057,0.024c-0.009,0.007-0.011,0.011-0.053-0.001c0.004-0.061-0.022-0.065-0.022-0.065
		s-2.846-0.271-2.875-0.267c-0.03,0.005-0.53,0.169-0.838,0.362c-0.248,0.145-0.362,0.413-0.362,0.413s-0.114,0.551-0.161,0.755
		c-0.046,0.204,0.049,0.314,0.049,0.314l-1.188,6.791l-0.113,0.092l-0.152,0.988c0,0-0.01,0.002-0.022,0.029
		c-0.22-0.021-0.476-0.033-0.751-0.033c-0.783,0-1.418,0.097-1.418,0.214c0,0.129,0.002,0.253,0.007,0.373
		c-0.71-0.231-2.376,0.269-2.376,0.269c-0.608-0.142-3.313,0.143-3.313,0.143c-1.08-0.642-2.975-0.497-2.975-0.497l-0.879-0.926
		c0-0.642-0.471-1.215-0.471-1.215c0-0.497-1.104-2.212-1.104-2.212c0.527,0,0.697-0.989,0.697-0.989l0.203-0.642
		c0.203-0.356,0.474-0.142,0.474-0.142c0.337,0.071,0.472-0.286,0.472-0.286l-0.07-0.998c0.273-0.07,0.273-1.424,0.273-1.424
		l0.133-1.069l0.542,0.072c0.066-0.427-0.812-1.495-0.812-1.495c-1.149-2.136-3.921-1.497-3.921-1.497
		c-1.556,0.072-3.042,3.92-3.042,3.92c-0.134,0.212,0.199,0.567,0.199,0.567l-0.47,0.288c-0.27-0.786-1.756,0.781-1.756,0.781
		c-1.625,1.211-4.057,4.273-4.057,4.273c-0.384,0.696-1.355,2.444-2.21,3.979c-0.516,0.295-2.739,1.608-3.53,2.79
		c-0.05,0.057-0.093,0.123-0.125,0.214c-0.158,0.305-0.207,0.596-0.086,0.852l0.013,0.027c0.164,3.12,3.287,11.148,3.287,11.148
		c0.203,0.541,0.691,0.934,1.352,1.215c-0.642,1.478-1.716,4.588-1.947,9.264c-0.338,6.765,0.61,0.141,0.61,0.141
		s0.936-6.694,2.081-9.149c1.51,0.411,3.554,0.441,5.335,0.35l0.296,1.166c-0.533,1.678-1.201,4.492-1.367,8.416
		c-0.288,6.768,0.515,0.142,0.515,0.142s0.503-4.226,1.198-7.193l1.067,4.203c0,0,0.201-0.426,0.069-2.136l-0.719-3.587
		c0.17-0.511,0.346-0.905,0.524-1.126c0.042-0.003,0.084-0.008,0.126-0.012c-0.012,0.013-0.02,0.022-0.02,0.022l0.116-0.032
		c1.225-0.118,2.067-0.253,2.067-0.253c0.353-0.038,0.63-0.207,0.809-0.43c0.025,0.002,0.049,0.004,0.075,0.008
		c0.044,0.167,0.065,0.279,0.065,0.279c0,0.354,0.778,1.955,1.233,2.861l1.147,5.331c0,0,0.176-0.427,0.062-2.136l-0.302-1.761
		c0.309,0.4,0.669,0.854,0.97,1.225v5.304l0.065,0.074h1.353l0.07-0.074v-3.427c0.228,0.249,0.409,0.439,0.409,0.439
		c-0.273,0.712,0.807,1.067,0.807,1.067c0.268,0,1.353,1.21,1.353,1.21c2.978,1.283,2.366-1.497,2.366-1.497
		c5.406-1.709-1.757-2.136-1.757-2.136c-0.609-0.284-0.204-1.637-0.204-1.637c0-0.57,0.475-7.551,0.475-7.551
		c0-0.927,0.338-4.487,0.338-4.487c0-1.562-2.884-1.806-3.784-1.844v-4.563l-0.072-0.073h20.554l-0.063,0.073v24.424l0.063,0.075
		h1.356l0.066-0.075v-24.423l-0.066-0.073h1.351l0.068-0.072v-0.928l-0.068-0.069h-4.539c0.007-0.038,0.007-0.088,0-0.136
		c-0.018-0.066-0.085-0.101-0.085-0.101s-0.915-0.387-0.834-0.396s0.201-0.141,0.201-0.141l2.167,0.076c0,0,0.096,0.055,0.194,0.117
		c0.086,0.058,0.172,0.123,0.209,0.132c0.077,0.017,0.385,0.025,0.426,0.031c0.042,0.005,0.04-0.03,0.04-0.03l0.026-0.212
		c0,0,0.877,0.049,0.978,0.046c0.1-0.002,0.098-0.076,0.098-0.076s0.083-0.487,0.171-0.998c0.096-0.553,0.196-1.132,0.196-1.132
		s-0.002-0.002,0.027-0.138c0.349-0.019,1.109,0.038,1.235,0.044c0.123,0.008,0.125-0.105,0.125-0.105s0.118-0.65,0.182-1.022
		s0.218-1.185,0.274-1.534c0.058-0.35,0.148-0.879,0.306-1.568c0.157-0.691,0.344-1.183,0.405-1.396
		C427.669,326.009,427.543,326.009,427.433,325.977 M414.991,333.5c0.148,0.089,0.547,0.293,0.559,0.3
		c0.013,0.009-0.063,0.025-0.091,0.035c-0.027,0.013-0.547,0.262-0.547,0.262s-0.216,0-0.473-0.051
		c-0.257-0.049-0.689-0.127-1.041-0.167c-0.036-0.004-0.063-0.006-0.095-0.009c0.051-0.271,0.091-0.584,0.122-0.885
		c0.159,0.116,0.248,0.13,0.293,0.148C413.77,333.157,414.778,333.445,414.991,333.5 M401.148,335.815v4.511
		c-0.514,0.009-1.098,0.032-1.592,0.056c-0.164-0.497-0.577-1.021-1.515-1.361c0.039-0.797-0.138-2.281-0.138-2.281
		c0.271-0.784,0.674-2.637,0.674-2.637h1.083c0.091,0.271,0.268,0.449,0.475,0.569h-0.337l-0.069,0.07v0.927l0.069,0.072h1.417
		L401.148,335.815z M410.78,334.672c0.144-0.124,0.169-0.283,0.169-0.283c0.045-0.013,0.081-0.03,0.118-0.046
		c0.069,0.175,0.123,0.257,0.123,0.257h1.825c0.108,0,0.198-0.267,0.271-0.633c0.012,0,0.028,0,0.039,0
		c0.194,0.002,0.778,0.101,1.098,0.16c0.164,0.031,0.335,0.033,0.335,0.033l-0.708,0.347c0,0-0.033,0.11-0.02,0.165H410.78z
		 M420.239,333.963c0,0-0.049-0.061-0.007-0.062c0.046-0.001,0.204,0.004,0.204,0.004S420.338,333.977,420.239,333.963"/>
</g>
<g>
	<defs>
		<rect id="SVGID_7_" x="365.116" y="499.218" width="70.481" height="15.683"/>
	</defs>
	<clipPath id="SVGID_8_">
		<use xlink:href="#SVGID_7_"  overflow="visible"/>
	</clipPath>
	<path clip-path="url(#SVGID_8_)" fill="#B6A691" d="M434.85,503.159c-1.619-0.84-3.426-1.252-3.516-1.32
		c-1.536-1.202-2.58-1.209-2.702-1.211c-1.649-0.036-9.021,0.924-9.021,0.924s-0.317-0.344-0.368-0.339s-0.189-0.008-0.153,0.048
		c0.04,0.058,0.134,0.335,0.016,0.353c-8.449,1.184-12.769,2.64-12.856,2.649c-5.317,0.605-6.059,0.88-6.261,0.826
		c-0.328-0.083-7.479-1.893-7.592-1.909c-0.113-0.017-0.742,0.052-0.812-0.006c-0.13-0.11-3.093-1.444-3.239-1.431
		c-0.084,0.009-1.356,0.038-1.229,0.143c0.585,0.482,1.585,1.843,1.891,1.8c0.307-0.045,1.729,0.623,1.729,0.623l0.484,0.045
		c0,0-0.453,0.125-0.212,0.14c0.244,0.012,3.001,1.366,2.984,1.366c-0.122,0.008-8.842,1.137-8.842,1.137s-0.089-0.248-0.228-0.236
		c-0.137,0.014-0.114,0.271-0.114,0.271s-0.463,0.031-0.772,0.067c-0.648,0.075-2.666-0.145-3.054-0.422
		c-0.284-0.203-11.549-7.104-11.841-7.303c-0.232-0.156-2.749,0.224-4.025,0.405c1.021,1.61,4.923,8.414,4.923,8.414
		c-1.197-0.066-2.663,0.121-2.783,0.132c-0.232,0.02,0.013,0.154,0.013,0.154s1.599,0.941,1.543,0.97
		c-0.14,0.073-0.17,0.519-0.17,0.519l-0.115,0.01l0.057,0.664l0.138-0.014c0.057,0.399,0.74,0.754,1.244,0.783
		c0.147,0.006,2.501,0.181,3.063,0.218c0.347,0.022,7.985,0.598,7.985,0.598l-0.084,0.194c0.279,0.066,0.39-0.153,0.39-0.153
		c0.424,0.005,5.686,0.428,7.305,0.503c1.442,0.065,4.552-0.176,4.552-0.176l-0.023,0.218c0.197-0.017,0.334-0.247,0.334-0.247
		l2.235-0.24l0.019,0.396c0.109-0.019,0.333-0.428,0.333-0.428c0.067-0.013,0.469-0.041,0.469-0.041l0.034,0.369
		c0,0,0.286-0.051,0.414-0.002c0.122,0.049,2.263,0.251,2.263,0.251v0.119l-0.161,0.102l2.424-0.18l0.041,0.176l0.16-0.031
		l0.005,0.164c-0.511,0.552-0.544,0.668-0.522,0.813c0.06,0.375,0.224,0.464,0.418,0.529c0.15,0.058,0.22,0.047,0.355,0.021
		c0.312-0.052,0.608-0.526,0.608-0.526s0.144-0.082,0.173-0.016c0.073,0.166,0.197,0.159,0.353,0.183
		c0.105,0.02,0.227,0.003,0.347-0.054c0.131-0.062,0.783-0.699,0.755-1.022c-0.044-0.516-0.523-0.507-0.53-0.565
		c-0.018-0.18,0.599-0.63,0.599-0.63v-0.389l0.427-0.057l0.059,0.667c-0.165,0.024-0.358,0.929-0.349,1.049
		c0.011,0.118,0.038,0.609,0.038,0.609c-0.091,0.043-0.279,0.187-0.252,0.471c0.053,0.597,0.499,0.591,0.629,0.58
		c0.386-0.023,0.674-0.448,0.655-0.678c-0.012-0.128-0.042-0.312,0.018-0.276c0.147,0.08,0.261,0.038,0.424,0.023
		c0.225-0.021,0.556-0.456,0.538-0.66c-0.008-0.087-0.017-0.26-0.072-0.339c-0.142-0.195,0.049-0.246,0.236-0.265
		c0.331-0.029,0.496-0.516,0.584-0.497c0.088,0.018,1.465,0,1.465,0l0.04,0.245l-0.195,0.036l0.02,0.136
		c0,0,1.711-0.165,1.866-0.181c2.138-0.216,2.154-0.493,2.154-0.493l-0.021-1.453c0.245-0.022,4.163-0.764,4.163-0.764l-0.035,0.373
		c0.309-0.026,0.375-0.458,0.434-0.468c0.873-0.172,5.33-0.746,5.579-0.769c1.78-0.156,5.764-1.101,5.764-1.101l0.076,0.536
		l-0.346,0.393l0.023,0.169l0.429-0.018c0,0,0.193,0.62,0.126,0.634c-0.068,0.016-0.604,0.199-0.556,0.756
		c0.043,0.471,0.613,0.496,0.698,0.49c0.479-0.043,0.697-0.517,0.681-0.713c-0.022-0.258-0.263-0.343-0.232-0.456
		c0.086-0.309-0.245-0.929-0.245-0.929l0.121-0.086l-0.046-0.42l0.481-0.232l-0.061-0.453c3.767-1.201,5.03-2.298,5.308-2.535
		c0.472-0.403,0.694-0.63,0.662-0.989C435.534,503.521,434.984,503.23,434.85,503.159"/>
</g>
<g>
	<defs>
		<rect id="SVGID_9_" x="380.369" y="85.813" width="46.244" height="38.689"/>
	</defs>
	<clipPath id="SVGID_10_">
		<use xlink:href="#SVGID_9_"  overflow="visible"/>
	</clipPath>
	<path clip-path="url(#SVGID_10_)" fill="#A1624F" d="M412.572,113.588c2.003-1.114,1.743-5.402-0.577-9.584
		c-0.997-1.802-2.217-3.26-3.441-4.28c-1.427,1.046-3.167,1.682-5.062,1.682c-1.899,0-3.639-0.638-5.064-1.682
		c-1.223,1.02-2.444,2.478-3.444,4.28c-2.32,4.182-2.575,8.47-0.571,9.584c0.895,0.508,1.838,0.128,2.811-0.81
		c-0.171,0.949-0.271,1.979-0.271,3.056c0,4.794,1.859,8.668,4.148,8.668c1.381,0,2.064-1.412,2.393-3.57
		c0.327,2.143,1.012,3.57,2.384,3.57c2.278,0,4.153-3.875,4.153-8.668c0-1.077-0.102-2.107-0.274-3.056
		C410.732,113.716,411.675,114.104,412.572,113.588 M403.491,99.774c3.852,0,6.979-3.125,6.979-6.981s-3.127-6.98-6.979-6.98
		c-3.855,0-6.983,3.126-6.983,6.982C396.508,96.65,399.636,99.774,403.491,99.774 M417.513,104.201c3.162,0,5.731-2.566,5.731-5.731
		c0-3.164-2.567-5.733-5.731-5.733c-3.165,0-5.731,2.567-5.731,5.733C411.781,101.635,414.346,104.201,417.513,104.201
		 M424.497,107.675c-0.82-1.48-1.821-2.678-2.827-3.515c-1.17,0.858-2.601,1.381-4.153,1.381c-1.233,0-2.381-0.338-3.388-0.897
		c0.809,1.783,1.311,3.589,1.405,5.204c0.151,2.473-0.622,4.309-2.168,5.164c-0.333,0.191-0.695,0.299-1.066,0.365
		c-0.091,0.641-0.155,1.307-0.155,2.009c0,3.935,1.526,7.116,3.408,7.116c1.131,0,1.694-1.159,1.964-2.931
		c0.266,1.761,0.828,2.931,1.956,2.931c1.87,0,3.411-3.182,3.411-7.116c0-0.884-0.086-1.73-0.229-2.51
		c0.804,0.77,1.576,1.089,2.314,0.664C426.613,114.629,426.399,111.106,424.497,107.675 M389.468,104.201
		c3.165,0,5.731-2.566,5.731-5.731c0-3.164-2.566-5.733-5.731-5.733c-3.164,0-5.733,2.567-5.733,5.733
		C383.735,101.635,386.304,104.201,389.468,104.201 M393.605,115.006c-2.599-1.444-2.838-5.751-0.746-10.368
		c-1.01,0.565-2.157,0.903-3.391,0.903c-1.559,0-2.988-0.525-4.158-1.381c-1.005,0.837-2.005,2.035-2.828,3.515
		c-1.904,3.433-2.113,6.954-0.467,7.865c0.735,0.42,1.508,0.105,2.306-0.664c-0.14,0.783-0.222,1.626-0.222,2.51
		c0,3.935,1.526,7.116,3.407,7.116c1.133,0,1.696-1.159,1.965-2.931c0.269,1.761,0.83,2.931,1.959,2.931
		c1.87,0,3.409-3.182,3.409-7.116c0-0.704-0.066-1.372-0.159-2.012C394.312,115.307,393.947,115.202,393.605,115.006"/>
</g>
<g>
	<defs>
		<rect id="SVGID_11_" x="378.425" y="143.655" width="46.245" height="39.198"/>
	</defs>
	<clipPath id="SVGID_12_">
		<use xlink:href="#SVGID_11_"  overflow="visible"/>
	</clipPath>
	<path clip-path="url(#SVGID_12_)" fill="#768388" d="M392.662,155.065h7.592c0.524,0,0.948-0.431,0.948-0.968
		c0-0.538-0.424-0.962-0.948-0.962h-7.592c-0.522,0-0.947,0.424-0.947,0.962C391.715,154.634,392.14,155.065,392.662,155.065
		 M392.662,151.042h7.592c0.524,0,0.948-0.426,0.948-0.962c0-0.537-0.424-0.969-0.948-0.969h-7.592
		c-0.522,0-0.947,0.432-0.947,0.969C391.715,150.616,392.14,151.042,392.662,151.042 M392.662,159.09h7.592
		c0.524,0,0.948-0.433,0.948-0.971c0-0.537-0.424-0.97-0.948-0.97h-7.592c-0.522,0-0.947,0.433-0.947,0.97
		C391.715,158.657,392.14,159.09,392.662,159.09 M415.668,181.629c0,0.617-0.507,1.119-1.126,1.119h-26.038
		c-0.613,0-1.112-0.502-1.112-1.119c0-0.618,0.499-1.118,1.112-1.118h26.038C415.161,180.511,415.668,181.011,415.668,181.629
		 M418.7,162.744h-2.807v-7.068c0-0.294-0.115-0.575-0.319-0.776l-10.973-10.921c-0.2-0.209-0.482-0.324-0.779-0.324H391.96
		c-2.661,0-4.815,2.161-4.815,4.82v14.269h-2.748c-3.286,0-5.972,2.692-5.972,5.98v8.124c0,3.283,2.686,5.975,5.972,5.975h1.018
		v-0.085c0.061-2.613,2.454-4.731,5.4-4.731c0.003,0,17.629,0.004,17.629,0.004c0-0.004,3.774-0.004,3.774-0.004
		c2.942,0,5.34,2.215,5.391,4.831c0,0.014,1.091-0.015,1.091-0.015c3.282,0,5.969-2.692,5.969-5.975v-8.124
		C424.669,165.436,421.982,162.744,418.7,162.744 M404.612,147.096l7.64,7.6h-5.021c-1.445,0-2.618-1.17-2.618-2.624V147.096z
		 M389.339,162.744v-14.269c0-1.449,1.177-2.619,2.621-2.619h10.456v6.216c0,2.663,2.167,4.822,4.814,4.822h6.464v5.85H389.339z
		 M410.675,171.118c-1.208,0-2.188-0.983-2.188-2.196c0-1.207,0.979-2.183,2.188-2.183c1.209,0,2.19,0.976,2.19,2.183
		C412.865,170.135,411.884,171.118,410.675,171.118 M418.314,171.118c-1.201,0-2.186-0.983-2.186-2.196
		c0-1.207,0.984-2.183,2.186-2.183c1.214,0,2.194,0.976,2.194,2.183C420.509,170.135,419.528,171.118,418.314,171.118"/>
</g>
<g>
	<defs>
		<rect id="SVGID_13_" x="381.766" y="436.522" width="49.316" height="32"/>
	</defs>
	<clipPath id="SVGID_14_">
		<use xlink:href="#SVGID_13_"  overflow="visible"/>
	</clipPath>
	<path clip-path="url(#SVGID_14_)" fill="#E8C79A" d="M431.083,436.521h-28.709v25h13.04c1.022-2.243,3.281-3.808,5.904-3.808
		c2.621,0,4.879,1.564,5.901,3.808h3.863V436.521z"/>
	<path clip-path="url(#SVGID_14_)" fill="#E8C79A" d="M393.977,457.714c2.152,0,4.057,1.057,5.238,2.673v-16.8h-10.889l-6.559,7.243
		v10.688h6.309C389.099,459.277,391.356,457.714,393.977,457.714 M385.796,451.511l3.661-4.348h5.818v7.788h-9.479V451.511z"/>
	<path clip-path="url(#SVGID_14_)" fill="#E8C79A" d="M393.977,459.887c-2.384,0-4.317,1.934-4.317,4.317
		c0,2.385,1.933,4.318,4.317,4.318s4.318-1.934,4.318-4.318C398.294,461.82,396.36,459.887,393.977,459.887"/>
	<path clip-path="url(#SVGID_14_)" fill="#E8C79A" d="M421.317,459.887c-2.385,0-4.318,1.934-4.318,4.317
		c0,2.385,1.934,4.318,4.318,4.318c2.384,0,4.316-1.934,4.316-4.318C425.634,461.82,423.701,459.887,421.317,459.887"/>
</g>
<polygon fill="#4C606D" points="381.145,384.242 417.587,384.242 417.587,381.521 378.425,381.521 378.425,405.999 381.145,405.999 
	"/>
<polygon fill="#4C606D" points="386.04,389.114 422.483,389.114 422.483,386.417 383.32,386.417 383.32,410.894 386.04,410.894 "/>
<path fill="#4C606D" d="M388.216,415.767h39.162V391.29h-39.162V415.767z M425.202,413.591h-34.811v-20.126h34.811V413.591z"/>
<g>
	<defs>
		<rect id="SVGID_15_" x="378.425" y="381.521" width="48.953" height="34.245"/>
	</defs>
	<clipPath id="SVGID_16_">
		<use xlink:href="#SVGID_15_"  overflow="visible"/>
	</clipPath>
	<path clip-path="url(#SVGID_16_)" fill="#4C606D" d="M396.013,405.281c0.173,0,0.698-0.639,0.698-1.802s-0.525-1.803-0.698-1.803
		c-0.174,0-0.698,0.64-0.698,1.803S395.839,405.281,396.013,405.281"/>
	<path clip-path="url(#SVGID_16_)" fill="#4C606D" d="M419.605,405.281c0.173,0,0.698-0.639,0.698-1.802s-0.525-1.803-0.698-1.803
		c-0.175,0-0.7,0.64-0.7,1.803S419.431,405.281,419.605,405.281"/>
	<path clip-path="url(#SVGID_16_)" fill="#4C606D" d="M400.624,403.479c0-3.606,1.491-6.744,3.695-8.381h-12.296v16.862h12.434
		C402.178,410.353,400.624,407.161,400.624,403.479 M394.226,403.479c0-1.596,0.799-2.889,1.787-2.889
		c0.986,0,1.786,1.293,1.786,2.889c0,1.597-0.8,2.891-1.786,2.891C395.025,406.369,394.226,405.075,394.226,403.479"/>
	<path clip-path="url(#SVGID_16_)" fill="#4C606D" d="M411.275,395.098c2.202,1.636,3.695,4.775,3.695,8.381
		c0,3.682-1.557,6.874-3.833,8.481h12.432v-16.862H411.275z M419.605,400.59c0.987,0,1.786,1.293,1.786,2.889
		s-0.799,2.89-1.786,2.89s-1.788-1.294-1.788-2.89S418.618,400.59,419.605,400.59"/>
	<path clip-path="url(#SVGID_16_)" fill="#4C606D" d="M407.269,409.547v0.779c0,0.294,0.054,0.347,0.364,0.347h0.347
		c0.311,0,0.362-0.053,0.362-0.347v-0.779c1.143-0.188,3.028-0.985,3.028-3.391c0-2.216-1.903-2.96-3.028-3.514v-3.201
		c0.743,0,1.87,0.691,1.972,0.691c0.071,0,0.122-0.053,0.157-0.138l0.535-1.177c0.036-0.07,0.053-0.122,0.053-0.191
		c0-0.587-2.215-0.969-2.717-1.003v-0.849c0-0.294-0.052-0.346-0.362-0.346h-0.347c-0.311,0-0.364,0.052-0.364,0.346v0.849
		c-0.796,0.034-3.046,0.761-3.046,3.307c0,2.282,1.991,2.889,3.046,3.356v3.391c-1.055-0.12-2.215-0.796-2.318-0.796
		c-0.069,0-0.14,0.104-0.157,0.139l-0.5,1.454c-0.035,0.104-0.035,0.104-0.035,0.156
		C404.258,409.149,406.68,409.547,407.269,409.547 M406.214,400.79c0-1.02,0.831-1.262,1.175-1.349v2.819
		C407.009,402.088,406.214,401.726,406.214,400.79 M408.221,404.685c0.398,0.209,1.159,0.57,1.159,1.574
		c0,0.952-0.657,1.28-1.159,1.419V404.685z"/>
</g>
</svg>
