<?xml version="1.0" encoding="utf-8"?>
<!-- Generator: Adobe Illustrator 15.0.0, SVG Export Plug-In . SVG Version: 6.00 Build 0)  -->
<!DOCTYPE svg PUBLIC "-//W3C//DTD SVG 1.1//EN" "http://www.w3.org/Graphics/SVG/1.1/DTD/svg11.dtd">
<svg version="1.1" id="Layer_1" xmlns="http://www.w3.org/2000/svg" xmlns:xlink="http://www.w3.org/1999/xlink" x="0px" y="0px"
	 width="800px" height="600px" viewBox="0 0 800 600" enable-background="new 0 0 800 600" xml:space="preserve">
<g>
	<g>
		<g>
			<g>
				<path fill="#B6A691" d="M400.591,300.59L370.66,130.842c9.938-1.752,19.84-2.618,29.931-2.618V300.59z"/>
			</g>
		</g>
		<g>
			<g>
				<path fill="#DEC69B" d="M400.591,300.59L338.82,139.672c10.309-3.958,20.964-6.912,31.839-8.83L400.591,300.59z"/>
			</g>
		</g>
		<g>
			<g>
				<path fill="#53606C" d="M400.591,300.59l-96.386-142.898c11.68-7.878,21.462-12.971,34.616-18.02L400.591,300.59z"/>
			</g>
		</g>
		<g>
			<g>
				<path fill="#8CA595" d="M400.591,300.59L274.53,183.036c9.739-10.443,17.837-17.36,29.675-25.345L400.591,300.59z"/>
			</g>
		</g>
		<g>
			<g>
				<path fill="#8B8099" d="M400.591,300.59l-158.664-67.349c8.108-19.103,18.45-35.027,32.603-50.205L400.591,300.59z"/>
			</g>
		</g>
		<g>
			<g>
				<path fill="#E3AF24" d="M400.591,300.59l-169.748,29.931c-6.066-34.405-2.567-65.12,11.084-97.28L400.591,300.59z"/>
			</g>
		</g>
		<g>
			<g>
				<path fill="#768388" d="M400.591,300.59v172.366c-83.962,0-155.168-59.748-169.748-142.436L400.591,300.59z"/>
			</g>
		</g>
		<g>
			<g>
				<path fill="#A1624F" d="M400.591,300.59V128.224c95.195,0,172.366,77.171,172.366,172.366s-77.171,172.366-172.366,172.366
					c-0.952,0,0.952,0,0,0V300.59z"/>
			</g>
		</g>
	</g>
	<g>
		<g>
		</g>
		<g>
		</g>
		<g>
		</g>
		<g>
		</g>
		<g>
		</g>
		<g>
		</g>
		<g>
		</g>
		<g>
		</g>
	</g>
</g>
<circle fill="#C8DDD6" cx="400" cy="300" r="71"/>
</svg>
