<?xml version="1.0" encoding="utf-8"?>
<!-- Generator: Adobe Illustrator 15.0.0, SVG Export Plug-In . SVG Version: 6.00 Build 0)  -->
<!DOCTYPE svg PUBLIC "-//W3C//DTD SVG 1.1//EN" "http://www.w3.org/Graphics/SVG/1.1/DTD/svg11.dtd">
<svg version="1.1" id="Layer_1" xmlns="http://www.w3.org/2000/svg" xmlns:xlink="http://www.w3.org/1999/xlink" x="0px" y="0px"
	 width="800px" height="600px" viewBox="0 0 800 600" enable-background="new 0 0 800 600" xml:space="preserve">
<text transform="matrix(1 0 0 1 410.75 298.5215)" fill="#9D9488" font-family="'Georgia'" font-size="18">males</text>
<text transform="matrix(1 0 0 1 411.4521 368.1631)" fill="#D2A26D" font-family="'Georgia'" font-size="18">females</text>
<text transform="matrix(1 0 0 1 401.8262 278.3506)" fill="#85796A" font-family="'Georgia'" font-size="30">158</text>
<text transform="matrix(1 0 0 1 401.8262 350.3506)" fill="#C78B48" font-family="'Georgia'" font-size="30">109</text>
<path fill="none" stroke="#C78B48" stroke-width="12" d="M327.214,315.988c5.302,11.151,16.963,18.895,30.495,18.895
	c12.73,0,23.804-6.853,29.487-16.948"/>
<line fill="none" stroke="#85796A" stroke-width="12" x1="358.502" y1="221.131" x2="358.502" y2="267.288"/>
<line fill="none" stroke="#C78B48" stroke-width="12" x1="358.502" y1="339.188" x2="358.502" y2="389.782"/>
<line fill="none" stroke="#C78B48" stroke-width="12" x1="336.968" y1="365.159" x2="378.688" y2="365.159"/>
<path fill="none" stroke="#85796A" stroke-width="12" d="M387.153,318.074c2.584-4.75,4.051-10.195,4.051-15.983
	c0-18.501-14.998-33.499-33.5-33.499c-18.501,0-33.5,14.998-33.5,33.499c0,4.987,1.09,9.719,3.044,13.971"/>
<polyline fill="none" stroke="#85796A" stroke-width="13" points="333.844,243.601 357.828,220.092 381.812,243.601 "/>
<line fill="none" stroke="#DDDDCD" stroke-width="3" x1="321.872" y1="319.017" x2="333.115" y2="313.911"/>
<line fill="none" stroke="#DDDDCD" stroke-width="3" x1="381.934" y1="314.771" x2="392.776" y2="320.68"/>
</svg>
