<?xml version="1.0" encoding="utf-8"?>
<!-- Generator: Adobe Illustrator 15.0.0, SVG Export Plug-In . SVG Version: 6.00 Build 0)  -->
<!DOCTYPE svg PUBLIC "-//W3C//DTD SVG 1.1//EN" "http://www.w3.org/Graphics/SVG/1.1/DTD/svg11.dtd">
<svg version="1.1" id="Layer_1" xmlns="http://www.w3.org/2000/svg" xmlns:xlink="http://www.w3.org/1999/xlink" x="0px" y="0px"
	 width="800px" height="600px" viewBox="0 0 800 600" enable-background="new 0 0 800 600" xml:space="preserve">
<polygon fill="#8CA595" points="377.234,310.637 377.293,310.637 377.307,310.6 377.255,310.586 "/>
<polygon fill="#8CA595" points="377.275,311.005 377.362,311.026 377.389,310.933 377.29,310.912 "/>
<polygon fill="#8CA595" points="378.433,312.383 378.473,312.369 378.488,312.296 378.433,312.277 "/>
<polygon fill="#8CA595" points="378.472,314.1 378.468,314.218 378.542,314.229 378.565,314.1 378.542,314.063 "/>
<g>
	<defs>
		<rect id="SVGID_1_" x="377.234" y="304.369" width="46.245" height="47.649"/>
	</defs>
	<clipPath id="SVGID_2_">
		<use xlink:href="#SVGID_1_"  overflow="visible"/>
	</clipPath>
	<path clip-path="url(#SVGID_2_)" fill="#8CA595" d="M423.242,311.697c-0.112-0.033-1.252-0.392-1.559-0.48
		c-0.307-0.09-2.002-0.631-2.331-0.734c-0.331-0.104-1.852-0.621-2.087-0.709c0.037-0.221-0.071-0.34-0.091-0.371
		c-0.021-0.03-0.098-0.178-0.587-0.522c-0.487-0.344-1.352-0.713-1.464-0.753c-0.111-0.039-0.651-0.2-0.667-0.201
		c-0.017,0-0.046,0.018-0.057,0.024c-0.009,0.007-0.011,0.011-0.053-0.001c0.004-0.061-0.022-0.065-0.022-0.065
		s-2.846-0.271-2.875-0.267c-0.03,0.005-0.53,0.169-0.837,0.363c-0.248,0.144-0.363,0.413-0.363,0.413s-0.114,0.55-0.161,0.755
		c-0.046,0.204,0.049,0.313,0.049,0.313l-1.188,6.791l-0.113,0.092l-0.152,0.988c0,0-0.01,0.002-0.022,0.029
		c-0.22-0.021-0.476-0.034-0.751-0.034c-0.783,0-1.418,0.098-1.418,0.215c0,0.129,0.002,0.253,0.007,0.373
		c-0.71-0.23-2.376,0.27-2.376,0.27c-0.608-0.143-3.313,0.142-3.313,0.142c-1.08-0.641-2.975-0.497-2.975-0.497l-0.879-0.926
		c0-0.642-0.47-1.214-0.47-1.214c0-0.498-1.104-2.212-1.104-2.212c0.527,0,0.697-0.99,0.697-0.99l0.203-0.642
		c0.204-0.356,0.474-0.142,0.474-0.142c0.337,0.071,0.472-0.286,0.472-0.286l-0.071-0.998c0.274-0.069,0.274-1.425,0.274-1.425
		l0.133-1.068l0.542,0.072c0.066-0.427-0.812-1.495-0.812-1.495c-1.149-2.136-3.921-1.497-3.921-1.497
		c-1.556,0.072-3.042,3.92-3.042,3.92c-0.134,0.213,0.199,0.567,0.199,0.567l-0.47,0.288c-0.27-0.787-1.756,0.782-1.756,0.782
		c-1.625,1.21-4.057,4.272-4.057,4.272c-0.384,0.696-1.355,2.444-2.21,3.979c-0.516,0.295-2.739,1.608-3.53,2.791
		c-0.05,0.056-0.093,0.123-0.125,0.213c-0.158,0.305-0.207,0.596-0.086,0.852l0.013,0.027c0.164,3.12,3.287,11.149,3.287,11.149
		c0.203,0.541,0.691,0.933,1.352,1.215c-0.642,1.477-1.716,4.586-1.947,9.263c-0.338,6.765,0.61,0.141,0.61,0.141
		s0.936-6.693,2.081-9.149c1.51,0.412,3.554,0.441,5.335,0.35l0.296,1.166c-0.533,1.678-1.201,4.492-1.367,8.416
		c-0.288,6.769,0.515,0.143,0.515,0.143s0.503-4.227,1.198-7.194l1.067,4.203c0,0,0.201-0.425,0.069-2.136l-0.719-3.587
		c0.17-0.511,0.346-0.904,0.524-1.126c0.042-0.003,0.084-0.008,0.126-0.012c-0.012,0.013-0.02,0.023-0.02,0.023l0.116-0.033
		c1.225-0.118,2.067-0.253,2.067-0.253c0.353-0.038,0.63-0.207,0.809-0.429c0.025,0.002,0.049,0.004,0.075,0.008
		c0.044,0.167,0.065,0.278,0.065,0.278c0,0.354,0.778,1.955,1.233,2.861l1.147,5.331c0,0,0.176-0.427,0.061-2.136l-0.301-1.761
		c0.308,0.4,0.668,0.854,0.969,1.225v5.304l0.066,0.074h1.352l0.071-0.074v-3.427c0.227,0.249,0.409,0.439,0.409,0.439
		c-0.274,0.713,0.806,1.067,0.806,1.067c0.268,0,1.353,1.21,1.353,1.21c2.978,1.283,2.366-1.497,2.366-1.497
		c5.406-1.709-1.757-2.136-1.757-2.136c-0.609-0.284-0.204-1.636-0.204-1.636c0-0.571,0.475-7.552,0.475-7.552
		c0-0.927,0.338-4.487,0.338-4.487c0-1.562-2.884-1.806-3.785-1.843v-4.564l-0.072-0.073h20.554l-0.063,0.073v24.424l0.063,0.075
		h1.356l0.066-0.075v-24.423l-0.066-0.073h1.351l0.068-0.072v-0.928l-0.068-0.068h-4.539c0.007-0.038,0.007-0.089,0-0.137
		c-0.018-0.066-0.085-0.101-0.085-0.101s-0.915-0.386-0.834-0.396c0.081-0.01,0.201-0.141,0.201-0.141l2.167,0.076
		c0,0,0.096,0.055,0.194,0.118c0.086,0.057,0.172,0.123,0.209,0.131c0.077,0.017,0.385,0.025,0.426,0.032
		c0.042,0.005,0.04-0.031,0.04-0.031l0.026-0.212c0,0,0.877,0.049,0.978,0.046c0.1-0.002,0.098-0.076,0.098-0.076
		s0.083-0.487,0.171-0.998c0.096-0.553,0.196-1.132,0.196-1.132s-0.002-0.002,0.027-0.137c0.349-0.02,1.109,0.038,1.235,0.044
		c0.123,0.007,0.125-0.106,0.125-0.106s0.118-0.649,0.182-1.021s0.218-1.186,0.274-1.535c0.058-0.35,0.148-0.878,0.306-1.568
		s0.344-1.183,0.405-1.396C423.479,311.73,423.353,311.73,423.242,311.697 M410.801,319.221c0.148,0.09,0.547,0.293,0.559,0.301
		c0.013,0.008-0.063,0.024-0.091,0.034c-0.027,0.013-0.547,0.262-0.547,0.262s-0.216,0-0.473-0.05s-0.689-0.127-1.041-0.167
		c-0.036-0.005-0.063-0.007-0.095-0.01c0.051-0.271,0.091-0.584,0.122-0.885c0.159,0.116,0.248,0.13,0.293,0.149
		C409.579,318.878,410.588,319.166,410.801,319.221 M396.958,321.536v4.511c-0.513,0.009-1.097,0.032-1.592,0.057
		c-0.164-0.497-0.577-1.021-1.515-1.362c0.039-0.797-0.138-2.281-0.138-2.281c0.271-0.784,0.674-2.637,0.674-2.637h1.083
		c0.091,0.271,0.268,0.45,0.475,0.57h-0.338l-0.069,0.069v0.928l0.069,0.071h1.417L396.958,321.536z M406.59,320.394
		c0.144-0.124,0.169-0.285,0.169-0.285c0.045-0.012,0.081-0.029,0.118-0.044c0.07,0.174,0.123,0.256,0.123,0.256h1.825
		c0.108,0,0.198-0.267,0.271-0.632c0.012,0,0.028,0,0.039,0c0.194,0.002,0.778,0.1,1.098,0.159c0.164,0.031,0.335,0.033,0.335,0.033
		l-0.708,0.348c0,0-0.033,0.109-0.02,0.165H406.59z M416.049,319.685c0,0-0.049-0.062-0.007-0.062
		c0.046-0.001,0.204,0.004,0.204,0.004S416.147,319.697,416.049,319.685"/>
</g>
<g>
	<defs>
		<rect id="SVGID_3_" x="377.234" y="248.695" width="46.245" height="38.688"/>
	</defs>
	<clipPath id="SVGID_4_">
		<use xlink:href="#SVGID_3_"  overflow="visible"/>
	</clipPath>
	<path clip-path="url(#SVGID_4_)" fill="#A1624F" d="M409.438,276.47c2.003-1.114,1.744-5.402-0.577-9.584
		c-0.997-1.802-2.217-3.26-3.44-4.28c-1.428,1.046-3.167,1.682-5.062,1.682c-1.899,0-3.639-0.638-5.064-1.682
		c-1.223,1.02-2.444,2.478-3.444,4.28c-2.32,4.182-2.575,8.47-0.571,9.584c0.895,0.508,1.838,0.128,2.811-0.81
		c-0.171,0.949-0.271,1.979-0.271,3.056c0,4.794,1.859,8.668,4.149,8.668c1.381,0,2.063-1.412,2.392-3.57
		c0.327,2.143,1.012,3.57,2.384,3.57c2.278,0,4.153-3.875,4.153-8.668c0-1.077-0.101-2.107-0.273-3.056
		C407.599,276.598,408.541,276.986,409.438,276.47 M400.356,262.656c3.853,0,6.979-3.125,6.979-6.981s-3.127-6.98-6.979-6.98
		c-3.855,0-6.983,3.126-6.983,6.982C393.374,259.532,396.501,262.656,400.356,262.656 M414.379,267.083
		c3.162,0,5.73-2.566,5.73-5.731c0-3.164-2.566-5.733-5.73-5.733c-3.165,0-5.732,2.567-5.732,5.733
		C408.646,264.517,411.212,267.083,414.379,267.083 M421.362,270.557c-0.819-1.48-1.82-2.678-2.827-3.515
		c-1.17,0.858-2.601,1.381-4.152,1.381c-1.234,0-2.381-0.338-3.389-0.897c0.81,1.783,1.312,3.589,1.405,5.204
		c0.152,2.473-0.622,4.309-2.168,5.164c-0.333,0.191-0.695,0.299-1.065,0.365c-0.092,0.641-0.155,1.307-0.155,2.009
		c0,3.935,1.525,7.116,3.408,7.116c1.131,0,1.693-1.159,1.964-2.931c0.265,1.761,0.828,2.931,1.956,2.931
		c1.87,0,3.411-3.182,3.411-7.116c0-0.884-0.086-1.73-0.229-2.51c0.804,0.77,1.577,1.089,2.315,0.664
		C423.479,277.511,423.266,273.988,421.362,270.557 M386.333,267.083c3.165,0,5.731-2.566,5.731-5.731
		c0-3.164-2.566-5.733-5.731-5.733c-3.164,0-5.733,2.567-5.733,5.733C380.601,264.517,383.169,267.083,386.333,267.083
		 M390.471,277.888c-2.599-1.444-2.838-5.751-0.746-10.368c-1.01,0.565-2.157,0.903-3.391,0.903c-1.559,0-2.988-0.525-4.158-1.381
		c-1.005,0.837-2.005,2.035-2.828,3.515c-1.904,3.433-2.113,6.954-0.467,7.865c0.735,0.42,1.508,0.105,2.306-0.664
		c-0.14,0.783-0.222,1.626-0.222,2.51c0,3.935,1.526,7.116,3.407,7.116c1.133,0,1.696-1.159,1.965-2.931
		c0.269,1.761,0.83,2.931,1.959,2.931c1.87,0,3.409-3.182,3.409-7.116c0-0.704-0.066-1.372-0.159-2.012
		C391.178,278.189,390.812,278.084,390.471,277.888"/>
</g>
</svg>
