<?xml version="1.0" encoding="utf-8"?>
<!-- Generator: Adobe Illustrator 15.0.0, SVG Export Plug-In . SVG Version: 6.00 Build 0)  -->
<!DOCTYPE svg PUBLIC "-//W3C//DTD SVG 1.1//EN" "http://www.w3.org/Graphics/SVG/1.1/DTD/svg11.dtd">
<svg version="1.1" id="Layer_1" xmlns="http://www.w3.org/2000/svg" xmlns:xlink="http://www.w3.org/1999/xlink" x="0px" y="0px"
	 width="800px" height="600px" viewBox="0 0 800 600" enable-background="new 0 0 800 600" xml:space="preserve">
<g>
	<defs>
		<rect id="SVGID_1_" x="377.234" y="281.012" width="46.245" height="38.688"/>
	</defs>
	<clipPath id="SVGID_2_">
		<use xlink:href="#SVGID_1_"  overflow="visible"/>
	</clipPath>
	<path clip-path="url(#SVGID_2_)" fill="#A1624F" d="M409.438,308.787c2.003-1.114,1.744-5.402-0.577-9.584
		c-0.997-1.802-2.217-3.26-3.44-4.28c-1.428,1.046-3.167,1.682-5.062,1.682c-1.899,0-3.639-0.638-5.064-1.682
		c-1.223,1.02-2.444,2.478-3.444,4.28c-2.32,4.182-2.575,8.47-0.571,9.584c0.895,0.508,1.838,0.128,2.811-0.81
		c-0.171,0.948-0.271,1.979-0.271,3.056c0,4.794,1.859,8.668,4.149,8.668c1.381,0,2.063-1.412,2.392-3.57
		c0.327,2.144,1.012,3.57,2.384,3.57c2.278,0,4.153-3.875,4.153-8.668c0-1.077-0.101-2.107-0.273-3.056
		C407.599,308.915,408.541,309.303,409.438,308.787 M400.356,294.973c3.853,0,6.979-3.125,6.979-6.981s-3.127-6.98-6.979-6.98
		c-3.855,0-6.983,3.126-6.983,6.982C393.374,291.849,396.501,294.973,400.356,294.973 M414.379,299.4c3.162,0,5.73-2.566,5.73-5.731
		c0-3.164-2.566-5.733-5.73-5.733c-3.165,0-5.732,2.567-5.732,5.733C408.646,296.834,411.212,299.4,414.379,299.4 M421.362,302.874
		c-0.819-1.479-1.82-2.678-2.827-3.515c-1.17,0.858-2.601,1.381-4.152,1.381c-1.234,0-2.381-0.338-3.389-0.897
		c0.81,1.783,1.312,3.588,1.405,5.204c0.152,2.474-0.622,4.31-2.168,5.164c-0.333,0.191-0.695,0.299-1.065,0.365
		c-0.092,0.641-0.155,1.307-0.155,2.009c0,3.936,1.525,7.116,3.408,7.116c1.131,0,1.693-1.159,1.964-2.931
		c0.265,1.761,0.828,2.931,1.956,2.931c1.87,0,3.411-3.182,3.411-7.116c0-0.884-0.086-1.729-0.229-2.51
		c0.804,0.77,1.577,1.089,2.315,0.664C423.479,309.828,423.266,306.305,421.362,302.874 M386.333,299.4
		c3.165,0,5.731-2.566,5.731-5.731c0-3.164-2.566-5.733-5.731-5.733c-3.164,0-5.733,2.567-5.733,5.733
		C380.601,296.834,383.169,299.4,386.333,299.4 M390.471,310.205c-2.599-1.444-2.838-5.751-0.746-10.368
		c-1.01,0.565-2.157,0.903-3.391,0.903c-1.559,0-2.988-0.525-4.158-1.381c-1.005,0.837-2.005,2.035-2.828,3.515
		c-1.904,3.433-2.113,6.954-0.467,7.865c0.735,0.42,1.508,0.104,2.306-0.664c-0.14,0.783-0.222,1.626-0.222,2.51
		c0,3.936,1.526,7.116,3.407,7.116c1.133,0,1.696-1.159,1.965-2.931c0.269,1.761,0.83,2.931,1.959,2.931
		c1.87,0,3.409-3.182,3.409-7.116c0-0.704-0.066-1.372-0.159-2.012C391.178,310.506,390.812,310.401,390.471,310.205"/>
</g>
</svg>
