<?xml version="1.0" encoding="utf-8"?>
<!-- Generator: Adobe Illustrator 15.0.0, SVG Export Plug-In . SVG Version: 6.00 Build 0)  -->
<!DOCTYPE svg PUBLIC "-//W3C//DTD SVG 1.1//EN" "http://www.w3.org/Graphics/SVG/1.1/DTD/svg11.dtd">
<svg version="1.1" id="Layer_1" xmlns="http://www.w3.org/2000/svg" xmlns:xlink="http://www.w3.org/1999/xlink" x="0px" y="0px"
	 width="800px" height="600px" viewBox="0 0 800 600" enable-background="new 0 0 800 600" xml:space="preserve">
<polygon fill="#8CA595" points="389.059,229.941 389.118,229.941 389.132,229.905 389.08,229.891 "/>
<polygon fill="#8CA595" points="389.101,230.311 389.188,230.333 389.213,230.238 389.115,230.217 "/>
<polygon fill="#8CA595" points="390.258,231.688 390.298,231.674 390.313,231.601 390.258,231.583 "/>
<polygon fill="#8CA595" points="390.297,233.406 390.292,233.524 390.368,233.534 390.391,233.406 390.368,233.369 "/>
<g>
	<defs>
		<rect id="SVGID_1_" x="389.059" y="223.674" width="46.245" height="47.65"/>
	</defs>
	<clipPath id="SVGID_2_">
		<use xlink:href="#SVGID_1_"  overflow="visible"/>
	</clipPath>
	<path clip-path="url(#SVGID_2_)" fill="#8CA595" d="M435.066,231.003c-0.111-0.033-1.252-0.391-1.558-0.48
		c-0.307-0.09-2.002-0.631-2.331-0.735c-0.331-0.104-1.852-0.621-2.087-0.709c0.037-0.22-0.071-0.34-0.091-0.371
		c-0.021-0.03-0.098-0.178-0.587-0.522c-0.487-0.344-1.352-0.713-1.464-0.753c-0.111-0.039-0.651-0.2-0.667-0.201
		c-0.017,0-0.046,0.017-0.057,0.024c-0.009,0.007-0.011,0.011-0.053-0.001c0.004-0.06-0.023-0.065-0.023-0.065
		s-2.845-0.271-2.875-0.267c-0.029,0.005-0.529,0.169-0.837,0.363c-0.248,0.144-0.362,0.413-0.362,0.413s-0.114,0.55-0.161,0.755
		c-0.046,0.204,0.049,0.314,0.049,0.314l-1.188,6.791l-0.112,0.092l-0.152,0.988c0,0-0.01,0.002-0.022,0.029
		c-0.22-0.021-0.476-0.033-0.751-0.033c-0.783,0-1.418,0.097-1.418,0.214c0,0.129,0.002,0.253,0.007,0.373
		c-0.71-0.231-2.376,0.269-2.376,0.269c-0.608-0.142-3.313,0.142-3.313,0.142c-1.08-0.641-2.975-0.497-2.975-0.497l-0.879-0.926
		c0-0.641-0.471-1.214-0.471-1.214c0-0.498-1.104-2.212-1.104-2.212c0.527,0,0.697-0.99,0.697-0.99l0.202-0.641
		c0.204-0.357,0.475-0.142,0.475-0.142c0.337,0.071,0.472-0.286,0.472-0.286l-0.071-0.998c0.274-0.07,0.274-1.424,0.274-1.424
		l0.133-1.069l0.542,0.072c0.066-0.427-0.812-1.495-0.812-1.495c-1.149-2.136-3.921-1.497-3.921-1.497
		c-1.557,0.072-3.042,3.92-3.042,3.92c-0.135,0.212,0.198,0.567,0.198,0.567l-0.47,0.288c-0.27-0.786-1.756,0.782-1.756,0.782
		c-1.625,1.21-4.057,4.273-4.057,4.273c-0.384,0.696-1.355,2.444-2.21,3.979c-0.516,0.295-2.739,1.609-3.53,2.791
		c-0.05,0.056-0.093,0.123-0.125,0.213c-0.158,0.305-0.207,0.596-0.086,0.852l0.013,0.027c0.164,3.12,3.287,11.149,3.287,11.149
		c0.203,0.541,0.691,0.933,1.352,1.215c-0.642,1.477-1.716,4.586-1.947,9.263c-0.338,6.765,0.61,0.141,0.61,0.141
		s0.936-6.694,2.081-9.15c1.51,0.412,3.554,0.442,5.334,0.35l0.296,1.166c-0.532,1.678-1.201,4.492-1.367,8.416
		c-0.288,6.768,0.515,0.142,0.515,0.142s0.503-4.226,1.198-7.194l1.066,4.203c0,0,0.201-0.425,0.069-2.135l-0.719-3.587
		c0.17-0.511,0.346-0.905,0.523-1.126c0.042-0.003,0.084-0.008,0.126-0.012c-0.012,0.013-0.02,0.023-0.02,0.023l0.116-0.033
		c1.225-0.118,2.066-0.253,2.066-0.253c0.354-0.038,0.63-0.207,0.81-0.429c0.024,0.002,0.049,0.004,0.075,0.008
		c0.044,0.167,0.064,0.279,0.064,0.279c0,0.354,0.778,1.955,1.233,2.861l1.146,5.331c0,0,0.176-0.427,0.062-2.136l-0.302-1.76
		c0.309,0.4,0.668,0.853,0.97,1.224v5.304l0.065,0.074h1.353l0.07-0.074v-3.427c0.228,0.249,0.409,0.44,0.409,0.44
		c-0.273,0.712,0.807,1.067,0.807,1.067c0.268,0,1.353,1.21,1.353,1.21c2.977,1.283,2.366-1.497,2.366-1.497
		c5.406-1.709-1.757-2.136-1.757-2.136c-0.609-0.284-0.204-1.636-0.204-1.636c0-0.571,0.475-7.551,0.475-7.551
		c0-0.927,0.338-4.488,0.338-4.488c0-1.562-2.884-1.805-3.785-1.843v-4.564l-0.071-0.073h20.554l-0.064,0.073v24.424l0.064,0.075
		h1.356l0.066-0.075v-24.423l-0.066-0.073h1.351l0.068-0.072v-0.928l-0.068-0.069h-4.539c0.007-0.038,0.007-0.088,0-0.136
		c-0.018-0.067-0.085-0.101-0.085-0.101s-0.915-0.386-0.834-0.396c0.081-0.01,0.201-0.141,0.201-0.141l2.167,0.076
		c0,0,0.096,0.055,0.193,0.118c0.087,0.057,0.173,0.123,0.209,0.131c0.078,0.017,0.386,0.026,0.427,0.032
		c0.042,0.005,0.04-0.031,0.04-0.031l0.026-0.212c0,0,0.877,0.049,0.978,0.046c0.1-0.002,0.098-0.076,0.098-0.076
		s0.083-0.487,0.171-0.998c0.096-0.553,0.196-1.132,0.196-1.132s-0.002-0.002,0.027-0.137c0.349-0.019,1.109,0.038,1.235,0.044
		c0.123,0.007,0.125-0.106,0.125-0.106s0.118-0.65,0.182-1.022c0.063-0.372,0.218-1.185,0.274-1.535
		c0.058-0.349,0.148-0.878,0.306-1.568c0.157-0.691,0.344-1.183,0.405-1.396C435.304,231.036,435.178,231.036,435.066,231.003
		 M422.626,238.527c0.147,0.089,0.547,0.293,0.559,0.3c0.013,0.008-0.063,0.025-0.091,0.035c-0.028,0.012-0.547,0.261-0.547,0.261
		s-0.216,0-0.473-0.05c-0.258-0.049-0.689-0.127-1.041-0.167c-0.036-0.004-0.063-0.006-0.095-0.009
		c0.051-0.272,0.091-0.584,0.122-0.885c0.159,0.116,0.248,0.13,0.293,0.149C421.404,238.184,422.413,238.472,422.626,238.527
		 M408.783,240.842v4.511c-0.514,0.009-1.098,0.032-1.593,0.056c-0.163-0.497-0.576-1.021-1.515-1.362
		c0.039-0.797-0.138-2.281-0.138-2.281c0.271-0.784,0.674-2.637,0.674-2.637h1.083c0.091,0.271,0.268,0.45,0.475,0.57h-0.338
		l-0.068,0.07v0.927l0.068,0.072h1.417L408.783,240.842z M418.415,239.699c0.144-0.124,0.169-0.284,0.169-0.284
		c0.045-0.012,0.081-0.03,0.118-0.045c0.069,0.174,0.123,0.256,0.123,0.256h1.824c0.109,0,0.199-0.266,0.272-0.632
		c0.012,0,0.028,0,0.039,0c0.194,0.002,0.778,0.1,1.098,0.16c0.164,0.031,0.335,0.033,0.335,0.033l-0.708,0.347
		c0,0-0.033,0.11-0.02,0.165H418.415z M427.874,238.99c0,0-0.049-0.061-0.007-0.062c0.046-0.001,0.204,0.004,0.204,0.004
		S427.973,239.003,427.874,238.99"/>
</g>
<g>
	<defs>
		<rect id="SVGID_3_" x="389.059" y="338.349" width="46.245" height="38.689"/>
	</defs>
	<clipPath id="SVGID_4_">
		<use xlink:href="#SVGID_3_"  overflow="visible"/>
	</clipPath>
	<path clip-path="url(#SVGID_4_)" fill="#A1624F" d="M421.263,366.125c2.003-1.114,1.744-5.402-0.577-9.584
		c-0.997-1.802-2.217-3.26-3.44-4.28c-1.428,1.046-3.167,1.682-5.062,1.682c-1.899,0-3.639-0.638-5.063-1.682
		c-1.224,1.021-2.444,2.479-3.444,4.28c-2.32,4.182-2.575,8.47-0.571,9.584c0.896,0.508,1.838,0.128,2.812-0.811
		c-0.171,0.95-0.271,1.979-0.271,3.057c0,4.794,1.859,8.668,4.149,8.668c1.381,0,2.063-1.412,2.392-3.57
		c0.327,2.143,1.012,3.57,2.384,3.57c2.278,0,4.153-3.875,4.153-8.668c0-1.077-0.101-2.106-0.274-3.057
		C419.424,366.253,420.365,366.641,421.263,366.125 M412.182,352.311c3.852,0,6.979-3.125,6.979-6.98c0-3.856-3.128-6.98-6.979-6.98
		c-3.855,0-6.983,3.126-6.983,6.982C405.198,349.187,408.326,352.311,412.182,352.311 M426.204,356.738
		c3.161,0,5.73-2.566,5.73-5.731c0-3.164-2.567-5.733-5.73-5.733c-3.165,0-5.732,2.567-5.732,5.733
		C420.472,354.172,423.037,356.738,426.204,356.738 M433.188,360.212c-0.82-1.48-1.821-2.678-2.827-3.515
		c-1.17,0.857-2.601,1.381-4.152,1.381c-1.234,0-2.382-0.338-3.389-0.897c0.81,1.783,1.312,3.589,1.405,5.204
		c0.152,2.473-0.622,4.309-2.168,5.164c-0.333,0.191-0.695,0.299-1.066,0.365c-0.091,0.641-0.154,1.307-0.154,2.009
		c0,3.935,1.525,7.116,3.408,7.116c1.131,0,1.693-1.159,1.964-2.932c0.265,1.762,0.828,2.932,1.956,2.932
		c1.869,0,3.41-3.183,3.41-7.116c0-0.884-0.086-1.73-0.229-2.51c0.804,0.77,1.577,1.089,2.315,0.664
		C435.304,367.166,435.091,363.643,433.188,360.212 M398.159,356.738c3.165,0,5.731-2.566,5.731-5.731
		c0-3.164-2.566-5.733-5.731-5.733c-3.164,0-5.733,2.567-5.733,5.733C392.426,354.172,394.995,356.738,398.159,356.738
		 M402.296,367.543c-2.599-1.444-2.838-5.751-0.746-10.368c-1.01,0.565-2.157,0.903-3.391,0.903c-1.559,0-2.988-0.525-4.158-1.381
		c-1.005,0.837-2.005,2.034-2.828,3.515c-1.904,3.433-2.113,6.954-0.467,7.865c0.735,0.42,1.508,0.104,2.306-0.664
		c-0.14,0.783-0.222,1.626-0.222,2.51c0,3.935,1.526,7.116,3.407,7.116c1.133,0,1.696-1.159,1.965-2.932
		c0.269,1.762,0.83,2.932,1.959,2.932c1.869,0,3.408-3.183,3.408-7.116c0-0.704-0.065-1.372-0.158-2.012
		C403.003,367.844,402.638,367.739,402.296,367.543"/>
</g>
<g>
	<defs>
		<rect id="SVGID_5_" x="365.116" y="295.141" width="70.481" height="15.681"/>
	</defs>
	<clipPath id="SVGID_6_">
		<use xlink:href="#SVGID_5_"  overflow="visible"/>
	</clipPath>
	<path clip-path="url(#SVGID_6_)" fill="#B6A691" d="M434.85,299.081c-1.619-0.84-3.426-1.252-3.516-1.32
		c-1.536-1.202-2.58-1.209-2.702-1.211c-1.649-0.036-9.021,0.924-9.021,0.924s-0.317-0.344-0.368-0.339s-0.189-0.008-0.153,0.048
		c0.04,0.057,0.134,0.335,0.016,0.352c-8.449,1.184-12.769,2.64-12.856,2.649c-5.317,0.606-6.059,0.881-6.261,0.827
		c-0.328-0.083-7.479-1.894-7.592-1.909c-0.113-0.017-0.742,0.052-0.812-0.006c-0.13-0.11-3.093-1.444-3.239-1.431
		c-0.084,0.009-1.356,0.038-1.229,0.143c0.585,0.482,1.585,1.843,1.891,1.8c0.307-0.045,1.729,0.623,1.729,0.623l0.484,0.045
		c0,0-0.453,0.125-0.212,0.139c0.244,0.012,3.001,1.366,2.984,1.366c-0.122,0.008-8.842,1.137-8.842,1.137s-0.089-0.248-0.228-0.235
		c-0.137,0.014-0.114,0.271-0.114,0.271s-0.463,0.032-0.772,0.068c-0.648,0.075-2.666-0.146-3.054-0.422
		c-0.284-0.203-11.549-7.105-11.841-7.303c-0.232-0.156-2.749,0.224-4.025,0.405c1.021,1.611,4.923,8.414,4.923,8.414
		c-1.197-0.066-2.663,0.122-2.783,0.132c-0.232,0.021,0.013,0.155,0.013,0.155s1.599,0.941,1.543,0.969
		c-0.14,0.073-0.17,0.52-0.17,0.52l-0.115,0.01l0.057,0.664l0.138-0.014c0.057,0.398,0.74,0.754,1.244,0.782
		c0.147,0.006,2.501,0.182,3.063,0.219c0.347,0.021,7.985,0.598,7.985,0.598l-0.084,0.194c0.279,0.065,0.39-0.153,0.39-0.153
		c0.424,0.005,5.686,0.427,7.305,0.503c1.442,0.064,4.552-0.176,4.552-0.176l-0.023,0.218c0.197-0.017,0.334-0.247,0.334-0.247
		l2.235-0.241l0.019,0.397c0.109-0.02,0.333-0.428,0.333-0.428c0.067-0.014,0.469-0.041,0.469-0.041l0.034,0.368
		c0,0,0.286-0.051,0.414-0.002c0.122,0.05,2.263,0.251,2.263,0.251v0.119l-0.161,0.103l2.424-0.181l0.041,0.177l0.16-0.031
		l0.005,0.164c-0.511,0.552-0.544,0.668-0.522,0.812c0.06,0.375,0.224,0.464,0.418,0.53c0.15,0.057,0.22,0.046,0.355,0.02
		c0.312-0.052,0.608-0.525,0.608-0.525s0.144-0.082,0.173-0.016c0.073,0.165,0.197,0.158,0.353,0.183
		c0.105,0.019,0.227,0.003,0.347-0.054c0.131-0.062,0.783-0.699,0.755-1.022c-0.044-0.516-0.523-0.507-0.53-0.566
		c-0.018-0.18,0.599-0.63,0.599-0.63v-0.388l0.427-0.057l0.059,0.667c-0.165,0.023-0.358,0.929-0.349,1.049
		c0.011,0.118,0.038,0.608,0.038,0.608c-0.091,0.043-0.279,0.188-0.252,0.472c0.053,0.596,0.499,0.591,0.629,0.58
		c0.386-0.024,0.674-0.448,0.655-0.679c-0.012-0.128-0.042-0.311,0.018-0.275c0.147,0.08,0.261,0.038,0.424,0.022
		c0.225-0.021,0.556-0.456,0.538-0.66c-0.008-0.087-0.017-0.26-0.072-0.339c-0.142-0.194,0.049-0.246,0.236-0.264
		c0.331-0.03,0.496-0.516,0.584-0.498c0.088,0.019,1.465,0,1.465,0l0.04,0.246l-0.195,0.036l0.02,0.135c0,0,1.711-0.165,1.866-0.18
		c2.138-0.216,2.154-0.493,2.154-0.493l-0.021-1.453c0.245-0.022,4.163-0.764,4.163-0.764l-0.035,0.373
		c0.309-0.026,0.375-0.458,0.434-0.469c0.873-0.172,5.33-0.745,5.579-0.768c1.78-0.157,5.764-1.101,5.764-1.101l0.076,0.535
		l-0.346,0.394l0.023,0.169l0.429-0.018c0,0,0.193,0.619,0.126,0.634c-0.068,0.015-0.604,0.198-0.556,0.756
		c0.043,0.47,0.613,0.496,0.698,0.49c0.479-0.043,0.697-0.518,0.681-0.714c-0.022-0.258-0.263-0.343-0.232-0.455
		c0.086-0.31-0.245-0.93-0.245-0.93l0.121-0.086l-0.046-0.42l0.481-0.231l-0.061-0.453c3.767-1.201,5.03-2.298,5.308-2.535
		c0.472-0.404,0.694-0.63,0.662-0.99C435.534,299.443,434.984,299.153,434.85,299.081"/>
</g>
</svg>
