<?xml version="1.0" encoding="utf-8"?>
<!-- Generator: Adobe Illustrator 15.0.0, SVG Export Plug-In . SVG Version: 6.00 Build 0)  -->
<!DOCTYPE svg PUBLIC "-//W3C//DTD SVG 1.1//EN" "http://www.w3.org/Graphics/SVG/1.1/DTD/svg11.dtd">
<svg version="1.1" id="Layer_1" xmlns="http://www.w3.org/2000/svg" xmlns:xlink="http://www.w3.org/1999/xlink" x="0px" y="0px"
	 width="800px" height="600px" viewBox="0 0 800 600" enable-background="new 0 0 800 600" xml:space="preserve">
<g>
	<defs>
		<rect id="SVGID_1_" x="377.234" y="214.428" width="46.245" height="38.689"/>
	</defs>
	<clipPath id="SVGID_2_">
		<use xlink:href="#SVGID_1_"  overflow="visible"/>
	</clipPath>
	<path clip-path="url(#SVGID_2_)" fill="#A1624F" d="M409.438,242.204c2.003-1.114,1.744-5.402-0.577-9.584
		c-0.997-1.802-2.217-3.26-3.44-4.28c-1.428,1.046-3.167,1.682-5.062,1.682c-1.899,0-3.639-0.638-5.064-1.682
		c-1.223,1.02-2.444,2.478-3.444,4.28c-2.32,4.182-2.575,8.47-0.571,9.584c0.895,0.508,1.838,0.128,2.811-0.81
		c-0.171,0.949-0.271,1.979-0.271,3.056c0,4.794,1.859,8.668,4.149,8.668c1.381,0,2.063-1.412,2.392-3.57
		c0.327,2.143,1.012,3.57,2.384,3.57c2.278,0,4.153-3.875,4.153-8.668c0-1.077-0.101-2.107-0.273-3.056
		C407.599,242.332,408.541,242.719,409.438,242.204 M400.356,228.39c3.853,0,6.979-3.125,6.979-6.981c0-3.856-3.127-6.98-6.979-6.98
		c-3.855,0-6.983,3.126-6.983,6.982C393.374,225.266,396.501,228.39,400.356,228.39 M414.379,232.816c3.162,0,5.73-2.566,5.73-5.731
		c0-3.164-2.566-5.733-5.73-5.733c-3.165,0-5.732,2.567-5.732,5.733C408.646,230.25,411.212,232.816,414.379,232.816
		 M421.362,236.291c-0.819-1.48-1.82-2.678-2.827-3.515c-1.17,0.858-2.601,1.381-4.152,1.381c-1.234,0-2.381-0.338-3.389-0.897
		c0.81,1.783,1.312,3.589,1.405,5.204c0.152,2.473-0.622,4.309-2.168,5.164c-0.333,0.191-0.695,0.299-1.065,0.365
		c-0.092,0.641-0.155,1.307-0.155,2.009c0,3.935,1.525,7.116,3.408,7.116c1.131,0,1.693-1.159,1.964-2.931
		c0.265,1.761,0.828,2.931,1.956,2.931c1.87,0,3.411-3.182,3.411-7.116c0-0.884-0.086-1.73-0.229-2.51
		c0.804,0.77,1.577,1.089,2.315,0.664C423.479,243.245,423.266,239.721,421.362,236.291 M386.333,232.816
		c3.165,0,5.731-2.566,5.731-5.731c0-3.164-2.566-5.733-5.731-5.733c-3.164,0-5.733,2.567-5.733,5.733
		C380.601,230.25,383.169,232.816,386.333,232.816 M390.471,243.622c-2.599-1.444-2.838-5.751-0.746-10.368
		c-1.01,0.565-2.157,0.903-3.391,0.903c-1.559,0-2.988-0.525-4.158-1.381c-1.005,0.837-2.005,2.035-2.828,3.515
		c-1.904,3.433-2.113,6.954-0.467,7.865c0.735,0.42,1.508,0.105,2.306-0.664c-0.14,0.783-0.222,1.626-0.222,2.51
		c0,3.935,1.526,7.116,3.407,7.116c1.133,0,1.696-1.159,1.965-2.931c0.269,1.761,0.83,2.931,1.959,2.931
		c1.87,0,3.409-3.182,3.409-7.116c0-0.704-0.066-1.372-0.159-2.012C391.178,243.922,390.812,243.817,390.471,243.622"/>
</g>
<g>
	<defs>
		<rect id="SVGID_3_" x="377.234" y="267.462" width="46.245" height="51.858"/>
	</defs>
	<clipPath id="SVGID_4_">
		<use xlink:href="#SVGID_3_"  overflow="visible"/>
	</clipPath>
	<path clip-path="url(#SVGID_4_)" fill="#384445" d="M396.255,291.331H380.87c-2.009,0-3.635,1.627-3.635,3.636v20.717
		c0,2.009,1.626,3.637,3.635,3.637h15.385c2.007,0,3.635-1.628,3.635-3.637v-20.717C399.89,292.958,398.262,291.331,396.255,291.331
		 M387.047,314.473c0,0.669-0.542,1.211-1.212,1.211h-4.239c-0.67,0-1.21-0.542-1.21-1.211v-3.635c0-0.669,0.54-1.211,1.21-1.211
		h4.239c0.67,0,1.212,0.542,1.212,1.211V314.473z M387.047,305.992c0,0.669-0.542,1.211-1.212,1.211h-4.239
		c-0.67,0-1.21-0.542-1.21-1.211v-3.636c0-0.67,0.54-1.212,1.21-1.212h4.239c0.67,0,1.212,0.542,1.212,1.212V305.992z
		 M387.047,298.722c0,0.669-0.542,1.21-1.212,1.21h-4.239c-0.67,0-1.21-0.541-1.21-1.21v-3.635c0-0.669,0.54-1.211,1.21-1.211h4.239
		c0.67,0,1.212,0.542,1.212,1.211V298.722z M396.74,314.473c0,0.669-0.542,1.211-1.212,1.211h-4.242
		c-0.67,0-1.214-0.542-1.214-1.211v-3.635c0-0.669,0.544-1.211,1.214-1.211h4.242c0.67,0,1.212,0.542,1.212,1.211V314.473z
		 M396.74,305.992c0,0.669-0.542,1.211-1.212,1.211h-4.242c-0.67,0-1.214-0.542-1.214-1.211v-3.636c0-0.67,0.544-1.212,1.214-1.212
		h4.242c0.67,0,1.212,0.542,1.212,1.212V305.992z M396.74,298.722c0,0.669-0.542,1.21-1.212,1.21h-4.242
		c-0.67,0-1.214-0.541-1.214-1.21v-3.635c0-0.669,0.544-1.211,1.214-1.211h4.242c0.67,0,1.212,0.542,1.212,1.211V298.722z"/>
	<path clip-path="url(#SVGID_4_)" fill="#384445" d="M423.479,291.817v-20.72c0-2.007-1.628-3.635-3.636-3.635h-15.387
		c-2.007,0-3.632,1.628-3.632,3.635v20.72v3.15v20.717c0,2.009,1.625,3.637,3.632,3.637h15.387c2.008,0,3.636-1.628,3.636-3.637
		v-20.717V291.817z M413.662,271.218c0-0.67,0.543-1.211,1.213-1.211h4.242c0.67,0,1.211,0.541,1.211,1.211v3.634
		c0,0.67-0.541,1.213-1.211,1.213h-4.242c-0.67,0-1.213-0.543-1.213-1.213V271.218z M413.662,278.488
		c0-0.67,0.543-1.213,1.213-1.213h4.242c0.67,0,1.211,0.543,1.211,1.213v3.634c0,0.669-0.541,1.212-1.211,1.212h-4.242
		c-0.67,0-1.213-0.543-1.213-1.212V278.488z M413.662,286.97c0-0.671,0.543-1.212,1.213-1.212h4.242c0.67,0,1.211,0.541,1.211,1.212
		v3.634c0,0.67-0.541,1.213-1.211,1.213h-4.242c-0.67,0-1.213-0.543-1.213-1.213V286.97z M403.971,271.218
		c0-0.67,0.546-1.211,1.212-1.211h4.241c0.669,0,1.209,0.541,1.209,1.211v3.634c0,0.67-0.54,1.213-1.209,1.213h-4.241
		c-0.666,0-1.212-0.543-1.212-1.213V271.218z M403.971,278.488c0-0.67,0.546-1.213,1.212-1.213h4.241
		c0.669,0,1.209,0.543,1.209,1.213v3.634c0,0.669-0.54,1.212-1.209,1.212h-4.241c-0.666,0-1.212-0.543-1.212-1.212V278.488z
		 M403.971,286.97c0-0.671,0.546-1.212,1.212-1.212h4.241c0.669,0,1.209,0.541,1.209,1.212v3.634c0,0.67-0.54,1.213-1.209,1.213
		h-4.241c-0.666,0-1.212-0.543-1.212-1.213V286.97z M410.633,314.473c0,0.669-0.54,1.211-1.209,1.211h-4.241
		c-0.666,0-1.212-0.542-1.212-1.211v-3.635c0-0.669,0.546-1.211,1.212-1.211h4.241c0.669,0,1.209,0.542,1.209,1.211V314.473z
		 M410.633,305.992c0,0.669-0.54,1.211-1.209,1.211h-4.241c-0.666,0-1.212-0.542-1.212-1.211v-3.636c0-0.67,0.546-1.212,1.212-1.212
		h4.241c0.669,0,1.209,0.542,1.209,1.212V305.992z M410.633,298.722c0,0.669-0.54,1.21-1.209,1.21h-4.241
		c-0.666,0-1.212-0.541-1.212-1.21v-3.635c0-0.669,0.546-1.211,1.212-1.211h4.241c0.669,0,1.209,0.542,1.209,1.211V298.722z
		 M420.328,314.473c0,0.669-0.541,1.211-1.211,1.211h-4.242c-0.67,0-1.213-0.542-1.213-1.211v-3.635
		c0-0.669,0.543-1.211,1.213-1.211h4.242c0.67,0,1.211,0.542,1.211,1.211V314.473z M420.328,305.992
		c0,0.669-0.541,1.211-1.211,1.211h-4.242c-0.67,0-1.213-0.542-1.213-1.211v-3.636c0-0.67,0.543-1.212,1.213-1.212h4.242
		c0.67,0,1.211,0.542,1.211,1.212V305.992z M420.328,298.722c0,0.669-0.541,1.21-1.211,1.21h-4.242c-0.67,0-1.213-0.541-1.213-1.21
		v-3.635c0-0.669,0.543-1.211,1.213-1.211h4.242c0.67,0,1.211,0.542,1.211,1.211V298.722z"/>
</g>
<g>
	<defs>
		<rect id="SVGID_5_" x="377.234" y="336.15" width="46.245" height="46.374"/>
	</defs>
	<clipPath id="SVGID_6_">
		<use xlink:href="#SVGID_5_"  overflow="visible"/>
	</clipPath>
	<path clip-path="url(#SVGID_6_)" fill="#627749" d="M398.036,375.512c-10.235,0-18.562-8.327-18.562-18.561
		c0-10.235,8.327-18.562,18.562-18.562c10.234,0,18.561,8.327,18.561,18.562c0,1.485-0.18,2.93-0.512,4.316l2.179,0.522
		c0.37-1.555,0.573-3.172,0.573-4.839c0-11.488-9.313-20.803-20.801-20.803c-11.489,0-20.802,9.314-20.802,20.803
		c0,11.486,9.313,20.8,20.802,20.8c1.434,0,2.833-0.146,4.185-0.421l-0.459-2.193C400.557,375.383,399.311,375.512,398.036,375.512"
		/>
	<path clip-path="url(#SVGID_6_)" fill="#627749" d="M398.037,339.833c-9.455,0-17.118,7.663-17.118,17.118
		c0,9.452,7.663,17.116,17.118,17.116c1.174,0,2.321-0.119,3.43-0.343l-3.519-16.802l2.346,0.562
		c-0.263-0.306-0.43-0.699-0.43-1.136c0-0.964,0.783-1.746,1.747-1.746c0.966,0,1.746,0.782,1.746,1.746
		c0,0.726-0.443,1.349-1.075,1.611l12.401,2.971c0.306-1.278,0.47-2.609,0.47-3.98C415.152,347.496,407.489,339.833,398.037,339.833
		 M387.684,348.549c1.384,0,2.505,1.121,2.505,2.505c0,1.383-1.121,2.503-2.505,2.503c-1.382,0-2.503-1.12-2.503-2.503
		C385.181,349.67,386.302,348.549,387.684,348.549 M387.485,364.689c-1.752,0-3.172-1.42-3.172-3.171
		c0-1.753,1.42-3.172,3.172-3.172s3.172,1.419,3.172,3.172C390.657,363.27,389.237,364.689,387.485,364.689 M395.316,351.054
		c1.17,0,2.119,0.948,2.119,2.118c0,1.171-0.949,2.119-2.119,2.119s-2.119-0.948-2.119-2.119
		C393.197,352.002,394.146,351.054,395.316,351.054 M393.221,361.257c0-1.155,0.938-2.095,2.095-2.095
		c1.157,0,2.095,0.939,2.095,2.095c0,1.157-0.938,2.097-2.095,2.097C394.159,363.354,393.221,362.414,393.221,361.257
		 M399.795,369.265c0,1.316-1.067,2.384-2.384,2.384c-1.316,0-2.383-1.067-2.383-2.384s1.067-2.384,2.383-2.384
		C398.728,366.881,399.795,367.948,399.795,369.265 M398.041,348.633c-1.646,0-2.98-1.332-2.98-2.979c0-1.647,1.334-2.98,2.98-2.98
		s2.979,1.333,2.979,2.98C401.021,347.301,399.687,348.633,398.041,348.633 M403.356,347.682c0-1.157,0.938-2.096,2.096-2.096
		c1.156,0,2.095,0.938,2.095,2.096c0,1.156-0.938,2.095-2.095,2.095C404.295,349.776,403.356,348.838,403.356,347.682
		 M409.184,357.938c-1.582,0-2.864-1.283-2.864-2.865s1.282-2.865,2.864-2.865s2.864,1.283,2.864,2.865
		S410.766,357.938,409.184,357.938"/>
	<path clip-path="url(#SVGID_6_)" fill="#627749" d="M421.299,366.435c-1.658,6.982-7.268,12.451-14.329,13.897l0.459,2.192
		c7.919-1.618,14.194-7.736,16.05-15.566L421.299,366.435z"/>
	<path clip-path="url(#SVGID_6_)" fill="#627749" d="M419.896,366.099l-12.367-2.962c-0.218,0.097-0.457,0.154-0.711,0.154
		c-0.544,0-1.025-0.255-1.345-0.646l-2.326-0.558l3.524,16.831C413.199,377.591,418.37,372.55,419.896,366.099 M414.964,365.249
		c0.96,0,1.739,0.778,1.739,1.738s-0.779,1.739-1.739,1.739s-1.738-0.779-1.738-1.739S414.004,365.249,414.964,365.249
		 M408.253,371.948c-1.649,0-2.986-1.337-2.986-2.985s1.337-2.986,2.986-2.986s2.985,1.338,2.985,2.986
		S409.902,371.948,408.253,371.948"/>
</g>
</svg>
