<?xml version="1.0" encoding="utf-8"?>
<!-- Generator: Adobe Illustrator 15.0.0, SVG Export Plug-In . SVG Version: 6.00 Build 0)  -->
<!DOCTYPE svg PUBLIC "-//W3C//DTD SVG 1.1//EN" "http://www.w3.org/Graphics/SVG/1.1/DTD/svg11.dtd">
<svg version="1.1" id="Layer_1" xmlns="http://www.w3.org/2000/svg" xmlns:xlink="http://www.w3.org/1999/xlink" x="0px" y="0px"
	 width="800px" height="600px" viewBox="0 0 800 600" enable-background="new 0 0 800 600" xml:space="preserve">
<g>
	<defs>
		<rect id="SVGID_1_" x="247.903" y="148.688" width="300.968" height="302.735"/>
	</defs>
	<clipPath id="SVGID_2_">
		<use xlink:href="#SVGID_1_"  overflow="visible"/>
	</clipPath>
	<path clip-path="url(#SVGID_2_)" fill="#BBBB9B" d="M411.785,289.467c5.786,5.786,5.786,15.171,0,20.958
		c-5.787,5.787-15.172,5.787-20.959,0c-5.786-5.787-5.786-15.172,0-20.958C396.613,283.68,405.998,283.68,411.785,289.467"/>
	<path clip-path="url(#SVGID_2_)" fill="#BBBB9B" d="M388.498,287.138c7.062-7.063,18.553-7.063,25.616,0
		c7.063,7.06,7.063,18.552,0,25.615c-7.062,7.063-18.554,7.063-25.616,0C381.435,305.69,381.435,294.198,388.498,287.138
		 M376.854,275.494c-13.483,13.483-13.483,35.421,0,48.903c13.483,13.48,35.421,13.48,48.904,0c13.48-13.482,13.48-35.42,0-48.903
		C412.274,262.011,390.336,262.011,376.854,275.494"/>
	<path clip-path="url(#SVGID_2_)" fill="#BBBB9B" d="M374.525,273.166c14.767-14.768,38.794-14.768,53.561,0
		c14.768,14.767,14.768,38.793,0,53.56c-14.767,14.768-38.794,14.768-53.561,0C359.757,311.959,359.757,287.933,374.525,273.166
		 M362.881,261.522c-21.188,21.186-21.188,55.659,0,76.848c21.188,21.187,55.661,21.187,76.849,0
		c21.187-21.189,21.187-55.662,0-76.848C418.542,240.334,384.069,240.334,362.881,261.522"/>
	<path clip-path="url(#SVGID_2_)" fill="#BBBB9B" d="M360.553,259.193c22.471-22.471,59.035-22.471,81.506,0
		c22.469,22.471,22.469,59.034,0,81.505c-22.471,22.47-59.035,22.47-81.506,0C338.082,318.228,338.082,281.665,360.553,259.193
		 M348.909,247.549c-28.891,28.892-28.891,75.9,0,104.793c28.892,28.891,75.901,28.891,104.793,0
		c28.891-28.894,28.891-75.901,0-104.793C424.81,218.656,377.801,218.656,348.909,247.549"/>
	<path clip-path="url(#SVGID_2_)" fill="#BBBB9B" d="M346.58,245.221c30.175-30.175,79.274-30.175,109.451,0
		c30.175,30.175,30.175,79.274,0,109.45c-30.177,30.175-79.276,30.175-109.451,0C316.405,324.495,316.405,275.396,346.58,245.221
		 M334.937,233.577c-36.596,36.597-36.596,96.141,0,132.738c36.596,36.594,96.141,36.594,132.737,0
		c36.596-36.598,36.596-96.142,0-132.738C431.078,196.982,371.533,196.982,334.937,233.577"/>
	<path clip-path="url(#SVGID_2_)" fill="#BBBB9B" d="M332.608,231.249c37.88-37.88,99.516-37.88,137.395,0
		c37.879,37.879,37.879,99.515,0,137.395c-37.879,37.879-99.515,37.879-137.395,0C294.729,330.764,294.729,269.128,332.608,231.249
		 M320.965,219.604c-44.3,44.3-44.3,116.382,0,160.684c44.299,44.301,116.38,44.301,160.681,0
		c44.302-44.302,44.302-116.383,0-160.684C437.345,175.305,365.264,175.305,320.965,219.604"/>
</g>
<g>
	<defs>
		<polygon id="SVGID_3_" points="436.757,350.259 388.533,392.233 405.64,400.33 453.664,352.305 401.304,299.945 		"/>
	</defs>
	<clipPath id="SVGID_4_">
		<use xlink:href="#SVGID_3_"  overflow="visible"/>
	</clipPath>
	<path clip-path="url(#SVGID_4_)" fill="#DB8C41" d="M360.553,259.194c-22.47,22.469-22.47,59.033,0.001,81.505
		c22.47,22.47,59.034,22.47,81.505,0c22.47-22.473,22.47-59.034,0-81.505C419.587,236.722,383.024,236.722,360.553,259.194
		 M428.086,326.726c-14.767,14.768-38.793,14.768-53.56,0c-14.768-14.767-14.768-38.795-0.001-53.56
		c14.768-14.768,38.794-14.768,53.561,0C442.853,287.933,442.854,311.957,428.086,326.726"/>
</g>
<g>
	<defs>
		<rect id="SVGID_5_" x="247.903" y="148.688" width="300.968" height="302.735"/>
	</defs>
	<clipPath id="SVGID_6_">
		<use xlink:href="#SVGID_5_"  overflow="visible"/>
	</clipPath>
	<path clip-path="url(#SVGID_6_)" fill="#DB8C41" d="M548.793,237.497c0,4.547-3.687,8.234-8.232,8.234
		c-4.549,0-8.233-3.687-8.233-8.234c0-4.547,3.685-8.234,8.233-8.234C545.106,229.263,548.793,232.95,548.793,237.497"/>
	
		<line clip-path="url(#SVGID_6_)" fill="none" stroke="#DB8C41" stroke-width="1.647" stroke-miterlimit="10" x1="440.904" y1="340.731" x2="540.657" y2="237.498"/>
	<path clip-path="url(#SVGID_6_)" fill="#DEDECE" d="M544.266,237.497c0,2.047-1.659,3.704-3.704,3.704
		c-2.048,0-3.707-1.657-3.707-3.704c0-2.047,1.659-3.704,3.707-3.704C542.606,233.793,544.266,235.45,544.266,237.497"/>
</g>
<g>
	<defs>
		<polygon id="SVGID_7_" points="385.407,396.699 274.996,306.373 334.938,366.315 398.03,429.407 464.398,363.039 401.304,299.945 
					"/>
	</defs>
	<clipPath id="SVGID_8_">
		<use xlink:href="#SVGID_7_"  overflow="visible"/>
	</clipPath>
	<path clip-path="url(#SVGID_8_)" fill="#90819B" d="M346.58,245.221c-30.175,30.175-30.175,79.273,0,109.45
		c30.175,30.176,79.273,30.176,109.451,0c30.175-30.177,30.175-79.275,0-109.45C425.854,215.046,376.755,215.046,346.58,245.221
		 M442.059,340.698c-22.472,22.47-59.035,22.47-81.506,0c-22.471-22.471-22.471-59.034,0-81.505
		c22.471-22.472,59.035-22.472,81.506,0C464.527,281.664,464.527,318.228,442.059,340.698"/>
</g>
<g>
	<defs>
		<rect id="SVGID_9_" x="247.903" y="148.688" width="300.968" height="302.735"/>
	</defs>
	<clipPath id="SVGID_10_">
		<use xlink:href="#SVGID_9_"  overflow="visible"/>
	</clipPath>
	<path clip-path="url(#SVGID_10_)" fill="#90819B" d="M548.597,265.638c0,4.546-3.687,8.233-8.232,8.233
		c-4.548,0-8.233-3.687-8.233-8.233c0-4.546,3.686-8.233,8.233-8.233C544.91,257.405,548.597,261.092,548.597,265.638"/>
	
		<line clip-path="url(#SVGID_10_)" fill="none" stroke="#90819B" stroke-width="1.647" stroke-miterlimit="10" x1="454.876" y1="354.704" x2="540.462" y2="265.639"/>
	<path clip-path="url(#SVGID_10_)" fill="#DEDECE" d="M544.068,265.638c0,2.048-1.657,3.704-3.703,3.704
		c-2.048,0-3.707-1.656-3.707-3.704c0-2.047,1.659-3.704,3.707-3.704C542.411,261.935,544.068,263.591,544.068,265.638"/>
</g>
<g>
	<defs>
		<polygon id="SVGID_11_" points="262.483,205.917 249.601,296.839 328.583,375.82 404.186,451.423 405.9,451.423 479.342,377.983 
			401.304,299.945 278.239,239.073 291.143,156.784 		"/>
	</defs>
	<clipPath id="SVGID_12_">
		<use xlink:href="#SVGID_11_"  overflow="visible"/>
	</clipPath>
	<path clip-path="url(#SVGID_12_)" fill="#82A796" d="M332.608,231.249c-37.88,37.879-37.878,99.515,0,137.395
		c37.88,37.879,99.515,37.881,137.395,0c37.881-37.881,37.879-99.516,0-137.395C432.123,193.369,370.488,193.368,332.608,231.249
		 M456.031,354.671c-30.178,30.175-79.276,30.175-109.452,0c-30.175-30.176-30.175-79.275,0-109.45
		c30.175-30.175,79.274-30.175,109.452,0C486.206,275.396,486.206,324.495,456.031,354.671"/>
</g>
<g>
	<defs>
		<rect id="SVGID_13_" x="247.903" y="148.688" width="300.968" height="302.735"/>
	</defs>
	<clipPath id="SVGID_14_">
		<use xlink:href="#SVGID_13_"  overflow="visible"/>
	</clipPath>
	<path clip-path="url(#SVGID_14_)" fill="#82A796" d="M548.57,293.603c0,4.547-3.688,8.233-8.234,8.233s-8.232-3.687-8.232-8.233
		c0-4.546,3.686-8.233,8.232-8.233S548.57,289.056,548.57,293.603"/>
	
		<line clip-path="url(#SVGID_14_)" fill="none" stroke="#82A796" stroke-width="1.647" stroke-miterlimit="10" x1="468.844" y1="368.672" x2="540.436" y2="293.602"/>
	<path clip-path="url(#SVGID_14_)" fill="#DEDECE" d="M544.042,293.603c0,2.048-1.659,3.704-3.705,3.704s-3.706-1.656-3.706-3.704
		c0-2.047,1.66-3.704,3.706-3.704S544.042,291.555,544.042,293.603"/>
</g>
<g>
	<defs>
		<polygon id="SVGID_15_" points="358.332,148.688 266.183,223.891 281.767,233.234 247.903,267.098 247.903,325.645 
			311.754,389.496 373.682,451.423 440.832,451.423 496.807,395.448 413.642,312.284 281.767,233.234 308.18,206.821 
			366.313,148.688 		"/>
	</defs>
	<clipPath id="SVGID_16_">
		<use xlink:href="#SVGID_15_"  overflow="visible"/>
	</clipPath>
	<path clip-path="url(#SVGID_16_)" fill="#C87C6B" d="M318.635,217.276c-45.584,45.586-45.584,119.756,0,165.34
		c45.585,45.584,120.031,47.408,165.616,1.824c45.583-45.583,45.309-121.578-0.275-167.165
		C438.391,171.692,364.219,171.692,318.635,217.276 M470.002,368.644c-37.879,37.879-99.515,37.879-137.395,0
		c-37.878-37.88-37.878-99.517,0-137.396c37.88-37.88,99.516-37.88,137.395,0C507.88,269.127,507.882,330.764,470.002,368.644"/>
</g>
<g>
	<defs>
		<rect id="SVGID_17_" x="247.903" y="148.688" width="300.968" height="302.735"/>
	</defs>
	<clipPath id="SVGID_18_">
		<use xlink:href="#SVGID_17_"  overflow="visible"/>
	</clipPath>
	<path clip-path="url(#SVGID_18_)" fill="#C87C6B" d="M548.812,321.319c0,4.546-3.687,8.233-8.233,8.233
		c-4.548,0-8.232-3.688-8.232-8.233c0-4.547,3.685-8.234,8.232-8.234C545.125,313.085,548.812,316.772,548.812,321.319"/>
	
		<line clip-path="url(#SVGID_18_)" fill="none" stroke="#C87C6B" stroke-width="1.647" stroke-miterlimit="10" x1="482.878" y1="382.598" x2="540.677" y2="321.32"/>
	<path clip-path="url(#SVGID_18_)" fill="#DEDECE" d="M544.283,321.319c0,2.047-1.659,3.704-3.704,3.704
		c-2.046,0-3.706-1.657-3.706-3.704c0-2.048,1.66-3.705,3.706-3.705C542.624,317.614,544.283,319.271,544.283,321.319"/>
	<path clip-path="url(#SVGID_18_)" fill="#718489" d="M548.521,350.259c0,4.546-3.687,8.232-8.232,8.232
		c-4.548,0-8.233-3.687-8.233-8.232c0-4.547,3.686-8.234,8.233-8.234C544.835,342.024,548.521,345.713,548.521,350.259"/>
	
		<line clip-path="url(#SVGID_18_)" fill="none" stroke="#718489" stroke-width="1.647" stroke-miterlimit="10" x1="495.356" y1="397.756" x2="540.387" y2="349.246"/>
	<path clip-path="url(#SVGID_18_)" fill="#DEDECE" d="M543.994,350.259c0,2.047-1.658,3.704-3.704,3.704
		c-2.047,0-3.706-1.657-3.706-3.704c0-2.048,1.66-3.705,3.706-3.705S543.994,348.211,543.994,350.259"/>
</g>
<g>
	<defs>
		<polygon id="SVGID_19_" points="332.885,148.688 291.502,190.071 247.903,233.669 247.903,356.642 295.697,404.437 
			342.682,451.423 472.85,451.423 512.855,411.42 415.264,313.83 521.993,207.098 466.384,148.688 		"/>
	</defs>
	<clipPath id="SVGID_20_">
		<use xlink:href="#SVGID_19_"  overflow="visible"/>
	</clipPath>
	<path clip-path="url(#SVGID_20_)" fill="#718489" d="M301.702,202.487c-53.799,53.801-53.798,141.338,0,195.136
		c53.8,53.799,141.203,53.715,195.002-0.084c53.799-53.797,53.94-141.251,0.142-195.052
		C443.047,148.688,355.5,148.688,301.702,202.487 M482.071,384.44c-44.448,44.449-120.386,39.545-164.836-4.903
		c-44.449-44.45-42.34-116.084,1.421-161.213c43.832-45.201,118.941-46.115,164.599-0.456
		C527.707,262.319,526.521,339.992,482.071,384.44"/>
</g>
<g>
	<defs>
		<polygon id="SVGID_21_" points="425.594,334.184 401.984,358.229 430.787,329.425 401.41,300.049 		"/>
	</defs>
	<clipPath id="SVGID_22_">
		<use xlink:href="#SVGID_21_"  overflow="visible"/>
	</clipPath>
	<path clip-path="url(#SVGID_22_)" fill="#F5B000" d="M428.191,273.27c-14.769-14.769-38.795-14.767-53.562,0
		c-14.765,14.766-14.766,38.793,0,53.56c14.768,14.766,38.794,14.766,53.562,0C442.957,312.063,442.958,288.038,428.191,273.27
		 M414.218,287.241c7.062,7.062,7.062,18.553,0,25.617c-7.062,7.062-18.553,7.062-25.617,0c-7.061-7.063-7.061-18.555,0-25.617
		C395.665,280.18,407.156,280.18,414.218,287.241"/>
</g>
<g>
	<defs>
		<rect id="SVGID_23_" x="247.903" y="148.688" width="300.968" height="302.735"/>
	</defs>
	<clipPath id="SVGID_24_">
		<use xlink:href="#SVGID_23_"  overflow="visible"/>
	</clipPath>
	<path clip-path="url(#SVGID_24_)" fill="#F5B000" d="M548.871,209.375c0,4.546-3.688,8.233-8.234,8.233s-8.232-3.687-8.232-8.233
		s3.686-8.233,8.232-8.233S548.871,204.83,548.871,209.375"/>
	
		<line clip-path="url(#SVGID_24_)" fill="none" stroke="#F5B000" stroke-width="1.647" stroke-miterlimit="10" x1="426.882" y1="326.709" x2="540.735" y2="209.375"/>
	<path clip-path="url(#SVGID_24_)" fill="#DEDECE" d="M544.342,209.375c0,2.048-1.658,3.704-3.704,3.704s-3.706-1.656-3.706-3.704
		c0-2.047,1.66-3.704,3.706-3.704S544.342,207.329,544.342,209.375"/>
</g>
<g>
	<defs>
		<rect id="SVGID_25_" x="247.903" y="148.688" width="300.968" height="302.735"/>
	</defs>
	<clipPath id="SVGID_26_">
		<use xlink:href="#SVGID_25_"  overflow="visible"/>
	</clipPath>
	<defs>
		<filter id="Adobe_OpacityMaskFilter" filterUnits="userSpaceOnUse" x="402.481" y="204.367" width="108.839" height="110.233">
			<feColorMatrix  type="matrix" values="1 0 0 0 0  0 1 0 0 0  0 0 1 0 0  0 0 0 1 0"/>
		</filter>
	</defs>
	<mask maskUnits="userSpaceOnUse" x="402.481" y="204.367" width="108.839" height="110.233" id="SVGID_27_">
		<g filter="url(#Adobe_OpacityMaskFilter)">
			<rect x="402.481" y="204.367" clip-path="url(#SVGID_26_)" width="108.839" height="110.232"/>
			<g enable-background="new    ">
				<g>
					<defs>
						<polygon id="SVGID_28_" points="402.481,299.905 415.042,314.599 511.32,218.321 497.965,204.367 						"/>
					</defs>
					<clipPath id="SVGID_29_" clip-path="url(#SVGID_26_)">
						<use xlink:href="#SVGID_28_"  overflow="visible"/>
					</clipPath>
					
						<linearGradient id="SVGID_30_" gradientUnits="userSpaceOnUse" x1="0.0747" y1="600.0586" x2="1.0746" y2="600.0586" gradientTransform="matrix(-13.4315 -13.4122 -13.4122 13.4315 8512.6357 -7792.6309)">
						<stop  offset="0" style="stop-color:#FFFFFF"/>
						<stop  offset="0.3782" style="stop-color:#9A9A9A"/>
						<stop  offset="0.8083" style="stop-color:#2C2C2C"/>
						<stop  offset="1" style="stop-color:#000000"/>
					</linearGradient>
					<polygon clip-path="url(#SVGID_29_)" fill="url(#SVGID_30_)" points="456.979,369.019 347.365,259.562 456.822,149.948 
						566.436,259.404 					"/>
				</g>
			</g>
		</g>
	</mask>
	<g clip-path="url(#SVGID_26_)" mask="url(#SVGID_27_)">
		<g>
			<defs>
				<rect id="SVGID_31_" x="402.481" y="204.367" width="108.839" height="110.231"/>
			</defs>
			<clipPath id="SVGID_32_">
				<use xlink:href="#SVGID_31_"  overflow="visible"/>
			</clipPath>
			<polygon clip-path="url(#SVGID_32_)" fill="#8D8D74" points="415.836,314.6 402.481,300.646 498.76,204.367 511.32,219.061 			
				"/>
		</g>
	</g>
</g>
</svg>
