<?xml version="1.0" encoding="utf-8"?>
<!-- Generator: Adobe Illustrator 15.0.0, SVG Export Plug-In . SVG Version: 6.00 Build 0)  -->
<!DOCTYPE svg PUBLIC "-//W3C//DTD SVG 1.1//EN" "http://www.w3.org/Graphics/SVG/1.1/DTD/svg11.dtd">
<svg version="1.1" id="Layer_1" xmlns="http://www.w3.org/2000/svg" xmlns:xlink="http://www.w3.org/1999/xlink" x="0px" y="0px"
	 width="841.89px" height="595.28px" viewBox="0 0 841.89 595.28" enable-background="new 0 0 841.89 595.28" xml:space="preserve">
<path fill="#6AA640" d="M349.353,259.237c-17.533,8.383-28.415,24.28-27.811,38.764c0.486,11.612,9.5,26.01,24.404,34.874
	c-18.228,0.556-29.068-21.655-28.621-32.419c-2.6,12.52,1.939,36.144,25.967,44.678c7.916,2.811,22.713,3.246,29.32-1.514
	c11.424-8.228,6.825-19.558-2.578-27.276c-10.891-8.938-20.444-14.855-25.936-26.987C340.37,281.121,339.028,270.85,349.353,259.237
	"/>
<path fill="#92BB3B" d="M358.699,297.957c-15.427-15.813-12.205-26.504-2.339-40.205c4.595-6.381,9.13-12.755,8.367-21.073
	c23.484,25.07,1.52,33.258,13.054,46.088c1.631-7.077,6.612-14.474,13.565-19.798c-1.928,19.917,4.642,20.542,10.416,32.809
	c8.91,18.925-3.418,39.925-21.816,48.669c7.812-7.67,8.622-18.206-0.576-28.576C374.69,310.594,366.203,305.647,358.699,297.957"/>
</svg>
