<?xml version="1.0" encoding="utf-8"?>
<!-- Generator: Adobe Illustrator 15.0.0, SVG Export Plug-In . SVG Version: 6.00 Build 0)  -->
<!DOCTYPE svg PUBLIC "-//W3C//DTD SVG 1.1//EN" "http://www.w3.org/Graphics/SVG/1.1/DTD/svg11.dtd">
<svg version="1.1" id="Layer_1" xmlns="http://www.w3.org/2000/svg" xmlns:xlink="http://www.w3.org/1999/xlink" x="0px" y="0px"
	 width="800px" height="600px" viewBox="0 0 800 600" enable-background="new 0 0 800 600" xml:space="preserve">
<g>
	<polygon fill="#FFFFFF" points="375.225,265.55 428.816,265.55 428.816,261.55 371.225,261.55 371.225,297.546 375.225,297.546 	
		"/>
	<polygon fill="#FFFFFF" points="382.423,272.716 436.018,272.716 436.018,268.749 378.424,268.749 378.424,304.744 
		382.423,304.744 	"/>
	<path fill="#FFFFFF" d="M385.624,275.915v35.996h57.591v-35.996H385.624z M440.016,308.711h-51.193v-29.597h51.193V308.711z"/>
	<path fill="#FFFFFF" d="M397.09,296.49c0.255,0,1.026-0.94,1.026-2.65s-0.771-2.649-1.026-2.649c-0.256,0-1.027,0.939-1.027,2.649
		S396.834,296.49,397.09,296.49z"/>
	<path fill="#FFFFFF" d="M431.785,296.49c0.254,0,1.027-0.94,1.027-2.65s-0.773-2.649-1.027-2.649c-0.258,0-1.029,0.939-1.029,2.649
		S431.527,296.49,431.785,296.49z"/>
	<path fill="#FFFFFF" d="M403.871,293.84c0-5.304,2.193-9.919,5.434-12.325h-18.083v24.797h18.286
		C406.156,303.949,403.871,299.254,403.871,293.84z M394.462,293.84c0-2.347,1.175-4.249,2.628-4.249
		c1.45,0,2.627,1.902,2.627,4.249s-1.177,4.25-2.627,4.25C395.637,298.09,394.462,296.187,394.462,293.84z"/>
	<path fill="#FFFFFF" d="M419.535,281.515c3.238,2.406,5.434,7.021,5.434,12.325c0,5.414-2.287,10.109-5.637,12.472h18.283v-24.797
		H419.535z M431.785,289.591c1.451,0,2.627,1.902,2.627,4.249s-1.176,4.25-2.627,4.25s-2.629-1.903-2.629-4.25
		S430.334,289.591,431.785,289.591z"/>
	<path fill="#FFFFFF" d="M413.643,302.765v1.145c0,0.434,0.078,0.51,0.535,0.51h0.51c0.457,0,0.533-0.076,0.533-0.51v-1.145
		c1.682-0.279,4.453-1.451,4.453-4.988c0-3.258-2.799-4.353-4.453-5.167v-4.708c1.094,0,2.75,1.018,2.9,1.018
		c0.104,0,0.18-0.076,0.23-0.202l0.787-1.731c0.053-0.102,0.078-0.179,0.078-0.28c0-0.864-3.258-1.425-3.996-1.476v-1.248
		c0-0.433-0.076-0.508-0.533-0.508h-0.51c-0.457,0-0.535,0.075-0.535,0.508v1.248c-1.17,0.051-4.479,1.119-4.479,4.861
		c0,3.358,2.928,4.249,4.479,4.938v4.987c-1.551-0.179-3.258-1.171-3.41-1.171c-0.102,0-0.203,0.152-0.23,0.203l-0.736,2.139
		c-0.051,0.152-0.051,0.152-0.051,0.229C409.215,302.179,412.777,302.765,413.643,302.765z M412.092,289.886
		c0-1.5,1.221-1.856,1.729-1.984v4.148C413.26,291.795,412.092,291.261,412.092,289.886z M415.043,295.612
		c0.586,0.307,1.705,0.84,1.705,2.316c0,1.399-0.967,1.883-1.705,2.087V295.612z"/>
</g>
</svg>
