<?xml version="1.0" encoding="UTF-8" standalone="no"?>
<!-- Generator: Adobe Illustrator 15.0.0, SVG Export Plug-In . SVG Version: 6.00 Build 0)  -->

<svg
   xmlns:dc="http://purl.org/dc/elements/1.1/"
   xmlns:cc="http://creativecommons.org/ns#"
   xmlns:rdf="http://www.w3.org/1999/02/22-rdf-syntax-ns#"
   xmlns:svg="http://www.w3.org/2000/svg"
   xmlns="http://www.w3.org/2000/svg"
   xmlns:sodipodi="http://sodipodi.sourceforge.net/DTD/sodipodi-0.dtd"
   xmlns:inkscape="http://www.inkscape.org/namespaces/inkscape"
   version="1.1"
   id="Layer_1"
   x="0px"
   y="0px"
   width="20px"
   height="20px"
   viewBox="0 0 49.249001 49.248001"
   enable-background="new 0 0 800 600"
   xml:space="preserve"
   inkscape:version="0.48+devel r11876"
   sodipodi:docname="blog.svg"><metadata
     id="metadata876"><rdf:RDF><cc:Work
         rdf:about=""><dc:format>image/svg+xml</dc:format><dc:type
           rdf:resource="http://purl.org/dc/dcmitype/StillImage" /><dc:title></dc:title></cc:Work></rdf:RDF></metadata><defs
     id="defs874" /><sodipodi:namedview
     pagecolor="#ffffff"
     bordercolor="#666666"
     borderopacity="1"
     objecttolerance="10"
     gridtolerance="10"
     guidetolerance="10"
     inkscape:pageopacity="0"
     inkscape:pageshadow="2"
     inkscape:window-width="1198"
     inkscape:window-height="948"
     id="namedview872"
     showgrid="false"
     fit-margin-top="0"
     fit-margin-left="0"
     fit-margin-right="0"
     fit-margin-bottom="0"
     inkscape:zoom="0.87"
     inkscape:cx="8.955"
     inkscape:cy="-10.994001"
     inkscape:window-x="0"
     inkscape:window-y="19"
     inkscape:window-maximized="0"
     inkscape:current-layer="Layer_1" /><g
     id="g864"
     transform="translate(-391.045,-239.758)"><path
       d="M 421.208,267.145 411.823,267.145 C 410.942,267.145 410.229,267.852 410.229,268.729 410.229,269.59 410.942,270.317 411.823,270.317 L 421.208,270.317 C 422.085,270.317 422.795,269.59 422.795,268.729 422.795,267.852 422.085,267.145 421.208,267.145 Z"
       id="path866"
       inkscape:connector-curvature="0"
       style="fill:#8ca595" /><path
       d="M 411.823,260.791 416.443,260.791 C 417.323,260.791 418.038,260.066 418.038,259.195 418.038,258.322 417.323,257.603 416.443,257.603 L 411.823,257.603 C 410.942,257.603 410.229,258.322 410.229,259.195 410.229,260.066 410.942,260.791 411.823,260.791 Z"
       id="path868"
       inkscape:connector-curvature="0"
       style="fill:#8ca595" /><path
       d="M 415.67,239.758 C 402.069,239.758 391.045,250.781 391.045,264.381 391.045,277.981 402.069,289.006 415.67,289.006 429.271,289.006 440.294,277.981 440.294,264.381 440.294,250.781 429.271,239.758 415.67,239.758 Z M 429.618,268.852 C 429.593,273.426 425.87,277.172 421.288,277.172 L 411.718,277.172 C 407.136,277.172 403.391,273.426 403.391,268.852 L 403.391,259.131 C 403.391,254.547 407.136,250.793 411.718,250.793 L 417.542,250.793 C 419.694,251.049 422.823,252.891 423.978,255.342 424.294,256.028 424.462,256.135 424.725,258.172 424.867,259.221 424.939,259.996 425.408,260.426 426.066,261.026 428.517,260.623 429.001,261 L 429.373,261.291 429.594,261.75 429.671,262.117 429.618,268.852 Z"
       id="path870"
       inkscape:connector-curvature="0"
       style="fill:#8ca595" /></g></svg>
