<?xml version="1.0" encoding="UTF-8" standalone="no"?>
<!-- Generator: Adobe Illustrator 15.0.0, SVG Export Plug-In . SVG Version: 6.00 Build 0)  -->

<svg
   xmlns:dc="http://purl.org/dc/elements/1.1/"
   xmlns:cc="http://creativecommons.org/ns#"
   xmlns:rdf="http://www.w3.org/1999/02/22-rdf-syntax-ns#"
   xmlns:svg="http://www.w3.org/2000/svg"
   xmlns="http://www.w3.org/2000/svg"
   xmlns:xlink="http://www.w3.org/1999/xlink"
   xmlns:sodipodi="http://sodipodi.sourceforge.net/DTD/sodipodi-0.dtd"
   xmlns:inkscape="http://www.inkscape.org/namespaces/inkscape"
   version="1.1"
   id="Layer_1"
   x="0px"
   y="0px"
   width="266.45599"
   height="150.23709"
   viewBox="0 0 266.45599 150.23709"
   enable-background="new 0 0 800 600"
   xml:space="preserve"
   inkscape:version="0.48+devel r11876"
   sodipodi:docname="fellow.svg"><metadata
     id="metadata43"><rdf:RDF><cc:Work
         rdf:about=""><dc:format>image/svg+xml</dc:format><dc:type
           rdf:resource="http://purl.org/dc/dcmitype/StillImage" /><dc:title></dc:title></cc:Work></rdf:RDF></metadata><defs
     id="defs41" /><sodipodi:namedview
     pagecolor="#ffffff"
     bordercolor="#666666"
     borderopacity="1"
     objecttolerance="10"
     gridtolerance="10"
     guidetolerance="10"
     inkscape:pageopacity="0"
     inkscape:pageshadow="2"
     inkscape:window-width="1198"
     inkscape:window-height="1899"
     id="namedview39"
     showgrid="false"
     fit-margin-top="0"
     fit-margin-left="0"
     fit-margin-right="0"
     fit-margin-bottom="0"
     inkscape:zoom="0.39333333"
     inkscape:cx="-343.14411"
     inkscape:cy="77.085007"
     inkscape:window-x="0"
     inkscape:window-y="19"
     inkscape:window-maximized="0"
     inkscape:current-layer="Layer_1" /><g
     id="g3"
     transform="translate(-265.17801,-226.84792)"><defs
       id="defs5"><rect
         id="SVGID_1_"
         x="265.17801"
         y="224.912"
         width="108.975"
         height="152.173" /></defs><clipPath
       id="SVGID_2_"><use
         xlink:href="#SVGID_1_"
         overflow="visible"
         id="use9"
         style="overflow:visible"
         x="0"
         y="0"
         width="800"
         height="600" /></clipPath><path
       clip-path="url(#SVGID_2_)"
       d="M 330.601,305.723 C 328.459,308.55 324.368,310.461 319.665,310.461 314.963,310.461 310.872,308.55 308.732,305.723 309.045,309.98 313.812,313.364 319.665,313.364 325.521,313.363 330.287,309.979 330.601,305.723"
       id="path11"
       inkscape:connector-curvature="0"
       style="fill:#718489" /><path
       clip-path="url(#SVGID_2_)"
       d="M 312.27,286.188 C 312.27,283.869 310.387,281.989 308.067,281.989 305.75,281.989 303.87,283.869 303.87,286.188 303.87,288.507 305.75,290.386 308.067,290.386 310.387,290.386 312.27,288.506 312.27,286.188"
       id="path13"
       inkscape:connector-curvature="0"
       style="fill:#718489" /><path
       clip-path="url(#SVGID_2_)"
       d="M 331.265,290.385 C 333.584,290.385 335.464,288.507 335.464,286.187 335.464,283.868 333.584,281.988 331.265,281.988 328.946,281.988 327.066,283.868 327.066,286.187 327.066,288.507 328.946,290.385 331.265,290.385"
       id="path15"
       inkscape:connector-curvature="0"
       style="fill:#718489" /><path
       clip-path="url(#SVGID_2_)"
       d="M 344.998,323.022 336.191,323.022 336.191,316.216 C 337.986,314.883 339.63,313.362 341.055,311.643 341.641,311.532 342.489,311.354 343.488,311.11 342.546,313.123 339.13,321.064 343.999,320.815 348.969,320.56 345.281,312.599 344.419,310.872 347.473,310.06 351.519,308.673 354.285,306.52 359.263,302.648 362.582,295.732 361.754,293.794 360.924,291.859 360.371,287.708 363.412,285.495 366.453,283.282 367.838,278.581 366.18,277.196 364.521,275.813 362.306,274.707 363.412,271.387 366.178,265.578 360.924,260.045 359.816,256.449 358.711,252.853 361.476,248.702 361.199,246.489 360.924,244.276 355.945,240.405 354.837,237.914 353.73,235.424 349.304,230.721 347.368,231.275 345.431,231.828 339.622,231.828 336.94,230.616 334.258,229.404 332.707,226.849 330.217,227.402 327.727,227.957 325.515,229.893 320.257,227.402 315,224.912 311.405,231.553 309.693,232.733 307.982,233.916 295.084,231.553 293.148,235.149 291.213,238.745 288.168,240.405 283.465,240.127 278.761,239.85 276.548,243.171 279.316,248.979 282.083,254.788 280.146,257.556 277.656,259.215 275.165,260.875 270.464,260.875 274.612,266.408 278.761,271.94 276.827,273.047 275.165,275.537 273.505,278.026 268.528,282.176 272.954,286.88 277.38,291.581 278.763,292.964 278.21,297.668 277.656,302.372 279.87,303.754 283.465,304.859 287.06,305.965 287.891,304.859 291.764,309.84 292.779,311.145 293.832,311.889 294.833,312.292 293.731,314.728 290.876,321.88 295.506,321.645 299.826,321.423 297.602,315.379 296.38,312.666 297.376,312.755 298.256,312.566 298.907,312.335 300.178,313.77 301.598,315.067 303.139,316.215 L 303.139,323.023 294.338,323.023 C 278.233,323.023 265.181,336.078 265.181,352.178 L 265.178,367.053 C 265.181,372.594 269.674,377.086 275.218,377.086 L 364.115,377.086 C 369.661,377.086 374.153,372.594 374.153,367.053 L 374.153,352.178 C 374.152,336.077 361.1,323.022 344.998,323.022 M 294.762,293.935 294.762,279.061 C 294.762,279.019 294.769,278.979 294.769,278.937 312.515,271.093 318.178,258.783 319.665,254.422 321.151,258.783 326.812,271.092 344.56,278.937 344.56,278.979 344.566,279.019 344.566,279.061 L 344.566,293.935 C 344.544,307.686 333.421,318.813 319.663,318.836 305.909,318.812 294.785,307.686 294.762,293.935 M 319.667,338.114 C 313.406,338.1 308.093,334.17 306.009,328.645 L 306.009,318.096 C 310.042,320.382 314.695,321.701 319.663,321.704 324.634,321.704 329.288,320.384 333.322,318.097 L 333.322,328.648 C 331.234,334.17 325.921,338.101 319.667,338.114"
       id="path17"
       inkscape:connector-curvature="0"
       style="fill:#718489" /></g><path
     d="M 120.37999,54.274083 C 120.37999,54.274083 118.07699,69.001083 100.72499,69.304083 100.74899,70.638083 118.21699,77.009083 131.40099,67.433083 144.58499,57.857083 120.37999,54.274083 120.37999,54.274083"
     id="path19"
     inkscape:connector-curvature="0"
     style="fill:#b57b6b" /><path
     d="M 189.66099,92.886083 C 232.07399,92.886083 266.45599,73.538083 266.45599,49.672083 266.45599,25.805083 232.07399,6.4580828 189.66099,6.4580828 147.24799,6.4580828 112.86599,25.805083 112.86599,49.672083 112.86599,73.538083 147.24799,92.886083 189.66099,92.886083"
     id="path21"
     inkscape:connector-curvature="0"
     style="fill:#b57b6b" /><text
     id="text23"
     x="119.25949"
     y="55.985584"
     style="font-size:23.48880005px;fill:#ffffff;font-family:Georgia, seriff">$354, 420.00</text>
</svg>
