<?xml version="1.0" encoding="UTF-8" standalone="no"?>
<!-- Created with Inkscape (http://www.inkscape.org/) -->
<svg id="svg13210" xmlns:rdf="http://www.w3.org/1999/02/22-rdf-syntax-ns#" xmlns="http://www.w3.org/2000/svg" height="98.98" width="84.999" version="1.1" xmlns:cc="http://creativecommons.org/ns#" xmlns:dc="http://purl.org/dc/elements/1.1/">
 <defs id="defs13212">
  <clipPath id="clipPath164" clipPathUnits="userSpaceOnUse">
   <path id="path166" d="m652 10602h68v79h-68v-79z"/>
  </clipPath>
 </defs>
 <metadata id="metadata13215">
  <rdf:RDF>
   <cc:Work rdf:about="">
    <dc:format>image/svg+xml</dc:format>
    <dc:type rdf:resource="http://purl.org/dc/dcmitype/StillImage"/>
    <dc:title/>
   </cc:Work>
  </rdf:RDF>
 </metadata>
 <g id="layer1" transform="translate(88.214 1022.8)">
  <g id="g160" transform="matrix(1.25 0 0 -1.25 -903.21 12328)">
   <g id="g162" clip-path="url(#clipPath164)">
    <g id="g168" transform="translate(733.89 10626)">
     <path id="path170" d="m0 0v-3.416h1.895c0.601 0 0.964 0.145 1.083 0.438 0.068 0.157 0.1 0.382 0.1 0.673h0.547v-3.024h-0.547c0 0.722-0.312 1.083-0.938 1.083h-2.14v-2.445c0-0.684 0.113-1.089 0.338-1.218 0.125-0.07 0.317-0.105 0.572-0.105h0.258v-0.591h-4.067v0.591h0.217c0.294 0 0.501 0.066 0.621 0.194 0.118 0.129 0.179 0.354 0.179 0.674v6.146c0 0.42-0.048 0.719-0.141 0.896-0.126 0.242-0.362 0.366-0.703 0.366h-0.173v0.575h6.876v-2.14h-0.494c-0.022 0.443-0.075 0.751-0.157 0.918-0.125 0.259-0.359 0.385-0.7 0.385h-2.626zm7.032-4.039c0 1.496 0.488 2.733 1.467 3.705 0.977 0.975 2.227 1.463 3.752 1.463 1.432 0 2.601-0.452 3.504-1.347 0.907-0.899 1.359-2.056 1.359-3.481 0-1.08-0.273-2.046-0.818-2.897-0.533-0.83-1.255-1.438-2.167-1.817-0.641-0.271-1.352-0.407-2.137-0.407-0.907 0-1.736 0.185-2.481 0.564-0.825 0.42-1.453 1.029-1.888 1.828-0.396 0.728-0.591 1.524-0.591 2.389m2.035 0.734c0-1.434 0.301-2.606 0.904-3.514 0.589-0.898 1.368-1.348 2.335-1.348 1.196 0 2.02 0.65 2.473 1.947 0.203 0.601 0.305 1.255 0.305 1.974 0 1.304-0.273 2.404-0.817 3.298-0.577 0.948-1.358 1.424-2.342 1.424-1.179 0-2.012-0.599-2.5-1.794-0.238-0.58-0.358-1.241-0.358-1.987m17.312 3.551v0.591h3.532v-0.591h-0.1c-0.44 0-0.753-0.087-0.944-0.262-0.204-0.191-0.306-0.526-0.306-1v-3.778c0-1.344-0.339-2.359-1.018-3.04-0.65-0.657-1.588-0.986-2.807-0.986-1.156 0-2.083 0.258-2.78 0.771-0.82 0.603-1.228 1.514-1.228 2.736v4.528c0 0.4-0.069 0.672-0.208 0.815-0.138 0.145-0.386 0.216-0.744 0.216h-0.234v0.591h4.262v-0.591h-0.231c-0.643 0-0.964-0.346-0.964-1.031v-4.528c0-1.128 0.415-1.875 1.244-2.24 0.368-0.164 0.775-0.246 1.223-0.246 0.819 0 1.465 0.234 1.933 0.699 0.49 0.49 0.734 1.184 0.734 2.09v3.692c0 0.721-0.151 1.188-0.453 1.402-0.165 0.108-0.386 0.162-0.666 0.162h-0.245zm7.526-1.291v-5.735c0-0.621 0.175-0.992 0.523-1.122 0.196-0.073 0.471-0.112 0.827-0.112v-0.591h-3.298v0.591h0.08c0.354 0 0.605 0.064 0.757 0.189 0.186 0.139 0.28 0.399 0.28 0.767v6.969c-0.289 0.224-0.651 0.335-1.093 0.335v0.591h2.808l5.561-6.47v4.588c0 0.689-0.158 1.086-0.466 1.194-0.182 0.064-0.459 0.097-0.831 0.097h-0.134v0.591h3.511v-0.591h-0.134c-0.353 0-0.606-0.036-0.759-0.103-0.237-0.116-0.358-0.337-0.358-0.669v-8.124h-0.751l-6.523 7.605zm10.737 1.291v0.591c0.324 0.021 0.645 0.039 0.964 0.054l0.659 0.03c0.047 0 0.238 0.01 0.572 0.035 0.726 0.051 1.348 0.076 1.861 0.076 1.772 0 3.062-0.206 3.862-0.609 0.955-0.484 1.623-1.255 2.005-2.314 0.193-0.548 0.291-1.135 0.291-1.763 0-1.327-0.422-2.464-1.265-3.404-0.925-1.031-2.466-1.547-4.621-1.547h-4.328v0.591c0.433 0 0.738 0.06 0.91 0.173 0.236 0.152 0.353 0.447 0.353 0.888v5.865c0 0.69-0.156 1.101-0.464 1.231-0.18 0.067-0.445 0.103-0.799 0.103m3.147 0v-7.088c0-0.508 0.067-0.827 0.208-0.959 0.14-0.132 0.464-0.196 0.973-0.196 1.389 0 2.409 0.452 3.06 1.355 0.53 0.746 0.796 1.674 0.796 2.788 0 1.303-0.336 2.333-1.01 3.085-0.65 0.725-1.641 1.087-2.966 1.087-0.379 0-0.736-0.022-1.061-0.072m15.462-5.344h-2.978l-0.572-1.779c-0.14-0.42-0.145-0.718-0.021-0.883 0.121-0.167 0.485-0.254 1.097-0.254h0.174v-0.591h-3.611v0.591h0.207c0.368 0 0.662 0.137 0.883 0.409 0.156 0.199 0.306 0.526 0.451 0.986l2.329 7.241-0.148 0.445h2.016l2.719-7.715c0.162-0.454 0.321-0.773 0.479-0.957 0.214-0.242 0.508-0.379 0.886-0.409v-0.591h-4.428v0.591h0.478c0.397 0 0.649 0.097 0.75 0.292 0.1 0.187 0.075 0.476-0.067 0.865l-0.644 1.759zm-0.312 0.837-1.25 3.549-1.144-3.549h2.394zm11.914 4.307v-6.923c0-0.45 0.098-0.757 0.292-0.922 0.168-0.141 0.466-0.215 0.89-0.215h0.327v-0.591h-4.9v0.591h0.459c0.698 0 1.049 0.38 1.049 1.137v6.923h-1.608c-0.325 0-0.558-0.026-0.7-0.074-0.231-0.08-0.394-0.248-0.491-0.506-0.094-0.231-0.188-0.635-0.28-1.207h-0.558l0.245 2.839h0.439c0.123-0.129 0.211-0.2 0.259-0.216 0.089-0.029 0.221-0.045 0.394-0.045h6.482c0.268 0 0.483 0.089 0.651 0.261h0.441l0.245-2.839h-0.558c-0.076 0.468-0.134 0.779-0.179 0.933-0.117 0.39-0.278 0.636-0.487 0.734-0.171 0.079-0.442 0.12-0.81 0.12h-1.602zm5.994 0.2v0.591h4.33v-0.591h-0.227c-0.69 0-1.038-0.381-1.038-1.141v-6.013c0-0.409 0.086-0.697 0.255-0.86 0.167-0.162 0.437-0.246 0.81-0.246h0.2v-0.591h-4.33v0.591h0.194c0.661 0 0.99 0.35 0.99 1.046v6.073c0 0.409-0.075 0.702-0.225 0.877-0.153 0.175-0.411 0.264-0.779 0.264h-0.18zm7.02-4.285c0 1.496 0.488 2.733 1.466 3.705 0.976 0.975 2.226 1.463 3.752 1.463 1.433 0 2.602-0.452 3.506-1.347 0.904-0.899 1.356-2.056 1.356-3.481 0-1.08-0.272-2.046-0.816-2.897-0.535-0.83-1.255-1.438-2.169-1.817-0.64-0.271-1.35-0.407-2.135-0.407-0.909 0-1.737 0.185-2.481 0.564-0.824 0.42-1.453 1.029-1.89 1.828-0.394 0.728-0.589 1.524-0.589 2.389m2.034 0.734c0-1.434 0.302-2.606 0.903-3.514 0.591-0.898 1.369-1.348 2.336-1.348 1.196 0 2.02 0.65 2.474 1.947 0.202 0.601 0.304 1.255 0.304 1.974 0 1.304-0.272 2.404-0.817 3.298-0.575 0.948-1.357 1.424-2.34 1.424-1.18 0-2.013-0.599-2.502-1.794-0.238-0.58-0.358-1.241-0.358-1.987m12.689 2.26v-5.735c0-0.621 0.17-0.992 0.52-1.122 0.19-0.073 0.47-0.112 0.83-0.112v-0.591h-3.3v0.591h0.08c0.35 0 0.6 0.064 0.76 0.189 0.18 0.139 0.27 0.399 0.27 0.767v6.969c-0.28 0.224-0.65 0.335-1.09 0.335v0.591h2.81l5.56-6.47v4.588c0 0.689-0.16 1.086-0.47 1.194-0.18 0.064-0.45 0.097-0.83 0.097h-0.13v0.591h3.51v-0.591h-0.13c-0.36 0-0.61-0.036-0.76-0.103-0.24-0.116-0.36-0.337-0.36-0.669v-8.124h-0.75l-6.52 7.605z" fill="#3ba933"/>
    </g>
    <g id="g172" transform="translate(734.98 10634)">
     <path id="path174" d="m0 0c1.14 0 2.546 0.121 3.565 0.852 1.551 1.092 2.133 2.328 2.133 3.856 0 1.867-0.872 3.442-3.685 4.995l-0.873 0.485c-1.915 1.066-2.255 1.793-2.255 2.715 0 1.407 1.381 2.207 2.91 2.207 1.382 0 2.061-0.583 2.376-0.969 0.46-0.535 0.559-1.164 0.559-1.359 0-0.242 0.071-0.364 0.217-0.364 0.169 0 0.266 0.219 0.266 0.655 0 1.625 0.074 2.207 0.074 2.473 0 0.146-0.098 0.219-0.291 0.267-0.559 0.146-1.65 0.339-3.032 0.339-2.958 0-5.382-1.625-5.382-4.145 0-1.819 0.824-3.201 3.346-4.681l1.236-0.726c1.892-1.117 2.109-2.014 2.109-2.912 0-1.454-1.114-2.617-2.958-2.617-1.333 0-2.934 0.509-3.394 2.036-0.121 0.365-0.194 0.8-0.194 1.068 0 0.145-0.025 0.339-0.219 0.339-0.169 0-0.266-0.218-0.266-0.534-0.025-0.339-0.121-1.625-0.121-2.74 0-0.46 0.073-0.557 0.412-0.703 0.921-0.416 2.231-0.537 3.467-0.537m13.313 9.145c-0.074 0-0.147 0.023-0.147 0.145v0.438c0 3.126 0 3.878 0.049 4.534 0.049 0.727 0.218 1.018 0.8 1.115 0.243 0.049 0.437 0.072 0.607 0.072 0.267 0 0.387 0.072 0.387 0.219 0 0.145-0.145 0.193-0.435 0.193-0.85 0-2.328-0.048-2.838-0.048-0.582 0-1.989 0.048-3.128 0.048-0.291 0-0.46-0.048-0.46-0.193 0-0.147 0.144-0.219 0.364-0.219 0.314 0 0.678-0.023 0.848-0.072 0.679-0.193 0.872-0.412 0.922-1.115 0.023-0.656 0.023-1.237 0.023-4.366v-3.636c0-1.892 0-3.516-0.097-4.39-0.073-0.605-0.194-0.993-0.63-1.09-0.195-0.05-0.435-0.075-0.752-0.075-0.266 0-0.338-0.12-0.338-0.216 0-0.146 0.144-0.222 0.411-0.222 0.848 0 2.255 0.072 2.739 0.072 0.608 0 2.086-0.072 3.468-0.072 0.268 0 0.437 0.076 0.437 0.222 0 0.096-0.097 0.216-0.34 0.216-0.314 0-0.8 0.025-1.091 0.075-0.631 0.097-0.751 0.485-0.824 1.067-0.097 0.897-0.122 2.473-0.122 4.365v1.575c0 0.097 0.073 0.121 0.147 0.121h8.05c0.048 0 0.12-0.048 0.12-0.121v-1.575c0-1.892 0-3.468-0.097-4.342-0.072-0.605-0.194-0.993-0.629-1.09-0.195-0.05-0.437-0.075-0.776-0.075-0.242 0-0.34-0.12-0.34-0.216 0-0.146 0.169-0.222 0.46-0.222 0.825 0 2.328 0.072 2.813 0.072 0.582 0 1.988-0.072 3.37-0.072 0.267 0 0.437 0.076 0.437 0.222 0 0.096-0.12 0.216-0.34 0.216-0.339 0-0.799 0.025-1.091 0.075-0.653 0.097-0.775 0.485-0.848 1.067-0.098 0.897-0.098 2.521-0.098 4.413v3.636c0 3.129 0 3.71 0.049 4.366 0.049 0.727 0.218 1.018 0.777 1.115 0.265 0.049 0.459 0.072 0.629 0.072 0.243 0 0.389 0.072 0.389 0.219 0 0.145-0.146 0.193-0.46 0.193-0.826 0-2.232-0.048-2.741-0.048-0.558 0-2.061 0.048-3.201 0.048-0.314 0-0.461-0.048-0.461-0.193 0-0.147 0.121-0.219 0.364-0.219 0.292 0 0.655-0.023 0.825-0.072 0.678-0.193 0.872-0.412 0.922-1.115 0.023-0.656 0.047-1.408 0.047-4.534v-0.438c0-0.122-0.072-0.145-0.12-0.145h-8.05zm17.093-2.28c0-2.981 0.849-4.51 1.941-5.455 1.551-1.363 3.758-1.41 4.873-1.41 1.383 0 3.006 0.218 4.509 1.482 1.795 1.48 2.038 3.905 2.038 6.208v2.206c0 3.129 0.025 3.71 0.048 4.366 0.048 0.727 0.194 1.018 0.777 1.115 0.265 0.049 0.387 0.072 0.629 0.072 0.244 0 0.364 0.072 0.364 0.219 0 0.145-0.145 0.193-0.436 0.193-0.824 0-2.256-0.048-2.498-0.048-0.023 0-1.454 0.048-2.545 0.048-0.292 0-0.437-0.048-0.437-0.193 0-0.147 0.121-0.219 0.364-0.219 0.242 0 0.606-0.023 0.776-0.072 0.678-0.193 0.848-0.412 0.897-1.115 0.023-0.656 0.049-1.237 0.049-4.366v-2.594c0-2.11-0.049-3.904-1.238-5.019-0.848-0.825-1.94-1.092-2.86-1.092-0.727 0-1.746 0.074-2.693 0.825-1.041 0.825-1.623 1.989-1.623 4.995v2.885c0 3.129 0 3.71 0.048 4.366 0.049 0.727 0.218 1.018 0.776 1.115 0.266 0.049 0.387 0.072 0.63 0.072 0.219 0 0.34 0.072 0.34 0.219 0 0.145-0.146 0.193-0.461 0.193-0.776 0-2.207-0.048-2.739-0.048-0.631 0-2.062 0.048-3.202 0.048-0.315 0-0.46-0.048-0.46-0.193 0-0.147 0.121-0.219 0.363-0.219 0.291 0 0.655-0.023 0.826-0.072 0.677-0.193 0.873-0.388 0.921-1.115 0.048-0.656 0.023-1.237 0.023-4.366v-3.031zm22.187-0.605c0-1.892 0-3.516-0.097-4.39-0.073-0.605-0.194-0.993-0.63-1.09-0.17-0.05-0.437-0.075-0.752-0.075-0.267 0-0.339-0.12-0.339-0.216 0-0.146 0.144-0.222 0.412-0.222 0.848 0 2.302 0.072 2.788 0.072 0.606 0 2.037-0.072 3.443-0.072 0.243 0 0.412 0.076 0.412 0.222 0 0.096-0.095 0.216-0.339 0.216-0.316 0-0.8 0.025-1.091 0.075-0.631 0.097-0.752 0.485-0.825 1.067-0.096 0.897-0.12 2.521-0.12 4.413v8.341l2.69-0.049c1.917-0.025 2.474-0.656 2.522-1.187l0.024-0.219c0.026-0.315 0.073-0.414 0.244-0.414 0.121 0 0.169 0.122 0.193 0.341 0 0.533 0.048 2.062 0.048 2.496 0 0.317-0.023 0.438-0.168 0.438-0.073 0-0.244-0.048-0.583-0.097-0.316-0.049-0.776-0.097-1.455-0.097h-8.657c-0.702 0-1.502 0.024-2.133 0.097-0.533 0.072-0.751 0.242-0.921 0.242-0.121 0-0.195-0.12-0.243-0.387-0.049-0.17-0.46-2.159-0.46-2.498 0-0.218 0.048-0.34 0.193-0.34 0.147 0 0.194 0.098 0.242 0.267 0.049 0.146 0.147 0.412 0.365 0.702 0.315 0.462 0.824 0.607 2.06 0.631l3.177 0.074v-8.341zm15.35 0c0-1.892 0-3.516-0.098-4.39-0.074-0.605-0.195-0.993-0.63-1.09-0.171-0.05-0.438-0.075-0.752-0.075-0.267 0-0.34-0.12-0.34-0.216 0-0.146 0.145-0.222 0.412-0.222 0.848 0 2.303 0.072 2.789 0.072 0.606 0 2.036-0.072 3.442-0.072 0.244 0 0.413 0.076 0.413 0.222 0 0.096-0.097 0.216-0.34 0.216-0.316 0-0.801 0.025-1.09 0.075-0.631 0.097-0.752 0.485-0.825 1.067-0.097 0.897-0.12 2.521-0.12 4.413v8.341l2.69-0.049c1.915-0.025 2.474-0.656 2.522-1.187l0.024-0.219c0.024-0.315 0.073-0.414 0.242-0.414 0.121 0 0.17 0.122 0.195 0.341 0 0.533 0.048 2.062 0.048 2.496 0 0.317-0.023 0.438-0.169 0.438-0.074 0-0.243-0.048-0.583-0.097-0.314-0.049-0.775-0.097-1.454-0.097h-8.657c-0.703 0-1.503 0.024-2.134 0.097-0.533 0.072-0.75 0.242-0.921 0.242-0.122 0-0.193-0.12-0.243-0.387-0.048-0.17-0.461-2.159-0.461-2.498 0-0.218 0.05-0.34 0.195-0.34 0.146 0 0.194 0.098 0.242 0.267 0.049 0.146 0.145 0.412 0.364 0.702 0.315 0.462 0.824 0.607 2.061 0.631l3.178 0.074v-8.341zm15.371 3.636c0 3.129 0 3.71 0.049 4.366 0.048 0.727 0.218 1.018 0.799 1.115 0.244 0.049 0.583 0.072 0.825 0.072 0.266 0 0.388 0.072 0.388 0.219 0 0.145-0.145 0.193-0.461 0.193-0.824 0-2.57-0.048-3.079-0.048-0.581 0-1.94 0.048-2.935 0.048-0.314 0-0.459-0.048-0.459-0.193 0-0.147 0.121-0.219 0.364-0.219 0.267 0 0.533-0.023 0.702-0.072 0.679-0.193 0.874-0.412 0.921-1.115 0.025-0.656 0.025-1.237 0.025-4.366v-3.636c0-1.892 0-3.516-0.096-4.39-0.074-0.605-0.195-0.993-0.631-1.09-0.195-0.05-0.437-0.075-0.752-0.075-0.267 0-0.34-0.12-0.34-0.216 0-0.146 0.145-0.222 0.413-0.222 0.436 0 0.969 0.024 1.479 0.046 0.509 0 0.969 0.03 1.212 0.03 0.873 0 1.77-0.03 2.837-0.052 1.067-0.048 2.303-0.073 3.831-0.073 1.116 0 1.212 0.095 1.358 0.562 0.17 0.606 0.316 2.133 0.316 2.376 0 0.242-0.05 0.46-0.195 0.46-0.169 0-0.217-0.121-0.242-0.315-0.048-0.388-0.267-0.97-0.533-1.237-0.534-0.557-1.358-0.582-2.499-0.582-1.648 0-2.472 0.122-2.836 0.438-0.461 0.388-0.461 1.696-0.461 4.34v3.636zm10.523-3.636c0-1.892 0-3.516-0.097-4.39-0.072-0.605-0.192-0.993-0.63-1.09-0.193-0.05-0.436-0.075-0.752-0.075-0.266 0-0.339-0.12-0.339-0.216 0-0.146 0.145-0.222 0.412-0.222 0.437 0 0.97 0.024 1.479 0.046 0.509 0 0.97 0.03 1.214 0.03 0.629 0 1.429-0.03 2.472-0.052 1.042-0.048 2.327-0.073 3.924-0.073 0.8 0 1 0 1.14 0.538 0.12 0.412 0.3 1.818 0.3 2.278 0 0.219-0.03 0.486-0.2 0.486-0.14 0-0.19-0.097-0.24-0.315-0.15-0.85-0.39-1.285-0.92-1.527-0.56-0.242-1.46-0.268-2.016-0.268-2.183 0-2.837 0.316-2.885 1.722-0.024 0.606 0 2.351 0 3.056v1.647c0 0.121 0.023 0.219 0.121 0.219 0.533 0 2.958-0.049 3.35-0.098 0.8-0.072 1.06-0.388 1.18-0.799 0.05-0.266 0.05-0.534 0.08-0.753 0-0.095 0.05-0.169 0.19-0.169 0.2 0 0.22 0.29 0.22 0.461 0 0.145 0.05 0.97 0.1 1.381 0.12 1.043 0.17 1.384 0.17 1.504 0 0.122-0.08 0.219-0.17 0.219-0.1 0-0.17-0.121-0.34-0.267-0.2-0.219-0.51-0.266-1.02-0.314-0.49-0.051-3.251-0.051-3.737-0.051-0.121 0-0.144 0.099-0.144 0.219v5.092c0 0.122 0.048 0.194 0.144 0.194 0.438 0 2.984-0.048 3.347-0.097 1.07-0.097 1.24-0.388 1.41-0.751 0.12-0.242 0.14-0.606 0.14-0.752 0-0.17 0.03-0.266 0.17-0.266 0.17 0 0.22 0.242 0.24 0.339 0.05 0.242 0.1 1.138 0.13 1.357 0.04 0.946 0.16 1.189 0.16 1.334 0 0.098-0.02 0.195-0.14 0.195-0.1 0-0.22-0.073-0.34-0.097-0.17-0.025-0.51-0.098-0.9-0.122-0.41-0.025-5.138 0-5.815 0-0.608 0-1.964 0.048-3.081 0.048-0.315 0-0.485-0.048-0.485-0.193 0-0.147 0.146-0.219 0.365-0.219 0.314 0 0.678-0.023 0.848-0.072 0.679-0.193 0.873-0.412 0.922-1.115 0.023-0.656 0.023-1.237 0.023-4.366v-3.636zm16.513-5.504c0.19-0.538 0.32-0.756 0.58-0.756 0.32 0 0.44 0.243 0.83 1.095 0.87 1.892 3.73 9.189 4.09 10.062h0.05l4.34-10.159c0.32-0.755 0.46-0.998 0.76-0.998 0.31 0 0.43 0.243 0.67 0.974 1.05 3.079 3.23 9.626 4.22 12.22 0.44 1.189 0.68 1.965 1.19 2.159 0.24 0.073 0.53 0.096 0.75 0.096 0.2 0 0.29 0.097 0.29 0.243 0 0.121-0.14 0.169-0.38 0.169-0.71 0-1.63-0.048-1.77-0.048-0.2 0-1.17 0.048-2.28 0.048-0.34 0-0.51-0.048-0.51-0.193 0-0.122 0.17-0.219 0.36-0.219 0.85 0 1.04-0.242 1.04-0.582 0-0.291-0.07-0.703-0.22-1.187-0.75-2.402-2.37-7.831-2.78-9.021h-0.08l-4.26 10.184c-0.27 0.655-0.46 0.97-0.71 0.97-0.19 0-0.41-0.17-0.63-0.752l-4.07-10.54h-0.07c-0.32 0.947-2.26 7.19-2.62 8.547-0.27 0.947-0.46 1.63-0.46 1.897 0 0.219 0.02 0.339 0.22 0.412 0.16 0.049 0.36 0.072 0.53 0.072 0.22 0 0.39 0.072 0.39 0.219 0 0.145-0.15 0.193-0.46 0.193-1.24 0-2.28-0.048-2.48-0.048-0.19 0-1.38 0.048-2.47 0.048-0.32 0-0.49-0.048-0.49-0.193 0-0.147 0.12-0.219 0.34-0.219 0.2 0 0.61-0.023 0.83-0.169 0.31-0.195 0.48-0.679 0.75-1.43l4.51-13.094zm27.01-0.756c5.51 0 8.95 3.713 8.95 8.442 0 4.728-3.35 7.71-8.73 7.71-6.47 0-8.95-4.557-8.95-8.075 0-3.66 2.52-8.077 8.73-8.077m0.88 1.119c-4.03 0-6.46 3.346-6.46 7.59 0 5.091 2.79 6.352 5.17 6.352 3.44 0 6.18-2.813 6.18-7.371 0-5.868-3.39-6.571-4.89-6.571m12.05 5.141c0-1.892 0-3.516-0.1-4.39-0.07-0.605-0.2-0.993-0.63-1.09-0.2-0.05-0.44-0.075-0.75-0.075-0.27 0-0.34-0.12-0.34-0.216 0-0.146 0.14-0.222 0.41-0.222 0.85 0 2.21 0.072 2.62 0.072 0.31 0 2.08-0.072 3.32-0.072 0.27 0 0.44 0.076 0.44 0.222 0 0.096-0.1 0.216-0.27 0.216-0.27 0-0.73 0.025-1.04 0.075-0.66 0.097-0.75 0.485-0.83 1.09-0.09 0.874-0.12 2.474-0.12 4.39v0.291c0 0.121 0.07 0.169 0.17 0.169l1.92-0.048c0.14 0 0.26-0.025 0.38-0.147 0.27-0.313 1.17-1.696 2.02-2.812 1.18-1.6 1.99-2.569 2.91-3.03 0.56-0.291 1.14-0.416 2.32-0.416h2.04c0.27 0 0.41 0.046 0.41 0.222 0 0.096-0.09 0.216-0.26 0.216s-0.29 0-0.51 0.051c-0.34 0.073-1.09 0.17-2.28 1.357-1.29 1.285-2.79 3.154-4.68 5.48 2.08 1.674 2.96 3.031 2.96 4.558 0 1.382-0.9 2.425-1.51 2.838-1.14 0.751-2.69 0.872-4.05 0.872-0.65 0-2.59-0.048-3.32-0.048-0.43 0-1.79 0.048-2.91 0.048-0.31 0-0.48-0.048-0.48-0.193 0-0.147 0.14-0.219 0.36-0.219 0.32 0 0.68-0.023 0.85-0.072 0.68-0.193 0.87-0.412 0.92-1.115 0.03-0.656 0.03-1.237 0.03-4.366v-3.636zm2.71 8.171c0 0.17 0.05 0.242 0.2 0.292 0.21 0.047 0.72 0.072 1.26 0.072 1.26 0 3.24-0.753 3.24-3.662 0-1.697-0.72-2.594-1.38-3.056-0.36-0.265-0.65-0.339-1.5-0.339-0.53 0-1.16 0.049-1.62 0.195-0.15 0.072-0.2 0.144-0.2 0.364v6.134zm15.83-8.171c0-1.892 0-3.516-0.09-4.39-0.07-0.605-0.2-0.993-0.63-1.09-0.17-0.05-0.44-0.075-0.75-0.075-0.27 0-0.34-0.12-0.34-0.216 0-0.146 0.14-0.222 0.41-0.222 0.85 0 2.3 0.072 2.79 0.072 0.6 0 2.03-0.072 3.44-0.072 0.24 0 0.41 0.076 0.41 0.222 0 0.096-0.09 0.216-0.34 0.216-0.31 0-0.8 0.025-1.09 0.075-0.63 0.097-0.75 0.485-0.82 1.067-0.1 0.897-0.12 2.521-0.12 4.413v8.341l2.69-0.049c1.91-0.025 2.47-0.656 2.52-1.187l0.02-0.219c0.03-0.315 0.08-0.414 0.25-0.414 0.12 0 0.16 0.122 0.19 0.341 0 0.533 0.05 2.062 0.05 2.496 0 0.317-0.03 0.438-0.17 0.438-0.07 0-0.24-0.048-0.58-0.097-0.32-0.049-0.78-0.097-1.46-0.097h-8.65c-0.71 0-1.51 0.024-2.14 0.097-0.53 0.072-0.75 0.242-0.92 0.242-0.12 0-0.19-0.12-0.24-0.387-0.05-0.17-0.46-2.159-0.46-2.498 0-0.218 0.05-0.34 0.19-0.34 0.15 0 0.19 0.098 0.24 0.267 0.05 0.146 0.15 0.412 0.37 0.702 0.31 0.462 0.82 0.607 2.06 0.631l3.17 0.074v-8.341zm15.52 2.885c-0.07 0-0.14 0.023-0.14 0.145v0.438c0 3.126 0 3.878 0.05 4.534 0.04 0.727 0.21 1.018 0.8 1.115 0.24 0.049 0.43 0.072 0.6 0.072 0.27 0 0.39 0.072 0.39 0.219 0 0.145-0.15 0.193-0.44 0.193-0.85 0-2.32-0.048-2.83-0.048-0.59 0-1.99 0.048-3.13 0.048-0.29 0-0.46-0.048-0.46-0.193 0-0.147 0.14-0.219 0.36-0.219 0.32 0 0.68-0.023 0.85-0.072 0.68-0.193 0.87-0.412 0.92-1.115 0.03-0.656 0.03-1.237 0.03-4.366v-3.636c0-1.892 0-3.516-0.1-4.39-0.07-0.605-0.19-0.993-0.63-1.09-0.2-0.05-0.44-0.075-0.75-0.075-0.27 0-0.34-0.12-0.34-0.216 0-0.146 0.14-0.222 0.41-0.222 0.85 0 2.25 0.072 2.74 0.072 0.61 0 2.08-0.072 3.47-0.072 0.26 0 0.43 0.076 0.43 0.222 0 0.096-0.09 0.216-0.34 0.216-0.31 0-0.8 0.025-1.09 0.075-0.63 0.097-0.75 0.485-0.82 1.067-0.1 0.897-0.12 2.473-0.12 4.365v1.575c0 0.097 0.07 0.121 0.14 0.121h8.05c0.05 0 0.12-0.048 0.12-0.121v-1.575c0-1.892 0-3.468-0.09-4.342-0.08-0.605-0.2-0.993-0.63-1.09-0.2-0.05-0.44-0.075-0.78-0.075-0.24 0-0.34-0.12-0.34-0.216 0-0.146 0.17-0.222 0.46-0.222 0.83 0 2.33 0.072 2.82 0.072 0.58 0 1.98-0.072 3.36-0.072 0.27 0 0.44 0.076 0.44 0.222 0 0.096-0.12 0.216-0.34 0.216-0.34 0-0.8 0.025-1.09 0.075-0.65 0.097-0.77 0.485-0.85 1.067-0.1 0.897-0.1 2.521-0.1 4.413v3.636c0 3.129 0 3.71 0.05 4.366 0.05 0.727 0.22 1.018 0.78 1.115 0.27 0.049 0.46 0.072 0.63 0.072 0.24 0 0.39 0.072 0.39 0.219 0 0.145-0.15 0.193-0.46 0.193-0.83 0-2.23-0.048-2.74-0.048-0.56 0-2.06 0.048-3.2 0.048-0.32 0-0.46-0.048-0.46-0.193 0-0.147 0.12-0.219 0.36-0.219 0.29 0 0.65-0.023 0.83-0.072 0.67-0.193 0.87-0.412 0.92-1.115 0.02-0.656 0.04-1.408 0.04-4.534v-0.438c0-0.122-0.07-0.145-0.12-0.145h-8.05z" fill="#464749"/>
    </g>
    <g id="g176" transform="translate(675.41 10665)">
     <path id="path178" d="m0 0c-12.559-6.004-20.353-17.391-19.921-27.766 0.349-8.317 6.805-18.63 17.481-24.979-13.056-0.399-20.821 15.511-20.501 23.221-1.862-8.968 1.389-25.89 18.6-32.002 5.67-2.014 16.269-2.326 21.002 1.084 8.183 5.893 4.888 14.008-1.847 19.538-7.801 6.402-14.644 10.64-18.577 19.33-2.671 5.899-3.632 13.257 3.763 21.574" fill="#3ba933"/>
    </g>
    <g id="g180" transform="translate(682.1 10637)">
     <path id="path182" d="m0 0c-11.05 11.327-8.742 18.984-1.675 28.799 3.291 4.57 6.539 9.136 5.993 15.094 16.822-17.957 1.089-23.823 9.35-33.013 1.168 5.069 4.736 10.367 9.717 14.182-1.381-14.267 3.325-14.714 7.46-23.501 6.383-13.556-2.447-28.598-15.626-34.861 5.596 5.493 6.176 13.04-0.413 20.468-3.352 3.78-9.431 7.324-14.806 12.832" fill="#80bd26"/>
    </g>
   </g>
  </g>
 </g>
</svg>
