<?xml version="1.0" encoding="UTF-8" standalone="no"?>
<!-- Generator: Adobe Illustrator 15.0.0, SVG Export Plug-In . SVG Version: 6.00 Build 0)  -->

<svg
   xmlns:dc="http://purl.org/dc/elements/1.1/"
   xmlns:cc="http://creativecommons.org/ns#"
   xmlns:rdf="http://www.w3.org/1999/02/22-rdf-syntax-ns#"
   xmlns:svg="http://www.w3.org/2000/svg"
   xmlns="http://www.w3.org/2000/svg"
   xmlns:sodipodi="http://sodipodi.sourceforge.net/DTD/sodipodi-0.dtd"
   xmlns:inkscape="http://www.inkscape.org/namespaces/inkscape"
   version="1.1"
   id="Layer_1"
   x="0px"
   y="0px"
   width="20px"
   height="20px"
   viewBox="0 0 49.248001 49.248001"
   enable-background="new 0 0 800 600"
   xml:space="preserve"
   inkscape:version="0.48+devel r11876"
   sodipodi:docname="twitter.svg"><metadata
     id="metadata864"><rdf:RDF><cc:Work
         rdf:about=""><dc:format>image/svg+xml</dc:format><dc:type
           rdf:resource="http://purl.org/dc/dcmitype/StillImage" /><dc:title></dc:title></cc:Work></rdf:RDF></metadata><defs
     id="defs862" /><sodipodi:namedview
     pagecolor="#ffffff"
     bordercolor="#666666"
     borderopacity="1"
     objecttolerance="10"
     gridtolerance="10"
     guidetolerance="10"
     inkscape:pageopacity="0"
     inkscape:pageshadow="2"
     inkscape:window-width="1198"
     inkscape:window-height="948"
     id="namedview860"
     showgrid="false"
     fit-margin-top="0"
     fit-margin-left="0"
     fit-margin-right="0"
     fit-margin-bottom="0"
     inkscape:zoom="0.87"
     inkscape:cx="-70.947"
     inkscape:cy="57.754999"
     inkscape:window-x="0"
     inkscape:window-y="19"
     inkscape:window-maximized="0"
     inkscape:current-layer="Layer_1" /><path
     d="M 24.625,0 C 11.025,0 0,11.027 0,24.625 0,38.225 11.025,49.248 24.625,49.248 38.225,49.248 49.248,38.225 49.248,24.625 49.248,11.027 38.225,0 24.625,0 Z M 37.031,19.66 C 37.044,19.927 37.048,20.194 37.048,20.463 37.048,28.664 30.807,38.12 19.392,38.12 15.888,38.12 12.626,37.093 9.879,35.332 10.364,35.389 10.858,35.418 11.358,35.418 14.266,35.418 16.942,34.426 19.066,32.762 16.35,32.711 14.059,30.917 13.27,28.452 13.648,28.525 14.036,28.563 14.437,28.563 15.003,28.563 15.551,28.488 16.073,28.345 13.233,27.775 11.094,25.266 11.094,22.261 11.094,22.234 11.094,22.208 11.095,22.182 11.931,22.647 12.888,22.926 13.906,22.959 12.241,21.844 11.145,19.946 11.145,17.793 11.145,16.655 11.451,15.589 11.986,14.673 15.047,18.428 19.619,20.898 24.777,21.156 24.672,20.702 24.617,20.228 24.617,19.742 24.617,16.315 27.395,13.537 30.822,13.537 32.607,13.537 34.22,14.291 35.351,15.496 36.765,15.219 38.093,14.701 39.292,13.99 38.828,15.44 37.845,16.656 36.563,17.424 37.82,17.274 39.015,16.94 40.128,16.446 39.295,17.691 38.242,18.785 37.031,19.66 Z"
     id="path858"
     inkscape:connector-curvature="0"
     style="fill:#8ca595" /></svg>
