<?xml version="1.0" encoding="UTF-8" standalone="no"?>
<!-- Generator: Adobe Illustrator 15.0.0, SVG Export Plug-In . SVG Version: 6.00 Build 0)  -->

<svg
   xmlns:dc="http://purl.org/dc/elements/1.1/"
   xmlns:cc="http://creativecommons.org/ns#"
   xmlns:rdf="http://www.w3.org/1999/02/22-rdf-syntax-ns#"
   xmlns:svg="http://www.w3.org/2000/svg"
   xmlns="http://www.w3.org/2000/svg"
   xmlns:sodipodi="http://sodipodi.sourceforge.net/DTD/sodipodi-0.dtd"
   xmlns:inkscape="http://www.inkscape.org/namespaces/inkscape"
   version="1.1"
   id="Layer_1"
   x="0px"
   y="0px"
   width="20px"
   height="20px"
   viewBox="0 0 49.249001 49.248001"
   enable-background="new 0 0 800 600"
   xml:space="preserve"
   inkscape:version="0.48+devel r11876"
   sodipodi:docname="website.svg"><metadata
     id="metadata956"><rdf:RDF><cc:Work
         rdf:about=""><dc:format>image/svg+xml</dc:format><dc:type
           rdf:resource="http://purl.org/dc/dcmitype/StillImage" /><dc:title></dc:title></cc:Work></rdf:RDF></metadata><defs
     id="defs954" /><sodipodi:namedview
     pagecolor="#ffffff"
     bordercolor="#666666"
     borderopacity="1"
     objecttolerance="10"
     gridtolerance="10"
     guidetolerance="10"
     inkscape:pageopacity="0"
     inkscape:pageshadow="2"
     inkscape:window-width="1198"
     inkscape:window-height="948"
     id="namedview952"
     showgrid="false"
     fit-margin-top="0"
     fit-margin-left="0"
     fit-margin-right="0"
     fit-margin-bottom="0"
     inkscape:zoom="0.39333333"
     inkscape:cx="-448.1931"
     inkscape:cy="4.9829987"
     inkscape:window-x="0"
     inkscape:window-y="19"
     inkscape:window-maximized="0"
     inkscape:current-layer="Layer_1" /><g
     id="g932"
     transform="translate(-370.227,-255.735)"><path
       d="M 395.907,280.478 C 396.106,280.412 396.307,280.353 396.509,280.294 396.126,279.427 395.708,278.558 395.271,277.7 387.413,280.054 379.872,279.884 379.601,279.874 379.596,280.038 379.588,280.196 379.588,280.36 379.588,284.282 381.067,287.856 383.499,290.559 383.497,290.555 383.493,290.551 383.493,290.551 383.493,290.551 387.671,283.142 395.907,280.478 Z"
       id="path934"
       inkscape:connector-curvature="0"
       style="fill:#8ca595" /><path
       d="M 394.006,275.351 C 391.364,270.658 388.542,266.828 388.339,266.556 384.082,268.566 380.905,272.488 379.915,277.214 380.317,277.218 386.678,277.298 394.006,275.351 Z"
       id="path936"
       inkscape:connector-curvature="0"
       style="fill:#8ca595" /><path
       d="M 404.931,268.905 C 402.243,266.536 398.715,265.098 394.851,265.098 393.612,265.098 392.408,265.248 391.254,265.526 391.483,265.833 394.351,269.637 396.96,274.43 402.72,272.271 404.894,268.962 404.931,268.905 Z"
       id="path938"
       inkscape:connector-curvature="0"
       style="fill:#8ca595" /><path
       d="M 391.196,265.542 C 391.178,265.544 391.163,265.546 391.146,265.554 391.175,265.546 391.192,265.542 391.192,265.542 L 391.196,265.542 Z"
       id="path940"
       inkscape:connector-curvature="0"
       style="fill:#8ca595" /><path
       d="M 385.47,292.392 385.473,292.386 C 385.36,292.298 385.24,292.218 385.129,292.124 385.331,292.288 385.47,292.392 385.47,292.392 Z"
       id="path942"
       inkscape:connector-curvature="0"
       style="fill:#8ca595" /><path
       d="M 398.135,276.704 C 398.489,277.433 398.832,278.173 399.15,278.917 399.262,279.185 399.372,279.446 399.479,279.708 404.723,279.048 409.888,280.159 410.109,280.204 410.074,276.585 408.78,273.265 406.638,270.665 406.608,270.706 404.161,274.243 398.135,276.704 Z"
       id="path944"
       inkscape:connector-curvature="0"
       style="fill:#8ca595" /><path
       d="M 397.448,282.856 C 388.44,285.997 385.501,292.325 385.472,292.385 388.061,294.406 391.311,295.621 394.85,295.621 396.964,295.621 398.978,295.191 400.809,294.412 400.583,293.078 399.697,288.404 397.548,282.822 397.516,282.835 397.481,282.845 397.448,282.856 Z"
       id="path946"
       inkscape:connector-curvature="0"
       style="fill:#8ca595" /><path
       d="M 394.851,255.735 C 381.251,255.735 370.227,266.762 370.227,280.36 370.227,293.96 381.251,304.983 394.851,304.983 408.451,304.983 419.476,293.96 419.476,280.36 419.476,266.763 408.45,255.735 394.851,255.735 Z M 411.317,287.317 C 410.87,288.378 410.315,289.399 409.669,290.352 409.03,291.299 408.296,292.188 407.488,292.997 406.679,293.804 405.79,294.538 404.844,295.179 403.889,295.824 402.866,296.378 401.807,296.827 400.728,297.282 399.598,297.632 398.45,297.868 397.272,298.11 396.061,298.233 394.85,298.233 393.639,298.233 392.428,298.11 391.251,297.868 390.102,297.632 388.972,297.282 387.893,296.827 386.833,296.378 385.811,295.823 384.856,295.179 383.911,294.538 383.021,293.804 382.213,292.997 381.404,292.188 380.67,291.3 380.031,290.352 379.386,289.399 378.832,288.377 378.383,287.317 377.927,286.237 377.576,285.108 377.34,283.958 377.101,282.78 376.979,281.571 376.979,280.36 376.979,279.149 377.101,277.938 377.34,276.762 377.576,275.612 377.927,274.481 378.383,273.403 378.832,272.342 379.387,271.319 380.031,270.366 380.67,269.419 381.404,268.532 382.213,267.721 383.021,266.914 383.91,266.182 384.856,265.541 385.811,264.895 386.834,264.34 387.893,263.891 388.972,263.434 390.102,263.084 391.251,262.85 392.428,262.61 393.639,262.487 394.85,262.487 396.061,262.487 397.272,262.61 398.45,262.85 399.598,263.084 400.728,263.434 401.807,263.891 402.867,264.34 403.889,264.895 404.844,265.541 405.789,266.182 406.679,266.914 407.488,267.721 408.296,268.532 409.03,269.418 409.669,270.366 410.315,271.319 410.87,272.343 411.317,273.403 411.774,274.481 412.124,275.612 412.359,276.762 412.6,277.938 412.723,279.149 412.723,280.36 412.723,281.571 412.6,282.78 412.359,283.958 412.124,285.108 411.774,286.237 411.317,287.317 Z"
       id="path948"
       inkscape:connector-curvature="0"
       style="fill:#8ca595" /><path
       d="M 400.409,282.116 C 402.411,287.618 403.224,292.098 403.38,293.018 406.807,290.706 409.241,287.034 409.92,282.78 409.605,282.679 405.336,281.327 400.409,282.116 Z"
       id="path950"
       inkscape:connector-curvature="0"
       style="fill:#8ca595" /></g></svg>
