<?xml version="1.0" encoding="utf-8"?>
<!-- Generator: Adobe Illustrator 15.0.0, SVG Export Plug-In . SVG Version: 6.00 Build 0)  -->
<!DOCTYPE svg PUBLIC "-//W3C//DTD SVG 1.1//EN" "http://www.w3.org/Graphics/SVG/1.1/DTD/svg11.dtd">
<svg version="1.1"
	 id="Ebene_1" xmlns:rdf="http://www.w3.org/1999/02/22-rdf-syntax-ns#" xmlns:dc="http://purl.org/dc/elements/1.1/" xmlns:inkscape="http://www.inkscape.org/namespaces/inkscape" inkscape:version="0.48.2 r9819" sodipodi:docname="fb.svg" xmlns:svg="http://www.w3.org/2000/svg" xmlns:cc="http://creativecommons.org/ns#" xmlns:sodipodi="http://sodipodi.sourceforge.net/DTD/sodipodi-0.dtd"
	 xmlns="http://www.w3.org/2000/svg" xmlns:xlink="http://www.w3.org/1999/xlink" x="0px" y="0px" width="100px" height="100px"
	 viewBox="0 0 100 100" enable-background="new 0 0 100 100" xml:space="preserve">
<sodipodi:namedview  id="namedview3072" inkscape:current-layer="Ebene_1" borderopacity="1" gridtolerance="10" inkscape:window-y="0" inkscape:window-height="480" inkscape:zoom="2.36" inkscape:cx="56.355932" inkscape:pageopacity="0" pagecolor="#ffffff" inkscape:window-x="0" inkscape:window-maximized="0" inkscape:cy="50" bordercolor="#666666" objecttolerance="10" inkscape:window-width="640" inkscape:pageshadow="2" guidetolerance="10" showgrid="false">
	</sodipodi:namedview>
<g>
	<path fill="#FFFFFF" d="M65.748,62.715h-5.051v-3.902c1.029-0.764,1.973-1.637,2.789-2.621c0.336-0.063,0.822-0.166,1.396-0.307
		c-0.541,1.154-2.5,5.707,0.293,5.564c2.851-0.146,0.734-4.711,0.24-5.701c1.752-0.467,4.069-1.262,5.655-2.495
		c2.855-2.222,4.761-6.187,4.283-7.297c-0.475-1.11-0.793-3.49,0.951-4.759c1.744-1.269,2.539-3.965,1.588-4.759
		s-2.221-1.428-1.588-3.331c1.586-3.331-1.426-6.504-2.061-8.566s0.951-4.442,0.793-5.711s-3.014-3.49-3.648-4.917
		c-0.634-1.427-3.174-4.125-4.283-3.807c-1.11,0.317-4.44,0.317-5.979-0.378c-1.537-0.695-2.429-2.16-3.854-1.843
		c-1.428,0.317-2.695,1.428-5.711,0c-3.015-1.428-5.077,2.379-6.058,3.057c-0.982,0.678-8.377-0.678-9.488,1.384
		c-1.109,2.062-2.855,3.014-5.553,2.855c-2.698-0.159-3.965,1.745-2.379,5.076c1.588,3.331,0.477,4.917-0.951,5.869
		c-1.428,0.952-4.125,0.952-1.746,4.125c2.379,3.173,1.27,3.807,0.318,5.235c-0.953,1.428-3.807,3.807-1.27,6.504
		c2.539,2.697,3.332,3.49,3.014,6.188c-0.316,2.696,0.953,3.489,3.014,4.124c2.062,0.635,2.539,0,4.76,2.855
		c0.582,0.748,1.186,1.176,1.76,1.406c-0.633,1.396-2.27,5.498,0.385,5.362c2.479-0.127,1.203-3.593,0.502-5.149
		c0.57,0.052,1.076-0.057,1.449-0.188c0.729,0.823,1.543,1.567,2.428,2.226v3.902h-5.049c-9.234,0-16.719,7.486-16.719,16.719
		l-0.002,8.529c0.002,3.178,2.578,5.754,5.758,5.754h50.977c3.18,0,5.756-2.576,5.756-5.754v-8.529
		C82.467,70.201,74.98,62.715,65.748,62.715z M36.941,46.036v-8.529c0-0.024,0.004-0.047,0.004-0.071
		c10.178-4.498,13.424-11.557,14.278-14.058c0.852,2.501,4.098,9.559,14.274,14.058c0,0.024,0.004,0.047,0.004,0.071v8.529
		c-0.015,7.884-6.394,14.265-14.28,14.278C43.334,60.301,36.955,53.92,36.941,46.036z M51.223,71.369
		c-3.59-0.008-6.637-2.262-7.832-5.43v-6.049c2.314,1.311,4.982,2.067,7.83,2.067c2.85,0,5.521-0.757,7.832-2.067v6.051
		C57.855,69.107,54.809,71.361,51.223,71.369z
		
		M57.492,52.795c-1.227,1.621-3.574,2.717-6.27,2.717c-2.698,0-5.043-1.096-6.271-2.717
		c0.178,2.441,2.912,4.381,6.271,4.381C54.58,57.176,57.312,55.236,57.492,52.795z
		
		M 44.572, 41.593
		m -2.408, 0
		a 2.408,2.408 0 1,0 4.816,0
		a 2.408,2.408 0 1,0 -4.816,0
		
		M 57.873, 41.593
		m -2.408, 0
		a 2.408,2.408 0 1,0 4.816,0
		a 2.408,2.408 0 1,0 -4.816,0
		"/>
</g>
</svg>
