<?xml version="1.0" encoding="UTF-8" standalone="no"?>
<!-- Created with Inkscape (http://www.inkscape.org/) -->

<svg
   xmlns:dc="http://purl.org/dc/elements/1.1/"
   xmlns:cc="http://creativecommons.org/ns#"
   xmlns:rdf="http://www.w3.org/1999/02/22-rdf-syntax-ns#"
   xmlns:svg="http://www.w3.org/2000/svg"
   xmlns="http://www.w3.org/2000/svg"
   xmlns:sodipodi="http://sodipodi.sourceforge.net/DTD/sodipodi-0.dtd"
   xmlns:inkscape="http://www.inkscape.org/namespaces/inkscape"
   height="60px"
   width="60px"
   version="1.1"
   viewBox="-5 -5 66 77"
   id="svg810"
   inkscape:version="0.48+devel r11876"
   sodipodi:docname="infrastructure.svg">
  <metadata
     id="metadata824">
    <rdf:RDF>
      <cc:Work
         rdf:about="">
        <dc:format>image/svg+xml</dc:format>
        <dc:type
           rdf:resource="http://purl.org/dc/dcmitype/StillImage" />
        <dc:title></dc:title>
      </cc:Work>
    </rdf:RDF>
  </metadata>
  <defs
     id="defs822" />
  <sodipodi:namedview
     pagecolor="#ffffff"
     bordercolor="#666666"
     borderopacity="1"
     objecttolerance="10"
     gridtolerance="10"
     guidetolerance="10"
     inkscape:pageopacity="0"
     inkscape:pageshadow="2"
     inkscape:window-width="1198"
     inkscape:window-height="1899"
     id="namedview820"
     showgrid="false"
     fit-margin-top="5"
     fit-margin-left="5"
     fit-margin-right="5"
     fit-margin-bottom="5"
     inkscape:zoom="11.6"
     inkscape:cx="30.346207"
     inkscape:cy="26"
     inkscape:window-x="0"
     inkscape:window-y="19"
     inkscape:window-maximized="0"
     inkscape:current-layer="svg810" />
  <path
     d="M 24,29 9,29 C 7,29 5,31 5,33 L 5,54 C 5,56 7,57 9,57 L 24,57 C 26,57 28,56 28,54 L 28,33 C 28,31 26,29 24,29 M 15,52 C 15,53 15,54 14,54 L 10,54 C 9,54 8,53 8,52 L 8,49 C 8,48 9,48 10,48 L 14,48 C 15,48 15,48 15,49 L 15,52 Z M 15,44 C 15,45 15,45 14,45 L 10,45 C 9,45 8,45 8,44 L 8,40 C 8,40 9,39 10,39 L 14,39 C 15,39 15,40 15,40 L 15,44 Z M 15,37 C 15,37 15,38 14,38 L 10,38 C 9,38 8,37 8,37 L 8,33 C 8,32 9,32 10,32 L 14,32 C 15,32 15,32 15,33 L 15,37 Z M 25,52 C 25,53 24,54 24,54 L 19,54 C 19,54 18,53 18,52 L 18,49 C 18,48 19,48 19,48 L 24,48 C 24,48 25,48 25,49 L 25,52 Z M 25,44 C 25,45 24,45 24,45 L 19,45 C 19,45 18,45 18,44 L 18,40 19,39 24,39 25,40 25,44 Z M 25,37 24,38 19,38 18,37 18,33 C 18,32 19,32 19,32 L 24,32 C 24,32 25,32 25,33 L 25,37 Z"
     id="path816"
     inkscape:connector-curvature="0"
     style="fill:#384445" />
  <path
     d="M 51,30 51,9 C 51,7 50,5 48,5 L 32,5 C 30,5 29,7 29,9 L 29,30 29,33 29,54 C 29,56 30,57 32,57 L 48,57 C 50,57 51,56 51,54 L 51,33 51,30 Z M 42,9 C 42,9 42,8 43,8 L 47,8 C 48,8 48,9 48,9 L 48,13 C 48,14 48,14 47,14 L 43,14 C 42,14 42,14 42,13 L 42,9 Z M 42,16 C 42,16 42,15 43,15 L 47,15 C 48,15 48,16 48,16 L 48,20 C 48,21 48,21 47,21 L 43,21 C 42,21 42,21 42,20 L 42,16 Z M 42,25 C 42,24 42,24 43,24 L 47,24 C 48,24 48,24 48,25 L 48,29 C 48,29 48,30 47,30 L 43,30 C 42,30 42,29 42,29 L 42,25 Z M 32,9 33,8 37,8 C 38,8 39,9 39,9 L 39,13 C 39,14 38,14 37,14 L 33,14 C 33,14 32,14 32,13 L 32,9 Z M 32,16 33,15 37,15 C 38,15 39,16 39,16 L 39,20 C 39,21 38,21 37,21 L 33,21 C 33,21 32,21 32,20 L 32,16 Z M 32,25 C 32,24 33,24 33,24 L 37,24 C 38,24 39,24 39,25 L 39,29 C 39,29 38,30 37,30 L 33,30 32,29 32,25 Z M 39,52 C 39,53 38,54 37,54 L 33,54 C 33,54 32,53 32,52 L 32,49 C 32,48 33,48 33,48 L 37,48 C 38,48 39,48 39,49 L 39,52 Z M 39,44 C 39,45 38,45 37,45 L 33,45 C 33,45 32,45 32,44 L 32,40 33,39 37,39 C 38,39 39,40 39,40 L 39,44 Z M 39,37 C 39,37 38,38 37,38 L 33,38 32,37 32,33 C 32,32 33,32 33,32 L 37,32 C 38,32 39,32 39,33 L 39,37 Z M 48,52 C 48,53 48,54 47,54 L 43,54 C 42,54 42,53 42,52 L 42,49 C 42,48 42,48 43,48 L 47,48 C 48,48 48,48 48,49 L 48,52 Z M 48,44 C 48,45 48,45 47,45 L 43,45 C 42,45 42,45 42,44 L 42,40 C 42,40 42,39 43,39 L 47,39 C 48,39 48,40 48,40 L 48,44 Z M 48,37 C 48,37 48,38 47,38 L 43,38 C 42,38 42,37 42,37 L 42,33 C 42,32 42,32 43,32 L 47,32 C 48,32 48,32 48,33 L 48,37 Z"
     id="path818"
     inkscape:connector-curvature="0"
     style="fill:#384445" />
</svg>
