<?xml version="1.0" encoding="UTF-8" standalone="no"?>
<!-- Generator: Adobe Illustrator 15.0.0, SVG Export Plug-In . SVG Version: 6.00 Build 0)  -->

<svg
   xmlns:dc="http://purl.org/dc/elements/1.1/"
   xmlns:cc="http://creativecommons.org/ns#"
   xmlns:rdf="http://www.w3.org/1999/02/22-rdf-syntax-ns#"
   xmlns:svg="http://www.w3.org/2000/svg"
   xmlns="http://www.w3.org/2000/svg"
   xmlns:sodipodi="http://sodipodi.sourceforge.net/DTD/sodipodi-0.dtd"
   xmlns:inkscape="http://www.inkscape.org/namespaces/inkscape"
   version="1.1"
   id="Layer_1"
   x="0px"
   y="0px"
   width="60px"
   height="60px"
   viewBox="-10 -10 99.506003 58.691742"
   enable-background="new 0 0 800 600"
   xml:space="preserve"
   inkscape:version="0.48+devel r11876"
   sodipodi:docname="distribution.svg"><metadata
     id="metadata880"><rdf:RDF><cc:Work
         rdf:about=""><dc:format>image/svg+xml</dc:format><dc:type
           rdf:resource="http://purl.org/dc/dcmitype/StillImage" /><dc:title></dc:title></cc:Work></rdf:RDF></metadata><defs
     id="defs878" /><sodipodi:namedview
     pagecolor="#ffffff"
     bordercolor="#666666"
     borderopacity="1"
     objecttolerance="10"
     gridtolerance="10"
     guidetolerance="10"
     inkscape:pageopacity="0"
     inkscape:pageshadow="2"
     inkscape:window-width="1198"
     inkscape:window-height="1899"
     id="namedview876"
     showgrid="false"
     fit-margin-top="0"
     fit-margin-left="0"
     fit-margin-right="0"
     fit-margin-bottom="0"
     inkscape:zoom="11.6"
     inkscape:cx="2.30925"
     inkscape:cy="-6.9315289"
     inkscape:window-x="0"
     inkscape:window-y="19"
     inkscape:window-maximized="0"
     inkscape:current-layer="Layer_1" /><g
     id="g866"
     transform="translate(-369.21,-255.99062)"><path
       d="M 448.715,249.542 402.432,249.542 402.432,289.846 423.454,289.846 C 425.103,286.23 428.744,283.706 432.972,283.706 437.2,283.706 440.838,286.229 442.488,289.846 L 448.716,289.846 448.716,249.542 Z"
       id="path868"
       inkscape:connector-curvature="0"
       style="fill:#e8c79a" /><path
       d="M 388.895,283.707 C 392.364,283.707 395.434,285.41 397.339,288.016 L 397.339,260.932 379.784,260.932 369.21,272.612 369.21,289.841 379.381,289.841 C 381.031,286.228 384.67,283.707 388.895,283.707 Z M 375.707,273.707 381.609,266.699 390.988,266.699 390.988,279.256 375.707,279.256 375.707,273.707 Z"
       id="path870"
       inkscape:connector-curvature="0"
       style="fill:#e8c79a" /><circle
       cx="388.89499"
       cy="294.17099"
       r="6.96"
       id="circle872"
       sodipodi:cx="388.89499"
       sodipodi:cy="294.17099"
       sodipodi:rx="6.96"
       sodipodi:ry="6.96"
       style="fill:#e8c79a"
       d="M 395.85499,294.17099 C 395.85499,298.01489 392.73889,301.13099 388.89499,301.13099 385.05109,301.13099 381.93499,298.01489 381.93499,294.17099 381.93499,290.32709 385.05109,287.21099 388.89499,287.21099 392.73889,287.21099 395.85499,290.32709 395.85499,294.17099 Z" /><circle
       cx="432.97198"
       cy="294.17099"
       r="6.96"
       id="circle874"
       sodipodi:cx="432.97198"
       sodipodi:cy="294.17099"
       sodipodi:rx="6.96"
       sodipodi:ry="6.96"
       style="fill:#e8c79a"
       d="M 439.93198,294.17099 C 439.93198,298.01489 436.81589,301.13099 432.97198,301.13099 429.12808,301.13099 426.01198,298.01489 426.01198,294.17099 426.01198,290.32709 429.12808,287.21099 432.97198,287.21099 436.81589,287.21099 439.93198,290.32709 439.93198,294.17099 Z" /></g></svg>
